WorkSans-SemiBold.ufo
<glyph name="numbersign" format="2">
  <advance width="671"/>
  <unicode hex="0023"/>
  <outline>
    <contour>
      <point x="457" y="660" type="line"/>
      <point x="349" y="0" type="line"/>
      <point x="447" y="0" type="line"/>
      <point x="555" y="660" type="line"/>
    </contour>
    <contour>
      <point x="24" y="257" type="line"/>
      <point x="24" y="170" type="line"/>
      <point x="603" y="170" type="line"/>
      <point x="603" y="257" type="line"/>
    </contour>
    <contour>
      <point x="215" y="660" type="line"/>
      <point x="108" y="0" type="line"/>
      <point x="206" y="0" type="line"/>
      <point x="314" y="660" type="line"/>
    </contour>
    <contour>
      <point x="67" y="493" type="line"/>
      <point x="67" y="406" type="line"/>
      <point x="646" y="406" type="line"/>
      <point x="646" y="493" type="line"/>
    </contour>
  </outline>
</glyph>
<glyph name="ampersand" format="2">
  <advance width="638"/>
  <unicode hex="0026"/>
  <outline>
    <contour>
      <point x="483" y="94" type="curve"/>
      <point x="552" y="153"/>
      <point x="586" y="242"/>
      <point x="584" y="340" type="curve"/>
      <point x="489" y="345" type="line"/>
      <point x="493" y="259"/>
      <point x="470" y="197"/>
      <point x="431" y="149" type="curve"/>
      <point x="387" y="108"/>
      <point x="331" y="85"/>
      <point x="267" y="85" type="curve" smooth="yes"/>
      <point x="203" y="85"/>
      <point x="153" y="122"/>
      <point x="153" y="176" type="curve" smooth="yes"/>
      <point x="153" y="225"/>
      <point x="175" y="258"/>
      <point x="284" y="320" type="curve" smooth="yes"/>
      <point x="426" y="371"/>
      <point x="472" y="436"/>
      <point x="472" y="521" type="curve" smooth="yes"/>
      <point x="472" y="612"/>
      <point x="403" y="670"/>
      <point x="290" y="670" type="curve" smooth="yes"/>
      <point x="166" y="670"/>
      <point x="106" y="589"/>
      <point x="106" y="510" type="curve" smooth="yes"/>
      <point x="106" y="429"/>
      <point x="145" y="384"/>
      <point x="316" y="197" type="curve" smooth="yes"/>
      <point x="479" y="13"/>
      <point x="523" y="-10"/>
      <point x="620" y="-10" type="curve"/>
      <point x="637" y="88" type="line"/>
      <point x="559" y="81"/>
      <point x="528" y="114"/>
      <point x="388" y="275" type="curve" smooth="yes"/>
      <point x="247" y="438"/>
      <point x="226" y="462"/>
      <point x="226" y="507" type="curve" smooth="yes"/>
      <point x="226" y="545"/>
      <point x="249" y="574"/>
      <point x="292" y="574" type="curve" smooth="yes"/>
      <point x="334" y="574"/>
      <point x="360" y="555"/>
      <point x="360" y="515" type="curve" smooth="yes"/>
      <point x="360" y="470"/>
      <point x="348" y="430"/>
      <point x="241" y="374" type="curve" smooth="yes"/>
      <point x="79" y="331"/>
      <point x="33" y="246"/>
      <point x="34" y="166" type="curve" smooth="yes"/>
      <point x="34" y="57"/>
      <point x="126" y="-10"/>
      <point x="258" y="-10" type="curve" smooth="yes"/>
      <point x="359" y="-10"/>
      <point x="437" y="31"/>
    </contour>
  </outline>
</glyph>
<glyph name="parenleft" format="2">
  <advance width="376"/>
  <unicode hex="0028"/>
  <outline>
    <contour>
      <point x="65" y="276" type="curve" smooth="yes"/>
      <point x="65" y="76"/>
      <point x="143" y="-81"/>
      <point x="291" y="-191" type="curve"/>
      <point x="359" y="-124" type="line"/>
      <point x="239" y="-15"/>
      <point x="192" y="97"/>
      <point x="192" y="276" type="curve" smooth="yes"/>
      <point x="192" y="454"/>
      <point x="239" y="566"/>
      <point x="359" y="675" type="curve"/>
      <point x="291" y="742" type="line"/>
      <point x="143" y="632"/>
      <point x="65" y="475"/>
    </contour>
  </outline>
</glyph>
<glyph name="plus" format="2">
  <advance width="604"/>
  <unicode hex="002B"/>
  <outline>
    <contour>
      <point x="246" y="580" type="line"/>
      <point x="246" y="63" type="line"/>
      <point x="359" y="63" type="line"/>
      <point x="359" y="580" type="line"/>
    </contour>
    <contour>
      <point x="54" y="374" type="line"/>
      <point x="54" y="270" type="line"/>
      <point x="550" y="270" type="line"/>
      <point x="550" y="374" type="line"/>
    </contour>
  </outline>
</glyph>
<glyph name="hyphen" format="2">
  <advance width="521"/>
  <unicode hex="002D"/>
  <outline>
    <contour>
      <point x="84" y="324" type="line"/>
      <point x="84" y="206" type="line"/>
      <point x="437" y="206" type="line"/>
      <point x="437" y="324" type="line"/>
    </contour>
  </outline>
</glyph>
<glyph name="slash" format="2">
  <advance width="457"/>
  <unicode hex="002F"/>
  <outline>
    <contour>
      <point x="309" y="719" type="line"/>
      <point x="20" y="-70" type="line"/>
      <point x="147" y="-70" type="line"/>
      <point x="437" y="719" type="line"/>
    </contour>
  </outline>
</glyph>
<glyph name="four" format="2">
  <advance width="633"/>
  <unicode hex="0034"/>
  <outline>
    <contour>
      <point x="491" y="255" type="line"/>
      <point x="491" y="660" type="line"/>
      <point x="326" y="660" type="line"/>
      <point x="37" y="228" type="line"/>
      <point x="37" y="155" type="line"/>
      <point x="366" y="155" type="line"/>
      <point x="366" y="0" type="line"/>
      <point x="491" y="0" type="line"/>
      <point x="491" y="155" type="line"/>
      <point x="598" y="155" type="line"/>
      <point x="598" y="255" type="line"/>
    </contour>
    <contour>
      <point x="367" y="565" type="curve"/>
      <point x="369" y="565" type="line"/>
      <point x="366" y="457" type="line"/>
      <point x="366" y="255" type="line"/>
      <point x="170" y="255" type="line"/>
      <point x="307" y="456" type="line" smooth="yes"/>
      <point x="328" y="488"/>
      <point x="352" y="530"/>
    </contour>
  </outline>
</glyph>
<glyph name="five" format="2">
  <advance width="582"/>
  <unicode hex="0035"/>
  <outline>
    <contour>
      <point x="187" y="375" type="curve"/>
      <point x="186" y="375" type="line"/>
      <point x="186" y="376"/>
      <point x="188" y="386"/>
      <point x="189" y="394" type="curve"/>
      <point x="208" y="549" type="line"/>
      <point x="501" y="549" type="line"/>
      <point x="501" y="660" type="line"/>
      <point x="104" y="660" type="line"/>
      <point x="63" y="286" type="line"/>
      <point x="171" y="274" type="line"/>
      <point x="197" y="307"/>
      <point x="240" y="322"/>
      <point x="292" y="322" type="curve" smooth="yes"/>
      <point x="367" y="322"/>
      <point x="406" y="283"/>
      <point x="407" y="211" type="curve" smooth="yes"/>
      <point x="407" y="140"/>
      <point x="362" y="100"/>
      <point x="289" y="100" type="curve" smooth="yes"/>
      <point x="211" y="100"/>
      <point x="182" y="138"/>
      <point x="166" y="198" type="curve"/>
      <point x="42" y="129" type="line"/>
      <point x="93" y="33"/>
      <point x="171" y="-10"/>
      <point x="290" y="-10" type="curve" smooth="yes"/>
      <point x="431" y="-10"/>
      <point x="535" y="67"/>
      <point x="535" y="220" type="curve" smooth="yes"/>
      <point x="535" y="341"/>
      <point x="457" y="425"/>
      <point x="328" y="425" type="curve" smooth="yes"/>
      <point x="265" y="425"/>
      <point x="216" y="406"/>
    </contour>
  </outline>
</glyph>
<glyph name="eight" format="2">
  <advance width="623"/>
  <unicode hex="0038"/>
  <outline>
    <contour>
      <point x="78" y="488" type="curve" smooth="yes"/>
      <point x="78" y="419"/>
      <point x="115" y="367"/>
      <point x="179" y="342" type="curve"/>
      <point x="179" y="341" type="line"/>
      <point x="100" y="314"/>
      <point x="54" y="257"/>
      <point x="54" y="176" type="curve" smooth="yes"/>
      <point x="54" y="62"/>
      <point x="153" y="-10"/>
      <point x="311" y="-10" type="curve" smooth="yes"/>
      <point x="470" y="-10"/>
      <point x="569" y="62"/>
      <point x="569" y="176" type="curve" smooth="yes"/>
      <point x="569" y="258"/>
      <point x="522" y="314"/>
      <point x="445" y="341" type="curve"/>
      <point x="445" y="342" type="line"/>
      <point x="508" y="367"/>
      <point x="545" y="420"/>
      <point x="545" y="488" type="curve" smooth="yes"/>
      <point x="545" y="600"/>
      <point x="455" y="668"/>
      <point x="311" y="668" type="curve" smooth="yes"/>
      <point x="168" y="668"/>
      <point x="78" y="600"/>
    </contour>
    <contour>
      <point x="413" y="475" type="curve" smooth="yes"/>
      <point x="413" y="421"/>
      <point x="373" y="388"/>
      <point x="311" y="388" type="curve" smooth="yes"/>
      <point x="250" y="388"/>
      <point x="210" y="421"/>
      <point x="210" y="475" type="curve" smooth="yes"/>
      <point x="210" y="530"/>
      <point x="249" y="562"/>
      <point x="311" y="562" type="curve" smooth="yes"/>
      <point x="374" y="562"/>
      <point x="413" y="530"/>
    </contour>
    <contour>
      <point x="189" y="193" type="curve" smooth="yes"/>
      <point x="189" y="254"/>
      <point x="237" y="290"/>
      <point x="311" y="290" type="curve" smooth="yes"/>
      <point x="386" y="290"/>
      <point x="433" y="254"/>
      <point x="433" y="193" type="curve" smooth="yes"/>
      <point x="433" y="133"/>
      <point x="388" y="97"/>
      <point x="311" y="97" type="curve" smooth="yes"/>
      <point x="236" y="97"/>
      <point x="189" y="133"/>
    </contour>
  </outline>
</glyph>
<glyph name="nine" format="2">
  <advance width="618"/>
  <unicode hex="0039"/>
  <outline>
    <contour>
      <point x="51" y="450" type="curve" smooth="yes"/>
      <point x="51" y="320"/>
      <point x="145" y="238"/>
      <point x="268" y="238" type="curve" smooth="yes"/>
      <point x="341" y="238"/>
      <point x="417" y="267"/>
      <point x="435" y="339" type="curve"/>
      <point x="439" y="339" type="line"/>
      <point x="439" y="334"/>
      <point x="439" y="330"/>
      <point x="439" y="325" type="curve" smooth="yes"/>
      <point x="439" y="185"/>
      <point x="399" y="100"/>
      <point x="295" y="100" type="curve" smooth="yes"/>
      <point x="223" y="100"/>
      <point x="198" y="135"/>
      <point x="183" y="190" type="curve"/>
      <point x="56" y="136" type="line"/>
      <point x="96" y="37"/>
      <point x="173" y="-10"/>
      <point x="294" y="-10" type="curve" smooth="yes"/>
      <point x="464" y="-10"/>
      <point x="564" y="97"/>
      <point x="564" y="328" type="curve" smooth="yes"/>
      <point x="564" y="544"/>
      <point x="469" y="670"/>
      <point x="297" y="670" type="curve" smooth="yes"/>
      <point x="144" y="670"/>
      <point x="51" y="586"/>
    </contour>
    <contour>
      <point x="407" y="450" type="curve" smooth="yes"/>
      <point x="407" y="386"/>
      <point x="363" y="344"/>
      <point x="295" y="344" type="curve" smooth="yes"/>
      <point x="223" y="344"/>
      <point x="183" y="384"/>
      <point x="183" y="450" type="curve" smooth="yes"/>
      <point x="183" y="517"/>
      <point x="223" y="557"/>
      <point x="295" y="557" type="curve" smooth="yes"/>
      <point x="363" y="557"/>
      <point x="407" y="515"/>
    </contour>
  </outline>
</glyph>
<glyph name="question" format="2">
  <advance width="583"/>
  <unicode hex="003F"/>
  <outline>
    <contour>
      <point x="35" y="496" type="curve"/>
      <point x="165" y="442" type="line"/>
      <point x="171" y="515"/>
      <point x="217" y="555"/>
      <point x="286" y="555" type="curve" smooth="yes"/>
      <point x="357" y="555"/>
      <point x="391" y="523"/>
      <point x="391" y="473" type="curve" smooth="yes"/>
      <point x="391" y="411"/>
      <point x="343" y="377"/>
      <point x="214" y="363" type="curve"/>
      <point x="220" y="212" type="line"/>
      <point x="342" y="212" type="line"/>
      <point x="349" y="306" type="line"/>
      <point x="455" y="317"/>
      <point x="538" y="370"/>
      <point x="538" y="493" type="curve" smooth="yes"/>
      <point x="538" y="611"/>
      <point x="437" y="670"/>
      <point x="295" y="670" type="curve" smooth="yes"/>
      <point x="134" y="670"/>
      <point x="52" y="597"/>
    </contour>
    <component base="period" xScale="0.981" yScale="0.962" xOffset="143"/>
  </outline>
</glyph>
<glyph name="at" format="2">
  <advance width="960"/>
  <unicode hex="0040"/>
  <outline>
    <contour>
      <point x="55" y="223" type="curve" smooth="yes"/>
      <point x="55" y="-31"/>
      <point x="225" y="-188"/>
      <point x="465" y="-188" type="curve" smooth="yes"/>
      <point x="595" y="-188"/>
      <point x="657" y="-154"/>
      <point x="714" y="-114" type="curve"/>
      <point x="674" y="-60" type="line"/>
      <point x="631" y="-92"/>
      <point x="579" y="-119"/>
      <point x="467" y="-119" type="curve" smooth="yes"/>
      <point x="286" y="-119"/>
      <point x="134" y="4"/>
      <point x="134" y="223" type="curve" smooth="yes"/>
      <point x="134" y="451"/>
      <point x="277" y="591"/>
      <point x="498" y="591" type="curve" smooth="yes"/>
      <point x="709" y="591"/>
      <point x="830" y="467"/>
      <point x="830" y="260" type="curve" smooth="yes"/>
      <point x="830" y="135"/>
      <point x="790" y="73"/>
      <point x="730" y="73" type="curve" smooth="yes"/>
      <point x="679" y="73"/>
      <point x="667" y="108"/>
      <point x="675" y="163" type="curve" smooth="yes"/>
      <point x="717" y="458" type="line"/>
      <point x="621" y="458" type="line"/>
      <point x="601" y="386" type="line"/>
      <point x="588" y="425"/>
      <point x="553" y="467"/>
      <point x="474" y="467" type="curve" smooth="yes"/>
      <point x="353" y="467"/>
      <point x="244" y="373"/>
      <point x="244" y="195" type="curve" smooth="yes"/>
      <point x="244" y="78"/>
      <point x="312" y="2"/>
      <point x="409" y="2" type="curve" smooth="yes"/>
      <point x="482" y="2"/>
      <point x="536" y="32"/>
      <point x="571" y="86" type="curve"/>
      <point x="589" y="37"/>
      <point x="630" y="-2"/>
      <point x="702" y="-2" type="curve" smooth="yes"/>
      <point x="811" y="-2"/>
      <point x="902" y="85"/>
      <point x="902" y="260" type="curve" smooth="yes"/>
      <point x="902" y="499"/>
      <point x="759" y="660"/>
      <point x="498" y="660" type="curve" smooth="yes"/>
      <point x="236" y="660"/>
      <point x="55" y="484"/>
    </contour>
    <contour>
      <point x="572" y="267" type="curve" smooth="yes"/>
      <point x="562" y="198" type="line" smooth="yes"/>
      <point x="554" y="130"/>
      <point x="504" y="97"/>
      <point x="451" y="97" type="curve" smooth="yes"/>
      <point x="394" y="97"/>
      <point x="363" y="139"/>
      <point x="363" y="210" type="curve" smooth="yes"/>
      <point x="363" y="314"/>
      <point x="416" y="375"/>
      <point x="490" y="375" type="curve" smooth="yes"/>
      <point x="559" y="375"/>
      <point x="580" y="330"/>
    </contour>
  </outline>
</glyph>
<glyph name="B" format="2">
  <advance width="672"/>
  <unicode hex="0042"/>
  <anchor x="315" y="660" name="top"/>
  <anchor x="372" y="0" name="ogonek"/>
  <anchor x="315" y="0" name="bottom"/>
  <anchor x="302" y="0" name="bottomC"/>
  <outline>
    <contour>
      <point x="385" y="0" type="line" smooth="yes"/>
      <point x="542" y="0"/>
      <point x="626" y="67"/>
      <point x="626" y="181" type="curve" smooth="yes"/>
      <point x="626" y="258"/>
      <point x="575" y="320"/>
      <point x="483" y="333" type="curve"/>
      <point x="483" y="334" type="line"/>
      <point x="566" y="348"/>
      <point x="609" y="409"/>
      <point x="609" y="480" type="curve" smooth="yes"/>
      <point x="609" y="594"/>
      <point x="535" y="660"/>
      <point x="375" y="660" type="curve" smooth="yes"/>
      <point x="86" y="660" type="line"/>
      <point x="86" y="0" type="line"/>
    </contour>
    <contour>
      <point x="220" y="277" type="line"/>
      <point x="373" y="277" type="line" smooth="yes"/>
      <point x="447" y="277"/>
      <point x="483" y="246"/>
      <point x="483" y="191" type="curve" smooth="yes"/>
      <point x="483" y="135"/>
      <point x="447" y="104"/>
      <point x="373" y="104" type="curve" smooth="yes"/>
      <point x="220" y="104" type="line"/>
    </contour>
    <contour>
      <point x="220" y="553" type="line"/>
      <point x="356" y="553" type="line" smooth="yes"/>
      <point x="430" y="553"/>
      <point x="466" y="525"/>
      <point x="466" y="468" type="curve" smooth="yes"/>
      <point x="466" y="411"/>
      <point x="430" y="383"/>
      <point x="356" y="383" type="curve" smooth="yes"/>
      <point x="220" y="383" type="line"/>
    </contour>
  </outline>
</glyph>
<glyph name="C" format="2">
  <advance width="683"/>
  <unicode hex="0043"/>
  <anchor x="366" y="660" name="top"/>
  <anchor x="458" y="0" name="ogonek"/>
  <anchor x="366" y="0" name="bottom"/>
  <anchor x="370" y="0" name="bottomC"/>
  <outline>
    <contour>
      <point x="524" y="220" type="line"/>
      <point x="503" y="141"/>
      <point x="451" y="103"/>
      <point x="372" y="103" type="curve" smooth="yes"/>
      <point x="261" y="103"/>
      <point x="196" y="184"/>
      <point x="196" y="330" type="curve" smooth="yes"/>
      <point x="196" y="477"/>
      <point x="265" y="557"/>
      <point x="375" y="557" type="curve" smooth="yes"/>
      <point x="451" y="557"/>
      <point x="495" y="526"/>
      <point x="517" y="446" type="curve"/>
      <point x="642" y="499" type="line"/>
      <point x="605" y="614"/>
      <point x="504" y="670"/>
      <point x="369" y="670" type="curve" smooth="yes"/>
      <point x="176" y="670"/>
      <point x="53" y="542"/>
      <point x="53" y="330" type="curve" smooth="yes"/>
      <point x="53" y="118"/>
      <point x="175" y="-10"/>
      <point x="371" y="-10" type="curve" smooth="yes"/>
      <point x="505" y="-10"/>
      <point x="611" y="53"/>
      <point x="651" y="182" type="curve"/>
    </contour>
  </outline>
</glyph>
<glyph name="G" format="2">
  <advance width="723"/>
  <unicode hex="0047"/>
  <anchor x="370" y="660" name="top"/>
  <anchor x="434" y="0" name="ogonek"/>
  <anchor x="395" y="0" name="bottom"/>
  <anchor x="369" y="0" name="bottomC"/>
  <outline>
    <contour>
      <point x="591" y="226" type="curve"/>
      <point x="538" y="232" type="line"/>
      <point x="538" y="144"/>
      <point x="471" y="101"/>
      <point x="381" y="101" type="curve" smooth="yes"/>
      <point x="259" y="101"/>
      <point x="196" y="180"/>
      <point x="196" y="330" type="curve" smooth="yes"/>
      <point x="196" y="477"/>
      <point x="265" y="557"/>
      <point x="377" y="557" type="curve" smooth="yes"/>
      <point x="451" y="557"/>
      <point x="506" y="523"/>
      <point x="527" y="453" type="curve"/>
      <point x="655" y="508" type="line"/>
      <point x="603" y="620"/>
      <point x="517" y="670"/>
      <point x="374" y="670" type="curve" smooth="yes"/>
      <point x="178" y="670"/>
      <point x="53" y="541"/>
      <point x="53" y="329" type="curve" smooth="yes"/>
      <point x="53" y="114"/>
      <point x="178" y="-10"/>
      <point x="360" y="-10" type="curve" smooth="yes"/>
      <point x="516" y="-10"/>
      <point x="591" y="83"/>
    </contour>
    <contour>
      <point x="657" y="0" type="line"/>
      <point x="657" y="348" type="line"/>
      <point x="365" y="348" type="line"/>
      <point x="365" y="247" type="line"/>
      <point x="538" y="247" type="line"/>
      <point x="538" y="166" type="line"/>
      <point x="552" y="143" type="line"/>
      <point x="561" y="0" type="line"/>
    </contour>
  </outline>
</glyph>
<glyph name="H" format="2">
  <advance width="739"/>
  <unicode hex="0048"/>
  <anchor x="370" y="660" name="top"/>
  <anchor x="657" y="0" name="ogonek"/>
  <anchor x="370" y="0" name="bottom"/>
  <anchor x="588" y="0" name="bottomC"/>
  <outline>
    <contour>
      <point x="515" y="660" type="line"/>
      <point x="515" y="0" type="line"/>
      <point x="653" y="0" type="line"/>
      <point x="653" y="660" type="line"/>
    </contour>
    <contour>
      <point x="86" y="660" type="line"/>
      <point x="86" y="0" type="line"/>
      <point x="224" y="0" type="line"/>
      <point x="224" y="660" type="line"/>
    </contour>
    <contour>
      <point x="155" y="389" type="line"/>
      <point x="155" y="278" type="line"/>
      <point x="587" y="278" type="line"/>
      <point x="587" y="389" type="line"/>
    </contour>
  </outline>
</glyph>
<glyph name="J" format="2">
  <advance width="601"/>
  <unicode hex="004A"/>
  <anchor x="456" y="660" name="top"/>
  <anchor x="346" y="0" name="ogonek"/>
  <anchor x="283" y="0" name="bottom"/>
  <anchor x="282" y="0" name="bottomC"/>
  <outline>
    <contour>
      <point x="387" y="660" type="line"/>
      <point x="387" y="262" type="line" smooth="yes"/>
      <point x="387" y="156"/>
      <point x="357" y="103"/>
      <point x="270" y="103" type="curve" smooth="yes"/>
      <point x="187" y="103"/>
      <point x="159" y="152"/>
      <point x="175" y="269" type="curve"/>
      <point x="40" y="245" type="line"/>
      <point x="12" y="94"/>
      <point x="87" y="-10"/>
      <point x="266" y="-10" type="curve" smooth="yes"/>
      <point x="430" y="-10"/>
      <point x="525" y="84"/>
      <point x="525" y="243" type="curve" smooth="yes"/>
      <point x="525" y="660" type="line"/>
    </contour>
  </outline>
</glyph>
<glyph name="L" format="2">
  <advance width="601"/>
  <unicode hex="004C"/>
  <anchor x="442" y="350" name="center"/>
  <anchor x="345" y="0" name="bottom"/>
  <anchor x="155" y="660" name="top"/>
  <anchor x="345" y="0" name="bottomC"/>
  <anchor x="333" y="700" name="topright"/>
  <anchor x="572" y="0" name="ogonek"/>
  <outline>
    <contour>
      <point x="86" y="660" type="line"/>
      <point x="86" y="0" type="line"/>
      <point x="224" y="0" type="line"/>
      <point x="224" y="660" type="line"/>
    </contour>
    <contour>
      <point x="155" y="111" type="line"/>
      <point x="155" y="0" type="line"/>
      <point x="572" y="0" type="line"/>
      <point x="572" y="111" type="line"/>
    </contour>
  </outline>
</glyph>
<glyph name="N" format="2">
  <advance width="739"/>
  <unicode hex="004E"/>
  <anchor x="372" y="660" name="top"/>
  <anchor x="653" y="0" name="ogonek"/>
  <anchor x="388" y="0" name="bottom"/>
  <anchor x="562" y="0" name="bottomC"/>
  <outline>
    <contour>
      <point x="529" y="660" type="line"/>
      <point x="529" y="278" type="line"/>
      <point x="533" y="161" type="line"/>
      <point x="531" y="161" type="line"/>
      <point x="474" y="273" type="line"/>
      <point x="243" y="660" type="line"/>
      <point x="86" y="660" type="line"/>
      <point x="86" y="0" type="line"/>
      <point x="210" y="0" type="line"/>
      <point x="210" y="382" type="line"/>
      <point x="206" y="499" type="line"/>
      <point x="207" y="499" type="line"/>
      <point x="264" y="388" type="line"/>
      <point x="495" y="0" type="line"/>
      <point x="653" y="0" type="line"/>
      <point x="653" y="660" type="line"/>
    </contour>
  </outline>
</glyph>
<glyph name="P" format="2">
  <advance width="646"/>
  <unicode hex="0050"/>
  <anchor x="323" y="660" name="top"/>
  <anchor x="224" y="0" name="ogonek"/>
  <anchor x="155" y="0" name="bottom"/>
  <anchor x="155" y="0" name="bottomC"/>
  <outline>
    <contour>
      <point x="175" y="660" type="line"/>
      <point x="175" y="550" type="line"/>
      <point x="342" y="550" type="line" smooth="yes"/>
      <point x="428" y="550"/>
      <point x="466" y="516"/>
      <point x="466" y="449" type="curve" smooth="yes"/>
      <point x="466" y="382"/>
      <point x="428" y="347"/>
      <point x="342" y="347" type="curve" smooth="yes"/>
      <point x="175" y="347" type="line"/>
      <point x="175" y="240" type="line"/>
      <point x="363" y="240" type="line" smooth="yes"/>
      <point x="516" y="240"/>
      <point x="606" y="317"/>
      <point x="606" y="448" type="curve" smooth="yes"/>
      <point x="606" y="583"/>
      <point x="516" y="660"/>
      <point x="363" y="660" type="curve" smooth="yes"/>
    </contour>
    <contour>
      <point x="86" y="660" type="line"/>
      <point x="86" y="0" type="line"/>
      <point x="224" y="0" type="line"/>
      <point x="224" y="660" type="line"/>
    </contour>
  </outline>
</glyph>
<glyph name="R" format="2">
  <advance width="680"/>
  <unicode hex="0052"/>
  <anchor x="327" y="660" name="top"/>
  <anchor x="656" y="0" name="ogonek"/>
  <anchor x="364" y="0" name="bottom"/>
  <anchor x="587" y="0" name="bottomC"/>
  <outline>
    <contour>
      <point x="171" y="660" type="line"/>
      <point x="171" y="550" type="line"/>
      <point x="359" y="550" type="line" smooth="yes"/>
      <point x="439" y="550"/>
      <point x="476" y="520"/>
      <point x="476" y="454" type="curve" smooth="yes"/>
      <point x="476" y="388"/>
      <point x="439" y="358"/>
      <point x="359" y="358" type="curve" smooth="yes"/>
      <point x="171" y="358" type="line"/>
      <point x="171" y="253" type="line"/>
      <point x="377" y="253" type="line" smooth="yes"/>
      <point x="527" y="253"/>
      <point x="617" y="327"/>
      <point x="617" y="456" type="curve" smooth="yes"/>
      <point x="617" y="586"/>
      <point x="527" y="660"/>
      <point x="377" y="660" type="curve" smooth="yes"/>
    </contour>
    <contour>
      <point x="86" y="660" type="line"/>
      <point x="86" y="0" type="line"/>
      <point x="222" y="0" type="line"/>
      <point x="222" y="660" type="line"/>
    </contour>
    <contour>
      <point x="324" y="289" type="line"/>
      <point x="501" y="0" type="line"/>
      <point x="656" y="0" type="line"/>
      <point x="442" y="329" type="line"/>
    </contour>
  </outline>
</glyph>
<glyph name="U" format="2">
  <advance width="715"/>
  <unicode hex="0055"/>
  <anchor x="358" y="660" name="top"/>
  <anchor x="484" y="14" name="ogonek"/>
  <anchor x="358" y="0" name="bottom"/>
  <anchor x="358" y="0" name="bottomC"/>
  <outline>
    <contour>
      <point x="501" y="660" type="line"/>
      <point x="501" y="266" type="line" smooth="yes"/>
      <point x="501" y="155"/>
      <point x="455" y="103"/>
      <point x="358" y="103" type="curve" smooth="yes"/>
      <point x="261" y="103"/>
      <point x="214" y="155"/>
      <point x="214" y="266" type="curve" smooth="yes"/>
      <point x="214" y="660" type="line"/>
      <point x="76" y="660" type="line"/>
      <point x="76" y="260" type="line" smooth="yes"/>
      <point x="76" y="80"/>
      <point x="174" y="-10"/>
      <point x="358" y="-10" type="curve" smooth="yes"/>
      <point x="542" y="-10"/>
      <point x="640" y="80"/>
      <point x="640" y="260" type="curve" smooth="yes"/>
      <point x="640" y="660" type="line"/>
    </contour>
  </outline>
</glyph>
<glyph name="V" format="2">
  <advance width="670"/>
  <unicode hex="0056"/>
  <anchor x="335" y="660" name="top"/>
  <anchor x="416" y="0" name="ogonek"/>
  <anchor x="335" y="0" name="bottom"/>
  <anchor x="344" y="0" name="bottomC"/>
  <outline>
    <contour>
      <point x="514" y="660" type="line"/>
      <point x="374" y="239" type="line"/>
      <point x="337" y="110" type="line"/>
      <point x="299" y="240" type="line"/>
      <point x="160" y="660" type="line"/>
      <point x="14" y="660" type="line"/>
      <point x="255" y="0" type="line"/>
      <point x="416" y="0" type="line"/>
      <point x="656" y="660" type="line"/>
    </contour>
  </outline>
</glyph>
<glyph name="W" format="2">
  <advance width="984"/>
  <unicode hex="0057"/>
  <anchor x="492" y="660" name="top"/>
  <anchor x="772" y="0" name="ogonek"/>
  <anchor x="492" y="0" name="bottom"/>
  <anchor x="704" y="0" name="bottomC"/>
  <outline>
    <contour>
      <point x="492" y="516" type="line"/>
      <point x="494" y="516" type="line"/>
      <point x="525" y="360" type="line"/>
      <point x="617" y="0" type="line"/>
      <point x="772" y="0" type="line"/>
      <point x="964" y="660" type="line"/>
      <point x="822" y="660" type="line"/>
      <point x="694" y="109" type="line"/>
      <point x="560" y="660" type="line"/>
      <point x="428" y="660" type="line"/>
      <point x="296" y="109" type="line"/>
      <point x="168" y="660" type="line"/>
      <point x="19" y="660" type="line"/>
      <point x="211" y="0" type="line"/>
      <point x="370" y="0" type="line"/>
      <point x="461" y="360" type="line"/>
    </contour>
  </outline>
</glyph>
<glyph name="X" format="2">
  <advance width="640"/>
  <unicode hex="0058"/>
  <anchor x="318" y="660" name="top"/>
  <anchor x="624" y="0" name="ogonek"/>
  <anchor x="318" y="0" name="bottom"/>
  <anchor x="548" y="0" name="bottomC"/>
  <outline>
    <contour>
      <point x="463" y="660" type="line"/>
      <point x="294" y="371" type="line"/>
      <point x="271" y="374" type="line"/>
      <point x="16" y="0" type="line"/>
      <point x="174" y="0" type="line"/>
      <point x="345" y="288" type="line"/>
      <point x="367" y="287" type="line"/>
      <point x="612" y="660" type="line"/>
    </contour>
    <contour>
      <point x="32" y="660" type="line"/>
      <point x="268" y="294" type="line"/>
      <point x="288" y="285" type="line"/>
      <point x="459" y="0" type="line"/>
      <point x="624" y="0" type="line"/>
      <point x="382" y="366" type="line"/>
      <point x="358" y="381" type="line"/>
      <point x="195" y="660" type="line"/>
    </contour>
  </outline>
</glyph>
<glyph name="Y" format="2">
  <advance width="626"/>
  <unicode hex="0059"/>
  <anchor x="313" y="660" name="top"/>
  <anchor x="382" y="0" name="ogonek"/>
  <anchor x="313" y="0" name="bottom"/>
  <anchor x="313" y="0" name="bottomC"/>
  <outline>
    <contour>
      <point x="470" y="660" type="line"/>
      <point x="364" y="463" type="line"/>
      <point x="313" y="359" type="line"/>
      <point x="263" y="463" type="line"/>
      <point x="157" y="660" type="line"/>
      <point x="10" y="660" type="line"/>
      <point x="244" y="247" type="line"/>
      <point x="244" y="0" type="line"/>
      <point x="382" y="0" type="line"/>
      <point x="382" y="247" type="line"/>
      <point x="616" y="660" type="line"/>
    </contour>
  </outline>
</glyph>
<glyph name="asciicircum" format="2">
  <advance width="593"/>
  <unicode hex="005E"/>
  <outline>
    <contour>
      <point x="150" y="355" type="line"/>
      <point x="345" y="726" type="line"/>
      <point x="237" y="726" type="line"/>
      <point x="25" y="355" type="line"/>
    </contour>
    <contour>
      <point x="356" y="726" type="line"/>
      <point x="248" y="726" type="line"/>
      <point x="443" y="355" type="line"/>
      <point x="568" y="355" type="line"/>
    </contour>
  </outline>
</glyph>
<glyph name="a" format="2">
  <advance width="574"/>
  <unicode hex="0061"/>
  <anchor x="276" y="500" name="top"/>
  <anchor x="554" y="4" name="ogonek"/>
  <anchor x="276" y="0" name="bottom"/>
  <anchor x="495" y="0" name="bottomC"/>
  <outline>
    <contour>
      <point x="49" y="366" type="curve"/>
      <point x="158" y="328" type="line"/>
      <point x="176" y="386"/>
      <point x="215" y="410"/>
      <point x="267" y="410" type="curve" smooth="yes"/>
      <point x="324" y="410"/>
      <point x="357" y="376"/>
      <point x="357" y="323" type="curve" smooth="yes"/>
      <point x="357" y="112" type="line"/>
      <point x="369" y="108" type="line" smooth="yes"/>
      <point x="369" y="22"/>
      <point x="414" y="-10"/>
      <point x="488" y="-10" type="curve" smooth="yes"/>
      <point x="513" y="-10"/>
      <point x="536" y="-5"/>
      <point x="554" y="4" type="curve"/>
      <point x="564" y="87" type="line"/>
      <point x="554" y="84"/>
      <point x="541" y="83"/>
      <point x="529" y="83" type="curve" smooth="yes"/>
      <point x="504" y="83"/>
      <point x="493" y="95"/>
      <point x="493" y="121" type="curve" smooth="yes"/>
      <point x="493" y="326" type="line" smooth="yes"/>
      <point x="493" y="450"/>
      <point x="411" y="510"/>
      <point x="272" y="510" type="curve" smooth="yes"/>
      <point x="150" y="510"/>
      <point x="69" y="454"/>
    </contour>
    <contour>
      <point x="236" y="276" type="line" smooth="yes"/>
      <point x="102" y="251"/>
      <point x="41" y="196"/>
      <point x="41" y="118" type="curve" smooth="yes"/>
      <point x="41" y="34"/>
      <point x="107" y="-10"/>
      <point x="205" y="-10" type="curve" smooth="yes"/>
      <point x="314" y="-10"/>
      <point x="394" y="54"/>
      <point x="394" y="140" type="curve"/>
      <point x="357" y="166" type="line"/>
      <point x="357" y="113"/>
      <point x="303" y="81"/>
      <point x="245" y="81" type="curve" smooth="yes"/>
      <point x="202" y="81"/>
      <point x="175" y="99"/>
      <point x="175" y="134" type="curve" smooth="yes"/>
      <point x="175" y="173"/>
      <point x="209" y="198"/>
      <point x="275" y="211" type="curve" smooth="yes"/>
      <point x="404" y="238" type="line"/>
      <point x="390" y="305" type="line"/>
    </contour>
  </outline>
</glyph>
<glyph name="c" format="2">
  <advance width="569"/>
  <unicode hex="0063"/>
  <anchor x="296" y="500" name="top"/>
  <anchor x="419" y="14" name="ogonek"/>
  <anchor x="296" y="0" name="bottom"/>
  <anchor x="305" y="0" name="bottomC"/>
  <outline>
    <contour>
      <point x="46" y="250" type="curve" smooth="yes"/>
      <point x="46" y="86"/>
      <point x="140" y="-10"/>
      <point x="306" y="-10" type="curve" smooth="yes"/>
      <point x="433" y="-10"/>
      <point x="511" y="52"/>
      <point x="532" y="141" type="curve"/>
      <point x="408" y="181" type="line"/>
      <point x="398" y="124"/>
      <point x="364" y="92"/>
      <point x="304" y="92" type="curve" smooth="yes"/>
      <point x="230" y="92"/>
      <point x="183" y="142"/>
      <point x="183" y="249" type="curve" smooth="yes"/>
      <point x="183" y="354"/>
      <point x="227" y="408"/>
      <point x="305" y="408" type="curve" smooth="yes"/>
      <point x="358" y="408"/>
      <point x="390" y="377"/>
      <point x="402" y="317" type="curve"/>
      <point x="530" y="363" type="line"/>
      <point x="506" y="445"/>
      <point x="442" y="510"/>
      <point x="301" y="510" type="curve" smooth="yes"/>
      <point x="141" y="510"/>
      <point x="46" y="414"/>
    </contour>
  </outline>
</glyph>
<glyph name="f" format="2">
  <advance width="407"/>
  <unicode hex="0066"/>
  <anchor x="255" y="719" name="top"/>
  <anchor x="245" y="0" name="ogonek"/>
  <anchor x="177" y="0" name="bottom"/>
  <anchor x="177" y="0" name="bottomC"/>
  <outline>
    <contour>
      <point x="108" y="560" type="curve" smooth="yes"/>
      <point x="108" y="0" type="line"/>
      <point x="245" y="0" type="line"/>
      <point x="245" y="454" type="line"/>
      <point x="239" y="481" type="line"/>
      <point x="239" y="550" type="line" smooth="yes"/>
      <point x="239" y="605"/>
      <point x="271" y="627"/>
      <point x="325" y="627" type="curve" smooth="yes"/>
      <point x="350" y="627"/>
      <point x="367" y="622"/>
      <point x="382" y="612" type="curve"/>
      <point x="401" y="703" type="line"/>
      <point x="380" y="719"/>
      <point x="342" y="729"/>
      <point x="297" y="729" type="curve" smooth="yes"/>
      <point x="185" y="729"/>
      <point x="108" y="673"/>
    </contour>
    <contour>
      <point x="21" y="500" type="line"/>
      <point x="21" y="398" type="line"/>
      <point x="397" y="398" type="line"/>
      <point x="397" y="500" type="line"/>
    </contour>
  </outline>
</glyph>
<glyph name="k" format="2">
  <advance width="602"/>
  <unicode hex="006B"/>
  <anchor x="141" y="719" name="top"/>
  <anchor x="323" y="0" name="bottom"/>
  <outline>
    <contour>
      <point x="426" y="500" type="line"/>
      <point x="171" y="231" type="line"/>
      <point x="173" y="85" type="line"/>
      <point x="323" y="246" type="line"/>
      <point x="350" y="259" type="line"/>
      <point x="581" y="500" type="line"/>
    </contour>
    <contour>
      <point x="72" y="719" type="line"/>
      <point x="72" y="0" type="line"/>
      <point x="209" y="0" type="line"/>
      <point x="209" y="719" type="line"/>
    </contour>
    <contour>
      <point x="275" y="261" type="line"/>
      <point x="438" y="0" type="line"/>
      <point x="593" y="0" type="line"/>
      <point x="369" y="341" type="line"/>
    </contour>
  </outline>
</glyph>
<glyph name="l" format="2">
  <advance width="319"/>
  <unicode hex="006C"/>
  <anchor x="285" y="354" name="center"/>
  <anchor x="199" y="0" name="bottom"/>
  <anchor x="135" y="719" name="top"/>
  <anchor x="209" y="0" name="bottomC"/>
  <anchor x="273" y="719" name="topright"/>
  <anchor x="271" y="0" name="ogonek"/>
  <outline>
    <contour>
      <point x="70" y="719" type="line"/>
      <point x="70" y="139" type="line" smooth="yes"/>
      <point x="70" y="35"/>
      <point x="113" y="-10"/>
      <point x="210" y="-10" type="curve" smooth="yes"/>
      <point x="243" y="-10"/>
      <point x="281" y="-2"/>
      <point x="303" y="11" type="curve"/>
      <point x="315" y="106" type="line"/>
      <point x="293" y="98"/>
      <point x="279" y="95"/>
      <point x="256" y="95" type="curve" smooth="yes"/>
      <point x="219" y="95"/>
      <point x="207" y="112"/>
      <point x="207" y="159" type="curve" smooth="yes"/>
      <point x="207" y="719" type="line"/>
    </contour>
  </outline>
</glyph>
<glyph name="m" format="2">
  <advance width="945"/>
  <unicode hex="006D"/>
  <anchor x="474" y="500" name="top"/>
  <anchor x="875" y="0" name="ogonek"/>
  <anchor x="474" y="0" name="bottom"/>
  <anchor x="806" y="0" name="bottomC"/>
  <outline>
    <contour>
      <point x="508" y="314" type="curve"/>
      <point x="543" y="269" type="line"/>
      <point x="543" y="356"/>
      <point x="592" y="402"/>
      <point x="653" y="402" type="curve" smooth="yes"/>
      <point x="703" y="402"/>
      <point x="739" y="374"/>
      <point x="739" y="301" type="curve" smooth="yes"/>
      <point x="739" y="0" type="line"/>
      <point x="875" y="0" type="line"/>
      <point x="876" y="328" type="line" smooth="yes"/>
      <point x="877" y="451"/>
      <point x="795" y="510"/>
      <point x="698" y="510" type="curve" smooth="yes"/>
      <point x="601" y="510"/>
      <point x="508" y="445"/>
    </contour>
    <contour>
      <point x="72" y="500" type="line"/>
      <point x="72" y="344" type="line"/>
      <point x="72" y="0" type="line"/>
      <point x="209" y="0" type="line"/>
      <point x="209" y="342" type="line"/>
      <point x="202" y="366" type="line"/>
      <point x="195" y="500" type="line"/>
    </contour>
    <contour>
      <point x="172" y="281" type="curve"/>
      <point x="209" y="265" type="line"/>
      <point x="209" y="363"/>
      <point x="266" y="402"/>
      <point x="319" y="402" type="curve" smooth="yes"/>
      <point x="370" y="402"/>
      <point x="406" y="374"/>
      <point x="406" y="301" type="curve" smooth="yes"/>
      <point x="406" y="0" type="line"/>
      <point x="543" y="0" type="line"/>
      <point x="543" y="328" type="line" smooth="yes"/>
      <point x="543" y="451"/>
      <point x="462" y="510"/>
      <point x="365" y="510" type="curve" smooth="yes"/>
      <point x="258" y="510"/>
      <point x="172" y="435"/>
    </contour>
  </outline>
</glyph>
<glyph name="o" format="2">
  <advance width="604"/>
  <unicode hex="006F"/>
  <anchor x="302" y="500" name="top"/>
  <anchor x="421" y="14" name="ogonek"/>
  <anchor x="302" y="0" name="bottom"/>
  <anchor x="302" y="0" name="bottomC"/>
  <outline>
    <contour>
      <point x="46" y="250" type="curve" smooth="yes"/>
      <point x="46" y="87"/>
      <point x="141" y="-10"/>
      <point x="302" y="-10" type="curve" smooth="yes"/>
      <point x="463" y="-10"/>
      <point x="558" y="87"/>
      <point x="558" y="250" type="curve" smooth="yes"/>
      <point x="558" y="413"/>
      <point x="463" y="510"/>
      <point x="302" y="510" type="curve" smooth="yes"/>
      <point x="141" y="510"/>
      <point x="46" y="413"/>
    </contour>
    <contour>
      <point x="421" y="250" type="curve" smooth="yes"/>
      <point x="421" y="144"/>
      <point x="379" y="92"/>
      <point x="302" y="92" type="curve" smooth="yes"/>
      <point x="225" y="92"/>
      <point x="183" y="144"/>
      <point x="183" y="250" type="curve" smooth="yes"/>
      <point x="183" y="356"/>
      <point x="225" y="408"/>
      <point x="302" y="408" type="curve" smooth="yes"/>
      <point x="379" y="408"/>
      <point x="421" y="356"/>
    </contour>
  </outline>
</glyph>
<glyph name="q" format="2">
  <advance width="629"/>
  <unicode hex="0071"/>
  <anchor x="309" y="500" name="top"/>
  <anchor x="353" y="14" name="ogonek"/>
  <anchor x="489" y="-210" name="bottom"/>
  <anchor x="260" y="0" name="bottomC"/>
  <outline>
    <contour>
      <point x="437" y="500" type="line"/>
      <point x="429" y="366" type="line"/>
      <point x="420" y="341" type="line"/>
      <point x="420" y="-210" type="line"/>
      <point x="557" y="-210" type="line"/>
      <point x="557" y="344" type="line"/>
      <point x="557" y="500" type="line"/>
    </contour>
    <component base="bowl" yScale="-1.0" xOffset="-31" yOffset="500"/>
  </outline>
</glyph>
<glyph name="r" format="2">
  <advance width="422"/>
  <unicode hex="0072"/>
  <anchor x="228" y="500" name="top"/>
  <anchor x="209" y="0" name="ogonek"/>
  <anchor x="149" y="0" name="bottom"/>
  <anchor x="141" y="0" name="bottomC"/>
  <outline>
    <contour>
      <point x="180" y="274" type="curve"/>
      <point x="209" y="259" type="line"/>
      <point x="209" y="350"/>
      <point x="269" y="394"/>
      <point x="329" y="394" type="curve" smooth="yes"/>
      <point x="355" y="394"/>
      <point x="378" y="388"/>
      <point x="392" y="379" type="curve"/>
      <point x="409" y="499" type="line"/>
      <point x="397" y="506"/>
      <point x="377" y="510"/>
      <point x="355" y="510" type="curve" smooth="yes"/>
      <point x="237" y="510"/>
      <point x="180" y="421"/>
    </contour>
    <contour>
      <point x="72" y="500" type="line"/>
      <point x="72" y="0" type="line"/>
      <point x="209" y="0" type="line"/>
      <point x="209" y="337" type="line"/>
      <point x="204" y="354" type="line"/>
      <point x="191" y="500" type="line"/>
    </contour>
  </outline>
</glyph>
<glyph name="w" format="2">
  <advance width="889"/>
  <unicode hex="0077"/>
  <anchor x="444" y="500" name="top"/>
  <anchor x="710" y="0" name="ogonek"/>
  <anchor x="444" y="0" name="bottom"/>
  <anchor x="642" y="0" name="bottomC"/>
  <outline>
    <contour>
      <point x="397" y="500" type="line"/>
      <point x="551" y="0" type="line"/>
      <point x="656" y="0" type="line"/>
      <point x="512" y="500" type="line"/>
    </contour>
    <contour>
      <point x="20" y="500" type="line"/>
      <point x="179" y="0" type="line"/>
      <point x="293" y="0" type="line"/>
      <point x="165" y="500" type="line"/>
    </contour>
    <contour>
      <point x="377" y="500" type="line"/>
      <point x="233" y="0" type="line"/>
      <point x="337" y="0" type="line"/>
      <point x="486" y="500" type="line"/>
    </contour>
    <contour>
      <point x="724" y="500" type="line"/>
      <point x="596" y="0" type="line"/>
      <point x="710" y="0" type="line"/>
      <point x="869" y="500" type="line"/>
    </contour>
  </outline>
</glyph>
<glyph name="x" format="2">
  <advance width="569"/>
  <unicode hex="0078"/>
  <anchor x="284" y="500" name="top"/>
  <anchor x="552" y="0" name="ogonek"/>
  <anchor x="284" y="0" name="bottom"/>
  <anchor x="484" y="0" name="bottomC"/>
  <outline>
    <contour>
      <point x="23" y="500" type="line"/>
      <point x="216" y="228" type="line"/>
      <point x="257" y="224" type="line"/>
      <point x="395" y="0" type="line"/>
      <point x="552" y="0" type="line"/>
      <point x="352" y="282" type="line"/>
      <point x="315" y="281" type="line"/>
      <point x="181" y="500" type="line"/>
    </contour>
    <contour>
      <point x="395" y="500" type="line"/>
      <point x="260" y="279" type="line"/>
      <point x="221" y="284" type="line"/>
      <point x="14" y="0" type="line"/>
      <point x="167" y="0" type="line"/>
      <point x="315" y="234" type="line"/>
      <point x="356" y="231" type="line"/>
      <point x="549" y="500" type="line"/>
    </contour>
  </outline>
</glyph>
<glyph name="z" format="2">
  <advance width="522"/>
  <unicode hex="007A"/>
  <anchor x="252" y="500" name="top"/>
  <anchor x="483" y="0" name="ogonek"/>
  <anchor x="252" y="0" name="bottom"/>
  <anchor x="252" y="0" name="bottomC"/>
  <outline>
    <contour>
      <point x="483" y="0" type="line"/>
      <point x="483" y="101" type="line"/>
      <point x="288" y="101" type="line"/>
      <point x="196" y="99" type="line"/>
      <point x="253" y="157" type="line"/>
      <point x="474" y="412" type="line"/>
      <point x="474" y="500" type="line"/>
      <point x="46" y="500" type="line"/>
      <point x="46" y="399" type="line"/>
      <point x="239" y="399" type="line"/>
      <point x="322" y="401" type="line"/>
      <point x="265" y="344" type="line"/>
      <point x="44" y="88" type="line"/>
      <point x="44" y="0" type="line"/>
    </contour>
  </outline>
</glyph>
<glyph name="braceleft" format="2">
  <advance width="395"/>
  <unicode hex="007B"/>
  <outline>
    <contour>
      <point x="148" y="589" type="curve" smooth="yes"/>
      <point x="148" y="427" type="line" smooth="yes"/>
      <point x="148" y="352"/>
      <point x="117" y="323"/>
      <point x="36" y="323" type="curve"/>
      <point x="36" y="263" type="line"/>
      <point x="180" y="263"/>
      <point x="262" y="300"/>
      <point x="262" y="402" type="curve" smooth="yes"/>
      <point x="262" y="578" type="line" smooth="yes"/>
      <point x="262" y="628"/>
      <point x="292" y="649"/>
      <point x="364" y="649" type="curve"/>
      <point x="356" y="742" type="line"/>
      <point x="205" y="742"/>
      <point x="148" y="695"/>
    </contour>
    <contour>
      <point x="36" y="228" type="line"/>
      <point x="117" y="228"/>
      <point x="148" y="199"/>
      <point x="148" y="124" type="curve" smooth="yes"/>
      <point x="148" y="-37" type="line" smooth="yes"/>
      <point x="148" y="-144"/>
      <point x="205" y="-191"/>
      <point x="356" y="-191" type="curve"/>
      <point x="364" y="-98" type="line"/>
      <point x="292" y="-98"/>
      <point x="262" y="-77"/>
      <point x="262" y="-27" type="curve" smooth="yes"/>
      <point x="262" y="149" type="line" smooth="yes"/>
      <point x="262" y="251"/>
      <point x="180" y="288"/>
      <point x="36" y="288" type="curve"/>
    </contour>
  </outline>
</glyph>
<glyph name="cent" format="2">
  <advance width="572"/>
  <unicode hex="00A2"/>
  <outline>
    <contour>
      <point x="53" y="250" type="curve" smooth="yes"/>
      <point x="53" y="86"/>
      <point x="147" y="-10"/>
      <point x="312" y="-10" type="curve" smooth="yes"/>
      <point x="441" y="-10"/>
      <point x="520" y="50"/>
      <point x="537" y="142" type="curve"/>
      <point x="432" y="178" type="line"/>
      <point x="417" y="114"/>
      <point x="376" y="81"/>
      <point x="311" y="81" type="curve" smooth="yes"/>
      <point x="225" y="81"/>
      <point x="175" y="133"/>
      <point x="175" y="249" type="curve" smooth="yes"/>
      <point x="175" y="364"/>
      <point x="222" y="419"/>
      <point x="311" y="419" type="curve" smooth="yes"/>
      <point x="370" y="419"/>
      <point x="412" y="385"/>
      <point x="426" y="320" type="curve"/>
      <point x="535" y="363" type="line"/>
      <point x="514" y="446"/>
      <point x="449" y="510"/>
      <point x="308" y="510" type="curve" smooth="yes"/>
      <point x="148" y="510"/>
      <point x="53" y="414"/>
    </contour>
    <contour>
      <point x="267" y="600" type="line"/>
      <point x="267" y="-100" type="line"/>
      <point x="347" y="-100" type="line"/>
      <point x="347" y="600" type="line"/>
    </contour>
  </outline>
</glyph>
<glyph name="yen" format="2">
  <advance width="657"/>
  <unicode hex="00A5"/>
  <outline>
    <contour>
      <point x="25" y="660" type="line"/>
      <point x="266" y="268" type="line"/>
      <point x="391" y="268" type="line"/>
      <point x="632" y="660" type="line"/>
      <point x="487" y="660" type="line"/>
      <point x="375" y="441" type="line"/>
      <point x="330" y="339" type="line"/>
      <point x="328" y="339" type="line"/>
      <point x="282" y="440" type="line"/>
      <point x="170" y="660" type="line"/>
    </contour>
    <contour>
      <point x="393" y="0" type="line"/>
      <point x="393" y="260" type="line"/>
      <point x="264" y="260" type="line"/>
      <point x="264" y="0" type="line"/>
    </contour>
    <contour>
      <point x="586" y="116" type="line"/>
      <point x="586" y="173" type="line"/>
      <point x="72" y="173" type="line"/>
      <point x="72" y="116" type="line"/>
    </contour>
    <contour>
      <point x="586" y="242" type="line"/>
      <point x="586" y="302" type="line"/>
      <point x="463" y="302" type="line"/>
      <point x="329" y="292" type="line"/>
      <point x="194" y="302" type="line"/>
      <point x="72" y="302" type="line"/>
      <point x="72" y="242" type="line"/>
    </contour>
  </outline>
</glyph>
<glyph name="section" format="2">
  <advance width="614"/>
  <unicode hex="00A7"/>
  <outline>
    <contour>
      <point x="87" y="502" type="curve" smooth="yes"/>
      <point x="87" y="400"/>
      <point x="154" y="347"/>
      <point x="335" y="329" type="curve" smooth="yes"/>
      <point x="448" y="317"/>
      <point x="483" y="297"/>
      <point x="483" y="257" type="curve" smooth="yes"/>
      <point x="483" y="208"/>
      <point x="423" y="187"/>
      <point x="363" y="172" type="curve"/>
      <point x="421" y="96" type="line"/>
      <point x="506" y="118"/>
      <point x="589" y="172"/>
      <point x="589" y="275" type="curve" smooth="yes"/>
      <point x="589" y="369"/>
      <point x="522" y="418"/>
      <point x="347" y="437" type="curve" smooth="yes"/>
      <point x="231" y="450"/>
      <point x="196" y="471"/>
      <point x="196" y="514" type="curve" smooth="yes"/>
      <point x="196" y="551"/>
      <point x="237" y="574"/>
      <point x="314" y="574" type="curve" smooth="yes"/>
      <point x="388" y="574"/>
      <point x="427" y="550"/>
      <point x="461" y="503" type="curve"/>
      <point x="536" y="572" type="line"/>
      <point x="491" y="631"/>
      <point x="433" y="670"/>
      <point x="314" y="670" type="curve" smooth="yes"/>
      <point x="172" y="670"/>
      <point x="87" y="599"/>
    </contour>
    <contour>
      <point x="529" y="53" type="curve" smooth="yes"/>
      <point x="529" y="155"/>
      <point x="461" y="207"/>
      <point x="281" y="226" type="curve" smooth="yes"/>
      <point x="168" y="238"/>
      <point x="133" y="258"/>
      <point x="133" y="298" type="curve" smooth="yes"/>
      <point x="133" y="347"/>
      <point x="193" y="367"/>
      <point x="253" y="383" type="curve"/>
      <point x="195" y="459" type="line"/>
      <point x="110" y="437"/>
      <point x="27" y="383"/>
      <point x="27" y="280" type="curve" smooth="yes"/>
      <point x="27" y="186"/>
      <point x="94" y="137"/>
      <point x="269" y="118" type="curve" smooth="yes"/>
      <point x="385" y="105"/>
      <point x="420" y="83"/>
      <point x="420" y="41" type="curve" smooth="yes"/>
      <point x="420" y="4"/>
      <point x="378" y="-14"/>
      <point x="305" y="-14" type="curve" smooth="yes"/>
      <point x="231" y="-14"/>
      <point x="189" y="8"/>
      <point x="157" y="57" type="curve"/>
      <point x="80" y="-12" type="line"/>
      <point x="128" y="-74"/>
      <point x="192" y="-110"/>
      <point x="306" y="-110" type="curve" smooth="yes"/>
      <point x="444" y="-110"/>
      <point x="529" y="-45"/>
    </contour>
  </outline>
</glyph>
<glyph name="dieresis" format="2">
  <advance width="500"/>
  <unicode hex="00A8"/>
  <anchor x="252" y="500" name="_top"/>
  <outline>
    <contour>
      <point x="72" y="635" type="curve" smooth="yes"/>
      <point x="72" y="592"/>
      <point x="100" y="565"/>
      <point x="146" y="565" type="curve" smooth="yes"/>
      <point x="193" y="565"/>
      <point x="221" y="592"/>
      <point x="221" y="635" type="curve" smooth="yes"/>
      <point x="221" y="678"/>
      <point x="193" y="705"/>
      <point x="146" y="705" type="curve" smooth="yes"/>
      <point x="100" y="705"/>
      <point x="72" y="678"/>
    </contour>
    <contour>
      <point x="282" y="635" type="curve" smooth="yes"/>
      <point x="282" y="592"/>
      <point x="311" y="565"/>
      <point x="356" y="565" type="curve" smooth="yes"/>
      <point x="403" y="565"/>
      <point x="432" y="592"/>
      <point x="432" y="635" type="curve" smooth="yes"/>
      <point x="432" y="678"/>
      <point x="403" y="705"/>
      <point x="356" y="705" type="curve" smooth="yes"/>
      <point x="311" y="705"/>
      <point x="282" y="678"/>
    </contour>
  </outline>
</glyph>
<glyph name="copyright" format="2">
  <advance width="790"/>
  <unicode hex="00A9"/>
  <outline>
    <contour>
      <point x="51" y="330" type="curve" smooth="yes"/>
      <point x="51" y="124"/>
      <point x="186" y="-10"/>
      <point x="395" y="-10" type="curve" smooth="yes"/>
      <point x="603" y="-10"/>
      <point x="738" y="124"/>
      <point x="738" y="330" type="curve" smooth="yes"/>
      <point x="738" y="536"/>
      <point x="603" y="670"/>
      <point x="395" y="670" type="curve" smooth="yes"/>
      <point x="186" y="670"/>
      <point x="51" y="536"/>
    </contour>
    <contour>
      <point x="215" y="329" type="curve" smooth="yes"/>
      <point x="215" y="213"/>
      <point x="285" y="140"/>
      <point x="395" y="140" type="curve" smooth="yes"/>
      <point x="489" y="140"/>
      <point x="538" y="177"/>
      <point x="567" y="252" type="curve"/>
      <point x="489" y="288" type="line"/>
      <point x="474" y="250"/>
      <point x="446" y="235"/>
      <point x="402" y="235" type="curve" smooth="yes"/>
      <point x="347" y="235"/>
      <point x="315" y="269"/>
      <point x="315" y="329" type="curve" smooth="yes"/>
      <point x="315" y="388"/>
      <point x="347" y="422"/>
      <point x="401" y="422" type="curve" smooth="yes"/>
      <point x="445" y="422"/>
      <point x="469" y="407"/>
      <point x="484" y="372" type="curve"/>
      <point x="566" y="413" type="line"/>
      <point x="542" y="477"/>
      <point x="489" y="518"/>
      <point x="395" y="518" type="curve" smooth="yes"/>
      <point x="285" y="518"/>
      <point x="215" y="445"/>
    </contour>
    <contour>
      <point x="656" y="330" type="curve" smooth="yes"/>
      <point x="656" y="171"/>
      <point x="553" y="67"/>
      <point x="395" y="67" type="curve" smooth="yes"/>
      <point x="236" y="67"/>
      <point x="134" y="171"/>
      <point x="134" y="330" type="curve" smooth="yes"/>
      <point x="134" y="489"/>
      <point x="236" y="593"/>
      <point x="395" y="593" type="curve" smooth="yes"/>
      <point x="553" y="593"/>
      <point x="656" y="489"/>
    </contour>
  </outline>
</glyph>
<glyph name="ordfeminine" format="2">
  <advance width="418"/>
  <unicode hex="00AA"/>
  <outline>
    <contour>
      <point x="109" y="535" type="line"/>
      <point x="121" y="577"/>
      <point x="148" y="589"/>
      <point x="182" y="589" type="curve" smooth="yes"/>
      <point x="219" y="589"/>
      <point x="240" y="569"/>
      <point x="240" y="535" type="curve" smooth="yes"/>
      <point x="240" y="404" type="line"/>
      <point x="255" y="393" type="line"/>
      <point x="255" y="341"/>
      <point x="288" y="314"/>
      <point x="338" y="314" type="curve" smooth="yes"/>
      <point x="358" y="314"/>
      <point x="374" y="318"/>
      <point x="387" y="325" type="curve"/>
      <point x="395" y="383" type="line"/>
      <point x="390" y="381"/>
      <point x="383" y="380"/>
      <point x="373" y="380" type="curve" smooth="yes"/>
      <point x="357" y="380"/>
      <point x="345" y="388"/>
      <point x="345" y="410" type="curve" smooth="yes"/>
      <point x="345" y="534" type="line" smooth="yes"/>
      <point x="345" y="620"/>
      <point x="292" y="663"/>
      <point x="187" y="663" type="curve" smooth="yes"/>
      <point x="93" y="663"/>
      <point x="39" y="623"/>
      <point x="27" y="561" type="curve"/>
    </contour>
    <contour>
      <point x="380" y="169" type="line"/>
      <point x="380" y="245" type="line"/>
      <point x="31" y="245" type="line"/>
      <point x="31" y="169" type="line"/>
    </contour>
    <contour>
      <point x="275" y="423" type="curve"/>
      <point x="240" y="436" type="line"/>
      <point x="240" y="400"/>
      <point x="203" y="381"/>
      <point x="169" y="381" type="curve" smooth="yes"/>
      <point x="141" y="381"/>
      <point x="124" y="390"/>
      <point x="124" y="413" type="curve" smooth="yes"/>
      <point x="124" y="439"/>
      <point x="145" y="452"/>
      <point x="187" y="461" type="curve" smooth="yes"/>
      <point x="269" y="479" type="line"/>
      <point x="259" y="526" type="line"/>
      <point x="155" y="506" type="line" smooth="yes"/>
      <point x="61" y="488"/>
      <point x="22" y="454"/>
      <point x="22" y="397" type="curve" smooth="yes"/>
      <point x="22" y="343"/>
      <point x="62" y="314"/>
      <point x="132" y="314" type="curve" smooth="yes"/>
      <point x="222" y="314"/>
      <point x="275" y="361"/>
    </contour>
  </outline>
</glyph>
<glyph name="logicalnot" format="2">
  <advance width="604"/>
  <unicode hex="00AC"/>
  <outline>
    <contour>
      <point x="429" y="316" type="line"/>
      <point x="429" y="110" type="line"/>
      <point x="545" y="110" type="line"/>
      <point x="545" y="316" type="line"/>
    </contour>
    <contour>
      <point x="59" y="374" type="line"/>
      <point x="59" y="270" type="line"/>
      <point x="545" y="270" type="line"/>
      <point x="545" y="374" type="line"/>
    </contour>
  </outline>
</glyph>
<glyph name="registered" format="2">
  <advance width="790"/>
  <unicode hex="00AE"/>
  <outline>
    <contour>
      <point x="51" y="330" type="curve" smooth="yes"/>
      <point x="51" y="124"/>
      <point x="186" y="-10"/>
      <point x="395" y="-10" type="curve" smooth="yes"/>
      <point x="603" y="-10"/>
      <point x="738" y="124"/>
      <point x="738" y="330" type="curve" smooth="yes"/>
      <point x="738" y="536"/>
      <point x="603" y="670"/>
      <point x="395" y="670" type="curve" smooth="yes"/>
      <point x="186" y="670"/>
      <point x="51" y="536"/>
    </contour>
    <contour>
      <point x="257" y="515" type="line"/>
      <point x="257" y="148" type="line"/>
      <point x="346" y="148" type="line"/>
      <point x="346" y="515" type="line"/>
    </contour>
    <contour>
      <point x="378" y="295" type="line"/>
      <point x="462" y="148" type="line"/>
      <point x="567" y="148" type="line"/>
      <point x="453" y="318" type="line"/>
    </contour>
    <contour>
      <point x="656" y="330" type="curve" smooth="yes"/>
      <point x="656" y="171"/>
      <point x="553" y="67"/>
      <point x="395" y="67" type="curve" smooth="yes"/>
      <point x="236" y="67"/>
      <point x="134" y="171"/>
      <point x="134" y="330" type="curve" smooth="yes"/>
      <point x="134" y="489"/>
      <point x="236" y="593"/>
      <point x="395" y="593" type="curve" smooth="yes"/>
      <point x="553" y="593"/>
      <point x="656" y="489"/>
    </contour>
    <contour>
      <point x="309" y="515" type="line"/>
      <point x="309" y="443" type="line"/>
      <point x="408" y="443" type="line" smooth="yes"/>
      <point x="446" y="443"/>
      <point x="468" y="427"/>
      <point x="468" y="391" type="curve" smooth="yes"/>
      <point x="468" y="355"/>
      <point x="446" y="339"/>
      <point x="408" y="339" type="curve" smooth="yes"/>
      <point x="309" y="339" type="line"/>
      <point x="309" y="276" type="line"/>
      <point x="416" y="276" type="line" smooth="yes"/>
      <point x="502" y="276"/>
      <point x="558" y="320"/>
      <point x="558" y="395" type="curve" smooth="yes"/>
      <point x="558" y="467"/>
      <point x="502" y="515"/>
      <point x="424" y="515" type="curve" smooth="yes"/>
    </contour>
  </outline>
</glyph>
<glyph name="macron" format="2">
  <advance width="500"/>
  <unicode hex="00AF"/>
  <anchor x="250" y="500" name="_top"/>
  <outline>
    <contour>
      <point x="68" y="670" type="line"/>
      <point x="68" y="579" type="line"/>
      <point x="432" y="579" type="line"/>
      <point x="432" y="670" type="line"/>
    </contour>
  </outline>
</glyph>
<glyph name="threesuperior" format="2">
  <advance width="373"/>
  <unicode hex="00B3"/>
  <anchor x="180" y="530" name="_indexring"/>
  <outline>
    <contour>
      <point x="25" y="631" type="curve"/>
      <point x="119" y="600" type="line"/>
      <point x="124" y="637"/>
      <point x="147" y="654"/>
      <point x="180" y="654" type="curve" smooth="yes"/>
      <point x="214" y="654"/>
      <point x="233" y="638"/>
      <point x="233" y="606" type="curve" smooth="yes"/>
      <point x="233" y="576"/>
      <point x="214" y="558"/>
      <point x="177" y="558" type="curve" smooth="yes"/>
      <point x="158" y="558" type="line"/>
      <point x="158" y="499" type="line"/>
      <point x="181" y="499" type="line" smooth="yes"/>
      <point x="221" y="499"/>
      <point x="241" y="485"/>
      <point x="241" y="456" type="curve" smooth="yes"/>
      <point x="241" y="424"/>
      <point x="218" y="405"/>
      <point x="181" y="405" type="curve" smooth="yes"/>
      <point x="140" y="405"/>
      <point x="116" y="423"/>
      <point x="112" y="464" type="curve"/>
      <point x="15" y="426" type="line"/>
      <point x="38" y="356"/>
      <point x="96" y="327"/>
      <point x="187" y="327" type="curve" smooth="yes"/>
      <point x="282" y="327"/>
      <point x="345" y="373"/>
      <point x="345" y="443" type="curve" smooth="yes"/>
      <point x="345" y="500"/>
      <point x="305" y="530"/>
      <point x="255" y="530" type="curve"/>
      <point x="255" y="533" type="line"/>
      <point x="298" y="536"/>
      <point x="337" y="568"/>
      <point x="337" y="624" type="curve" smooth="yes"/>
      <point x="337" y="693"/>
      <point x="283" y="735"/>
      <point x="185" y="735" type="curve" smooth="yes"/>
      <point x="105" y="735"/>
      <point x="40" y="703"/>
    </contour>
  </outline>
</glyph>
<glyph name="uni00B5" format="2">
  <advance width="623"/>
  <unicode hex="00B5"/>
  <anchor x="313" y="500" name="top"/>
  <anchor x="550" y="0" name="ogonek"/>
  <anchor x="313" y="-210" name="bottom"/>
  <anchor x="499" y="0" name="bottomC"/>
  <outline>
    <contour>
      <point x="209" y="204" type="curve"/>
      <point x="120" y="169" type="line"/>
      <point x="120" y="41"/>
      <point x="178" y="-10"/>
      <point x="261" y="-10" type="curve" smooth="yes"/>
      <point x="375" y="-10"/>
      <point x="441" y="61"/>
      <point x="450" y="198" type="curve"/>
      <point x="413" y="205" type="line"/>
      <point x="405" y="136"/>
      <point x="362" y="98"/>
      <point x="297" y="98" type="curve" smooth="yes"/>
      <point x="242" y="98"/>
      <point x="209" y="123"/>
    </contour>
    <contour>
      <point x="72" y="500" type="line"/>
      <point x="72" y="-210" type="line"/>
      <point x="209" y="-210" type="line"/>
      <point x="209" y="500" type="line"/>
    </contour>
    <contour>
      <point x="413" y="500" type="line"/>
      <point x="413" y="169" type="line"/>
      <point x="422" y="134" type="line"/>
      <point x="431" y="0" type="line"/>
      <point x="550" y="0" type="line"/>
      <point x="550" y="130" type="line"/>
      <point x="550" y="500" type="line"/>
    </contour>
  </outline>
</glyph>
<glyph name="onesuperior" format="2">
  <advance width="277"/>
  <unicode hex="00B9"/>
  <anchor x="155" y="527" name="_indexring"/>
  <outline>
    <contour>
      <point x="232" y="730" type="line"/>
      <point x="143" y="730" type="line"/>
      <point x="133" y="676"/>
      <point x="128" y="602"/>
      <point x="128" y="562" type="curve" smooth="yes"/>
      <point x="128" y="333" type="line"/>
      <point x="232" y="333" type="line"/>
      <point x="232" y="638" type="line"/>
    </contour>
    <contour>
      <point x="198" y="709" type="curve"/>
      <point x="143" y="730" type="line"/>
      <point x="121" y="701"/>
      <point x="56" y="669"/>
      <point x="16" y="663" type="curve"/>
      <point x="16" y="577" type="line"/>
      <point x="97" y="585"/>
      <point x="175" y="659"/>
    </contour>
  </outline>
</glyph>
<glyph name="Idieresis" format="2">
  <advance width="310"/>
  <unicode hex="00CF"/>
  <anchor x="155" y="0" name="bottomC"/>
  <anchor x="155" y="660" name="top"/>
  <anchor x="224" y="0" name="ogonek"/>
  <anchor x="155" y="0" name="bottom"/>
  <outline>
    <contour>
      <point x="-14" y="795" type="curve" smooth="yes"/>
      <point x="-14" y="752"/>
      <point x="14" y="725"/>
      <point x="58" y="725" type="curve" smooth="yes"/>
      <point x="104" y="725"/>
      <point x="132" y="752"/>
      <point x="132" y="795" type="curve" smooth="yes"/>
      <point x="132" y="838"/>
      <point x="104" y="865"/>
      <point x="58" y="865" type="curve" smooth="yes"/>
      <point x="14" y="865"/>
      <point x="-14" y="838"/>
    </contour>
    <contour>
      <point x="178" y="795" type="curve" smooth="yes"/>
      <point x="178" y="752"/>
      <point x="206" y="725"/>
      <point x="250" y="725" type="curve" smooth="yes"/>
      <point x="296" y="725"/>
      <point x="324" y="752"/>
      <point x="324" y="795" type="curve" smooth="yes"/>
      <point x="324" y="838"/>
      <point x="296" y="865"/>
      <point x="250" y="865" type="curve" smooth="yes"/>
      <point x="206" y="865"/>
      <point x="178" y="838"/>
    </contour>
    <component base="I"/>
  </outline>
</glyph>
<glyph name="multiply" format="2">
  <advance width="604"/>
  <unicode hex="00D7"/>
  <outline>
    <contour>
      <point x="64" y="163" type="line"/>
      <point x="462" y="561" type="line"/>
      <point x="539" y="483" type="line"/>
      <point x="142" y="85" type="line"/>
    </contour>
    <contour>
      <point x="64" y="483" type="line"/>
      <point x="142" y="561" type="line"/>
      <point x="539" y="163" type="line"/>
      <point x="462" y="85" type="line"/>
    </contour>
  </outline>
</glyph>
<glyph name="idieresis" format="2">
  <advance width="282"/>
  <unicode hex="00EF"/>
  <anchor x="141" y="0" name="bottomC"/>
  <anchor x="141" y="500" name="top"/>
  <anchor x="202" y="4" name="ogonek"/>
  <anchor x="141" y="0" name="bottom"/>
  <outline>
    <contour>
      <point x="303" y="635" type="curve" smooth="yes"/>
      <point x="303" y="680"/>
      <point x="277" y="706"/>
      <point x="231" y="706" type="curve" smooth="yes"/>
      <point x="185" y="706"/>
      <point x="159" y="680"/>
      <point x="159" y="635" type="curve" smooth="yes"/>
      <point x="159" y="590"/>
      <point x="185" y="564"/>
      <point x="231" y="564" type="curve" smooth="yes"/>
      <point x="277" y="564"/>
      <point x="303" y="590"/>
    </contour>
    <contour>
      <point x="123" y="635" type="curve" smooth="yes"/>
      <point x="123" y="680"/>
      <point x="97" y="706"/>
      <point x="51" y="706" type="curve" smooth="yes"/>
      <point x="5" y="706"/>
      <point x="-21" y="680"/>
      <point x="-21" y="635" type="curve" smooth="yes"/>
      <point x="-21" y="590"/>
      <point x="5" y="564"/>
      <point x="51" y="564" type="curve" smooth="yes"/>
      <point x="97" y="564"/>
      <point x="123" y="590"/>
    </contour>
    <component base="idotless"/>
  </outline>
</glyph>
<glyph name="divide" format="2">
  <advance width="604"/>
  <unicode hex="00F7"/>
  <outline>
    <contour>
      <point x="53" y="374" type="line"/>
      <point x="53" y="270" type="line"/>
      <point x="551" y="270" type="line"/>
      <point x="551" y="374" type="line"/>
    </contour>
    <component base="period" xScale="0.91526" yScale="0.94794" xOffset="174" yOffset="47"/>
    <component base="period" xScale="0.91526" yScale="0.94794" xOffset="174" yOffset="462"/>
  </outline>
</glyph>
<glyph name="thorn" format="2">
  <advance width="629"/>
  <unicode hex="00FE"/>
  <anchor x="141" y="719" name="top"/>
  <anchor x="463" y="14" name="ogonek"/>
  <anchor x="141" y="-210" name="bottom"/>
  <anchor x="367" y="0" name="bottomC"/>
  <outline>
    <contour>
      <point x="72" y="719" type="line"/>
      <point x="72" y="-210" type="line"/>
      <point x="209" y="-210" type="line"/>
      <point x="209" y="719" type="line"/>
    </contour>
    <contour>
      <point x="184" y="315" type="curve"/>
      <point x="209" y="255" type="line"/>
      <point x="209" y="352"/>
      <point x="255" y="405"/>
      <point x="325" y="405" type="curve" smooth="yes"/>
      <point x="401" y="405"/>
      <point x="443" y="352"/>
      <point x="443" y="250" type="curve" smooth="yes"/>
      <point x="443" y="148"/>
      <point x="401" y="95"/>
      <point x="325" y="95" type="curve" smooth="yes"/>
      <point x="254" y="95"/>
      <point x="209" y="150"/>
      <point x="209" y="245" type="curve"/>
      <point x="181" y="185" type="line"/>
      <point x="181" y="76"/>
      <point x="247" y="-10"/>
      <point x="366" y="-10" type="curve" smooth="yes"/>
      <point x="479" y="-10"/>
      <point x="580" y="67"/>
      <point x="580" y="253" type="curve" smooth="yes"/>
      <point x="580" y="423"/>
      <point x="492" y="510"/>
      <point x="369" y="510" type="curve" smooth="yes"/>
      <point x="250" y="510"/>
      <point x="184" y="419"/>
    </contour>
  </outline>
</glyph>
<glyph name="aogonek" format="2">
  <advance width="574"/>
  <unicode hex="0105"/>
  <anchor x="276" y="500" name="top"/>
  <anchor x="514" y="-210" name="ogonek"/>
  <anchor x="276" y="-210" name="bottom"/>
  <anchor x="488" y="-210" name="bottomC"/>
  <outline>
    <contour>
      <point x="49" y="366" type="curve"/>
      <point x="158" y="328" type="line"/>
      <point x="176" y="386"/>
      <point x="215" y="410"/>
      <point x="267" y="410" type="curve" smooth="yes"/>
      <point x="324" y="410"/>
      <point x="357" y="376"/>
      <point x="357" y="323" type="curve" smooth="yes"/>
      <point x="357" y="122" type="line"/>
      <point x="374" y="117" type="line" smooth="yes"/>
      <point x="374" y="31"/>
      <point x="431" y="-3"/>
      <point x="494" y="-3" type="curve" smooth="yes"/>
      <point x="513" y="-3"/>
      <point x="536" y="-1"/>
      <point x="554" y="2" type="curve"/>
      <point x="564" y="87" type="line"/>
      <point x="554" y="84"/>
      <point x="541" y="83"/>
      <point x="529" y="83" type="curve" smooth="yes"/>
      <point x="504" y="83"/>
      <point x="493" y="95"/>
      <point x="493" y="121" type="curve" smooth="yes"/>
      <point x="493" y="326" type="line" smooth="yes"/>
      <point x="493" y="450"/>
      <point x="411" y="510"/>
      <point x="272" y="510" type="curve" smooth="yes"/>
      <point x="150" y="510"/>
      <point x="69" y="454"/>
    </contour>
    <contour>
      <point x="338" y="-108" type="curve" smooth="yes"/>
      <point x="338" y="-178"/>
      <point x="392" y="-215"/>
      <point x="469" y="-215" type="curve" smooth="yes"/>
      <point x="506" y="-215"/>
      <point x="537" y="-209"/>
      <point x="561" y="-194" type="curve"/>
      <point x="541" y="-123" type="line"/>
      <point x="527" y="-132"/>
      <point x="508" y="-134"/>
      <point x="492" y="-134" type="curve" smooth="yes"/>
      <point x="456" y="-134"/>
      <point x="437" y="-116"/>
      <point x="437" y="-86" type="curve" smooth="yes"/>
      <point x="437" y="-47"/>
      <point x="467" y="-19"/>
      <point x="554" y="2" type="curve"/>
      <point x="488" y="26" type="line"/>
      <point x="394" y="7"/>
      <point x="338" y="-37"/>
    </contour>
    <contour>
      <point x="236" y="276" type="line" smooth="yes"/>
      <point x="102" y="251"/>
      <point x="41" y="196"/>
      <point x="41" y="118" type="curve" smooth="yes"/>
      <point x="41" y="34"/>
      <point x="107" y="-10"/>
      <point x="205" y="-10" type="curve" smooth="yes"/>
      <point x="314" y="-10"/>
      <point x="394" y="54"/>
      <point x="394" y="140" type="curve"/>
      <point x="357" y="166" type="line"/>
      <point x="357" y="113"/>
      <point x="303" y="81"/>
      <point x="245" y="81" type="curve" smooth="yes"/>
      <point x="202" y="81"/>
      <point x="175" y="99"/>
      <point x="175" y="134" type="curve" smooth="yes"/>
      <point x="175" y="173"/>
      <point x="209" y="196"/>
      <point x="275" y="211" type="curve" smooth="yes"/>
      <point x="404" y="238" type="line"/>
      <point x="390" y="305" type="line"/>
    </contour>
  </outline>
</glyph>
<glyph name="Dcroat" format="2">
  <advance width="740"/>
  <unicode hex="0110"/>
  <anchor x="348" y="0" name="bottom"/>
  <anchor x="348" y="660" name="top"/>
  <anchor x="362" y="0" name="ogonek"/>
  <anchor x="253" y="210" name="center"/>
  <anchor x="345" y="0" name="bottomC"/>
  <outline>
    <contour>
      <point x="18" y="378" type="line"/>
      <point x="18" y="284" type="line"/>
      <point x="399" y="284" type="line"/>
      <point x="399" y="378" type="line"/>
    </contour>
    <component base="D" xOffset="21"/>
  </outline>
</glyph>
<glyph name="uni0123" format="2">
  <advance width="549"/>
  <unicode hex="0123"/>
  <anchor x="279" y="-210" name="bottomC"/>
  <anchor x="262" y="500" name="top"/>
  <anchor x="409" y="-196" name="ogonek"/>
  <anchor x="279" y="-210" name="bottom"/>
  <outline>
    <contour>
      <point x="284" y="774" type="line"/>
      <point x="213" y="572" type="line"/>
      <point x="336" y="572" type="line"/>
      <point x="374" y="774" type="line"/>
    </contour>
    <component base="g"/>
  </outline>
</glyph>
<glyph name="Imacron" format="2">
  <advance width="310"/>
  <unicode hex="012A"/>
  <anchor x="155" y="0" name="bottomC"/>
  <anchor x="155" y="660" name="top"/>
  <anchor x="224" y="0" name="ogonek"/>
  <anchor x="155" y="0" name="bottom"/>
  <outline>
    <contour>
      <point x="25" y="830" type="line"/>
      <point x="25" y="739" type="line"/>
      <point x="284" y="739" type="line"/>
      <point x="284" y="830" type="line"/>
    </contour>
    <component base="I"/>
  </outline>
</glyph>
<glyph name="iogonek" format="2">
  <advance width="282"/>
  <unicode hex="012F"/>
  <anchor x="141" y="709" name="top"/>
  <anchor x="202" y="4" name="ogonek"/>
  <anchor x="141" y="0" name="bottom"/>
  <anchor x="141" y="0" name="bottomC"/>
  <outline>
    <contour>
      <point x="146" y="25" type="line"/>
      <point x="58" y="-2"/>
      <point x="6" y="-44"/>
      <point x="6" y="-109" type="curve" smooth="yes"/>
      <point x="6" y="-178"/>
      <point x="60" y="-215"/>
      <point x="135" y="-215" type="curve" smooth="yes"/>
      <point x="177" y="-215"/>
      <point x="207" y="-208"/>
      <point x="233" y="-192" type="curve"/>
      <point x="211" y="-122" type="line"/>
      <point x="197" y="-130"/>
      <point x="177" y="-134"/>
      <point x="159" y="-134" type="curve" smooth="yes"/>
      <point x="124" y="-134"/>
      <point x="105" y="-116"/>
      <point x="105" y="-89" type="curve" smooth="yes"/>
      <point x="105" y="-54"/>
      <point x="135" y="-27"/>
      <point x="209" y="0" type="curve"/>
    </contour>
    <component base="i"/>
  </outline>
</glyph>
<glyph name="idotless" format="2">
  <advance width="282"/>
  <unicode hex="0131"/>
  <anchor x="141" y="500" name="top"/>
  <anchor x="202" y="4" name="ogonek"/>
  <anchor x="141" y="0" name="bottom"/>
  <anchor x="141" y="0" name="bottomC"/>
  <outline>
    <contour>
      <point x="72" y="500" type="line"/>
      <point x="72" y="0" type="line"/>
      <point x="209" y="0" type="line"/>
      <point x="209" y="500" type="line"/>
    </contour>
  </outline>
</glyph>
<glyph name="Lslash" format="2">
  <advance width="638"/>
  <unicode hex="0141"/>
  <anchor x="479" y="350" name="center"/>
  <anchor x="383" y="0" name="bottom"/>
  <anchor x="192" y="660" name="top"/>
  <anchor x="383" y="0" name="bottomC"/>
  <anchor x="371" y="700" name="topright"/>
  <anchor x="610" y="0" name="ogonek"/>
  <outline>
    <contour>
      <point x="15" y="287" type="line"/>
      <point x="15" y="177" type="line"/>
      <point x="435" y="388" type="line"/>
      <point x="435" y="498" type="line"/>
    </contour>
    <component base="L" xOffset="38"/>
  </outline>
</glyph>
<glyph name="lslash" format="2">
  <advance width="386"/>
  <unicode hex="0142"/>
  <anchor x="328" y="354" name="center"/>
  <anchor x="242" y="0" name="bottom"/>
  <anchor x="178" y="719" name="top"/>
  <anchor x="253" y="0" name="bottomC"/>
  <anchor x="288" y="719" name="topright"/>
  <anchor x="314" y="0" name="ogonek"/>
  <outline>
    <contour>
      <point x="179" y="389" type="line"/>
      <point x="23" y="306" type="line"/>
      <point x="23" y="197" type="line"/>
      <point x="206" y="314" type="line"/>
      <point x="360" y="397" type="line"/>
      <point x="360" y="507" type="line"/>
    </contour>
    <component base="l" xOffset="43"/>
  </outline>
</glyph>
<glyph name="OE" format="2">
  <advance width="1060"/>
  <unicode hex="0152"/>
  <anchor x="584" y="660" name="top"/>
  <anchor x="1022" y="0" name="ogonek"/>
  <anchor x="584" y="0" name="bottom"/>
  <anchor x="643" y="0" name="bottomC"/>
  <outline>
    <contour>
      <point x="53" y="330" type="curve" smooth="yes"/>
      <point x="53" y="118"/>
      <point x="172" y="-10"/>
      <point x="361" y="-10" type="curve" smooth="yes"/>
      <point x="541" y="-10"/>
      <point x="647" y="137"/>
      <point x="647" y="330" type="curve" smooth="yes"/>
      <point x="647" y="523"/>
      <point x="544" y="670"/>
      <point x="363" y="670" type="curve" smooth="yes"/>
      <point x="171" y="670"/>
      <point x="53" y="542"/>
    </contour>
    <contour>
      <point x="535" y="330" type="curve" smooth="yes"/>
      <point x="535" y="183"/>
      <point x="471" y="103"/>
      <point x="368" y="103" type="curve" smooth="yes"/>
      <point x="255" y="103"/>
      <point x="194" y="183"/>
      <point x="194" y="330" type="curve" smooth="yes"/>
      <point x="194" y="477"/>
      <point x="255" y="557"/>
      <point x="368" y="557" type="curve" smooth="yes"/>
      <point x="471" y="557"/>
      <point x="535" y="477"/>
    </contour>
    <contour>
      <point x="604" y="111" type="line"/>
      <point x="604" y="0" type="line"/>
      <point x="1022" y="0" type="line"/>
      <point x="1022" y="111" type="line"/>
    </contour>
    <contour>
      <point x="569" y="660" type="line"/>
      <point x="569" y="0" type="line"/>
      <point x="669" y="0" type="line"/>
      <point x="669" y="660" type="line"/>
    </contour>
    <contour>
      <point x="604" y="385" type="line"/>
      <point x="604" y="279" type="line"/>
      <point x="932" y="279" type="line"/>
      <point x="932" y="385" type="line"/>
    </contour>
    <contour>
      <point x="604" y="660" type="line"/>
      <point x="604" y="549" type="line"/>
      <point x="1008" y="549" type="line"/>
      <point x="1008" y="660" type="line"/>
    </contour>
  </outline>
</glyph>
<glyph name="uni0162" format="2">
  <advance width="635"/>
  <unicode hex="0162"/>
  <anchor x="318" y="-210" name="bottom"/>
  <anchor x="318" y="660" name="top"/>
  <anchor x="343" y="-210" name="ogonek"/>
  <anchor x="318" y="330" name="center"/>
  <anchor x="317" y="-210" name="bottomC"/>
  <outline>
    <contour>
      <point x="353" y="-80" type="curve" smooth="yes"/>
      <point x="353" y="-115"/>
      <point x="328" y="-134"/>
      <point x="297" y="-134" type="curve" smooth="yes"/>
      <point x="266" y="-134"/>
      <point x="245" y="-122"/>
      <point x="229" y="-104" type="curve"/>
      <point x="189" y="-176" type="line"/>
      <point x="216" y="-200"/>
      <point x="253" y="-215"/>
      <point x="310" y="-215" type="curve" smooth="yes"/>
      <point x="388" y="-215"/>
      <point x="444" y="-172"/>
      <point x="444" y="-99" type="curve" smooth="yes"/>
      <point x="444" y="-39"/>
      <point x="408" y="3"/>
      <point x="325" y="27" type="curve"/>
      <point x="276" y="0" type="line"/>
      <point x="329" y="-24"/>
      <point x="353" y="-43"/>
    </contour>
    <component base="T"/>
  </outline>
</glyph>
<glyph name="longs" format="2">
  <advance width="301"/>
  <unicode hex="017F"/>
  <anchor x="200" y="719" name="top"/>
  <anchor x="204" y="0" name="ogonek"/>
  <anchor x="150" y="0" name="bottom"/>
  <anchor x="135" y="0" name="bottomC"/>
  <outline>
    <contour>
      <point x="204" y="0" type="line"/>
      <point x="204" y="549" type="line" smooth="yes"/>
      <point x="204" y="604"/>
      <point x="231" y="627"/>
      <point x="274" y="627" type="curve" smooth="yes"/>
      <point x="292" y="627"/>
      <point x="305" y="623"/>
      <point x="318" y="614" type="curve"/>
      <point x="330" y="705" type="line"/>
      <point x="311" y="722"/>
      <point x="283" y="729"/>
      <point x="240" y="729" type="curve" smooth="yes"/>
      <point x="135" y="729"/>
      <point x="70" y="673"/>
      <point x="70" y="560" type="curve" smooth="yes"/>
      <point x="70" y="0" type="line"/>
    </contour>
  </outline>
</glyph>
<glyph name="jdotless" format="2">
  <advance width="282"/>
  <unicode hex="0237"/>
  <anchor x="141" y="500" name="top"/>
  <anchor x="104" y="-204" name="ogonek"/>
  <anchor x="61" y="-210" name="bottom"/>
  <anchor x="61" y="-210" name="bottomC"/>
  <outline>
    <contour>
      <point x="72" y="500" type="line"/>
      <point x="72" y="-24" type="line" smooth="yes"/>
      <point x="72" y="-87"/>
      <point x="46" y="-109"/>
      <point x="3" y="-109" type="curve" smooth="yes"/>
      <point x="-26" y="-109"/>
      <point x="-51" y="-99"/>
      <point x="-67" y="-85" type="curve"/>
      <point x="-89" y="-183" type="line"/>
      <point x="-59" y="-203"/>
      <point x="-18" y="-215"/>
      <point x="31" y="-215" type="curve" smooth="yes"/>
      <point x="132" y="-215"/>
      <point x="209" y="-168"/>
      <point x="209" y="-37" type="curve" smooth="yes"/>
      <point x="209" y="500" type="line"/>
    </contour>
  </outline>
</glyph>
<glyph name="caron" format="2">
  <advance width="500"/>
  <unicode hex="02C7"/>
  <anchor x="252" y="500" name="_top"/>
  <outline>
    <contour>
      <point x="325" y="742" type="line"/>
      <point x="250" y="644" type="line"/>
      <point x="175" y="742" type="line"/>
      <point x="70" y="742" type="line"/>
      <point x="181" y="572" type="line"/>
      <point x="319" y="572" type="line"/>
      <point x="430" y="742" type="line"/>
    </contour>
  </outline>
</glyph>
<glyph name="breve" format="2">
  <advance width="500"/>
  <unicode hex="02D8"/>
  <anchor x="250" y="500" name="_top"/>
  <outline>
    <contour>
      <point x="318" y="720" type="line"/>
      <point x="318" y="678"/>
      <point x="291" y="645"/>
      <point x="250" y="645" type="curve" smooth="yes"/>
      <point x="209" y="645"/>
      <point x="182" y="678"/>
      <point x="182" y="720" type="curve"/>
      <point x="89" y="720" type="line"/>
      <point x="89" y="624"/>
      <point x="151" y="563"/>
      <point x="250" y="563" type="curve" smooth="yes"/>
      <point x="349" y="563"/>
      <point x="411" y="624"/>
      <point x="411" y="720" type="curve"/>
    </contour>
  </outline>
</glyph>
<glyph name="ring" format="2">
  <advance width="500"/>
  <unicode hex="02DA"/>
  <anchor x="252" y="500" name="_top"/>
  <outline>
    <contour>
      <point x="119" y="680" type="curve" smooth="yes"/>
      <point x="119" y="607"/>
      <point x="170" y="560"/>
      <point x="251" y="560" type="curve" smooth="yes"/>
      <point x="332" y="560"/>
      <point x="382" y="607"/>
      <point x="382" y="680" type="curve" smooth="yes"/>
      <point x="382" y="753"/>
      <point x="332" y="800"/>
      <point x="251" y="800" type="curve" smooth="yes"/>
      <point x="170" y="800"/>
      <point x="119" y="753"/>
    </contour>
    <contour>
      <point x="310" y="680" type="curve" smooth="yes"/>
      <point x="310" y="646"/>
      <point x="286" y="623"/>
      <point x="251" y="623" type="curve" smooth="yes"/>
      <point x="216" y="623"/>
      <point x="192" y="646"/>
      <point x="192" y="680" type="curve" smooth="yes"/>
      <point x="192" y="715"/>
      <point x="216" y="738"/>
      <point x="251" y="738" type="curve" smooth="yes"/>
      <point x="286" y="738"/>
      <point x="310" y="715"/>
    </contour>
  </outline>
</glyph>
<glyph name="hungarumlaut" format="2">
  <advance width="500"/>
  <unicode hex="02DD"/>
  <anchor x="233" y="500" name="_top"/>
  <outline>
    <contour>
      <point x="339" y="742" type="line"/>
      <point x="268" y="572" type="line"/>
      <point x="366" y="572" type="line"/>
      <point x="462" y="742" type="line"/>
    </contour>
    <contour>
      <point x="141" y="742" type="line"/>
      <point x="69" y="572" type="line"/>
      <point x="167" y="572" type="line"/>
      <point x="263" y="742" type="line"/>
    </contour>
  </outline>
</glyph>
<glyph name="Germandbls" format="2">
  <advance width="709"/>
  <unicode hex="1E9E"/>
  <anchor x="377" y="660" name="top"/>
  <anchor x="514" y="0" name="ogonek"/>
  <anchor x="377" y="0" name="bottom"/>
  <anchor x="469" y="0" name="bottomC"/>
  <outline>
    <contour>
      <point x="224" y="0" type="line"/>
      <point x="224" y="412" type="line" smooth="yes"/>
      <point x="224" y="496"/>
      <point x="280" y="550"/>
      <point x="359" y="550" type="curve" smooth="yes"/>
      <point x="501" y="550" type="line"/>
      <point x="344" y="366" type="line"/>
      <point x="434" y="315" type="line"/>
      <point x="640" y="551" type="line"/>
      <point x="640" y="660" type="line"/>
      <point x="340" y="660" type="line" smooth="yes"/>
      <point x="187" y="660"/>
      <point x="86" y="570"/>
      <point x="86" y="428" type="curve" smooth="yes"/>
      <point x="86" y="0" type="line"/>
    </contour>
    <contour>
      <point x="680" y="187" type="curve" smooth="yes"/>
      <point x="680" y="308"/>
      <point x="591" y="366"/>
      <point x="470" y="366" type="curve" smooth="yes"/>
      <point x="344" y="366" type="line"/>
      <point x="344" y="280" type="line"/>
      <point x="428" y="280" type="line" smooth="yes"/>
      <point x="503" y="280"/>
      <point x="546" y="247"/>
      <point x="546" y="190" type="curve" smooth="yes"/>
      <point x="546" y="136"/>
      <point x="505" y="100"/>
      <point x="443" y="100" type="curve" smooth="yes"/>
      <point x="395" y="100"/>
      <point x="356" y="115"/>
      <point x="331" y="140" type="curve"/>
      <point x="289" y="55" type="line"/>
      <point x="319" y="20"/>
      <point x="378" y="-5"/>
      <point x="468" y="-5" type="curve" smooth="yes"/>
      <point x="590" y="-5"/>
      <point x="680" y="65"/>
    </contour>
  </outline>
</glyph>
<glyph name="daggerdbl" format="2">
  <advance width="565"/>
  <unicode hex="2021"/>
  <outline>
    <contour>
      <point x="222" y="660" type="line"/>
      <point x="222" y="-100" type="line"/>
      <point x="343" y="-100" type="line"/>
      <point x="343" y="660" type="line"/>
    </contour>
    <contour>
      <point x="40" y="465" type="line"/>
      <point x="40" y="361" type="line"/>
      <point x="525" y="361" type="line"/>
      <point x="525" y="465" type="line"/>
    </contour>
    <contour>
      <point x="40" y="195" type="line"/>
      <point x="40" y="91" type="line"/>
      <point x="525" y="91" type="line"/>
      <point x="525" y="195" type="line"/>
    </contour>
  </outline>
</glyph>
<glyph name="bullet" format="2">
  <advance width="430"/>
  <unicode hex="2022"/>
  <outline>
    <contour>
      <point x="72" y="334" type="curve" smooth="yes"/>
      <point x="72" y="251"/>
      <point x="129" y="196"/>
      <point x="215" y="196" type="curve" smooth="yes"/>
      <point x="302" y="196"/>
      <point x="358" y="251"/>
      <point x="358" y="334" type="curve" smooth="yes"/>
      <point x="358" y="418"/>
      <point x="302" y="473"/>
      <point x="215" y="473" type="curve" smooth="yes"/>
      <point x="129" y="473"/>
      <point x="72" y="418"/>
    </contour>
  </outline>
</glyph>
<glyph name="perthousand" format="2">
  <advance width="1315"/>
  <unicode hex="2030"/>
  <outline>
    <contour>
      <point x="929" y="176" type="curve" smooth="yes"/>
      <point x="929" y="64"/>
      <point x="998" y="-10"/>
      <point x="1105" y="-10" type="curve" smooth="yes"/>
      <point x="1211" y="-10"/>
      <point x="1281" y="64"/>
      <point x="1281" y="176" type="curve" smooth="yes"/>
      <point x="1281" y="288"/>
      <point x="1211" y="362"/>
      <point x="1105" y="362" type="curve" smooth="yes"/>
      <point x="998" y="362"/>
      <point x="929" y="288"/>
    </contour>
    <contour>
      <point x="1175" y="176" type="curve" smooth="yes"/>
      <point x="1175" y="119"/>
      <point x="1150" y="85"/>
      <point x="1105" y="85" type="curve" smooth="yes"/>
      <point x="1059" y="85"/>
      <point x="1035" y="119"/>
      <point x="1035" y="176" type="curve" smooth="yes"/>
      <point x="1035" y="233"/>
      <point x="1059" y="266"/>
      <point x="1105" y="266" type="curve" smooth="yes"/>
      <point x="1150" y="266"/>
      <point x="1175" y="233"/>
    </contour>
    <component base="percent"/>
  </outline>
</glyph>
<glyph name="guilsinglleft" format="2">
  <advance width="333"/>
  <unicode hex="2039"/>
  <outline>
    <contour>
      <point x="166" y="461" type="line"/>
      <point x="41" y="265" type="line"/>
      <point x="166" y="69" type="line"/>
      <point x="292" y="69" type="line"/>
      <point x="168" y="265" type="line"/>
      <point x="292" y="461" type="line"/>
    </contour>
  </outline>
</glyph>
<glyph name="fraction" format="2">
  <advance width="258"/>
  <unicode hex="2044"/>
  <outline>
    <contour>
      <point x="-57" y="0" type="line"/>
      <point x="419" y="660" type="line"/>
      <point x="315" y="660" type="line"/>
      <point x="-162" y="0" type="line"/>
    </contour>
  </outline>
</glyph>
<glyph name="foursuperior" format="2">
  <advance width="382"/>
  <unicode hex="2074"/>
  <anchor x="211" y="527" name="_indexring"/>
  <outline>
    <contour>
      <point x="300" y="493" type="line"/>
      <point x="300" y="730" type="line"/>
      <point x="179" y="730" type="line"/>
      <point x="10" y="472" type="line"/>
      <point x="10" y="423" type="line"/>
      <point x="210" y="423" type="line"/>
      <point x="210" y="333" type="line"/>
      <point x="300" y="333" type="line"/>
      <point x="300" y="423" type="line"/>
      <point x="364" y="423" type="line"/>
      <point x="364" y="493" type="line"/>
    </contour>
    <contour>
      <point x="179" y="605" type="line" smooth="yes"/>
      <point x="190" y="622"/>
      <point x="203" y="646"/>
      <point x="210" y="663" type="curve"/>
      <point x="213" y="663" type="line"/>
      <point x="212" y="638"/>
      <point x="210" y="610"/>
      <point x="210" y="584" type="curve" smooth="yes"/>
      <point x="210" y="493" type="line"/>
      <point x="102" y="493" type="line"/>
    </contour>
  </outline>
</glyph>
<glyph name="fivesuperior" format="2">
  <advance width="376"/>
  <unicode hex="2075"/>
  <anchor x="186" y="536" name="_indexring"/>
  <outline>
    <contour>
      <point x="125" y="561" type="curve"/>
      <point x="124" y="561" type="line"/>
      <point x="126" y="568"/>
      <point x="128" y="575"/>
      <point x="129" y="587" type="curve" smooth="yes"/>
      <point x="135" y="651" type="line"/>
      <point x="329" y="651" type="line"/>
      <point x="329" y="730" type="line"/>
      <point x="57" y="730" type="line"/>
      <point x="35" y="497" type="line"/>
      <point x="118" y="491" type="line"/>
      <point x="131" y="510"/>
      <point x="150" y="520"/>
      <point x="185" y="520" type="curve" smooth="yes"/>
      <point x="227" y="520"/>
      <point x="248" y="500"/>
      <point x="248" y="464" type="curve" smooth="yes"/>
      <point x="248" y="428"/>
      <point x="222" y="405"/>
      <point x="183" y="405" type="curve" smooth="yes"/>
      <point x="141" y="405"/>
      <point x="120" y="423"/>
      <point x="112" y="454" type="curve"/>
      <point x="18" y="410" type="line"/>
      <point x="51" y="348"/>
      <point x="107" y="328"/>
      <point x="185" y="328" type="curve" smooth="yes"/>
      <point x="277" y="328"/>
      <point x="347" y="372"/>
      <point x="347" y="466" type="curve" smooth="yes"/>
      <point x="347" y="538"/>
      <point x="301" y="588"/>
      <point x="217" y="588" type="curve" smooth="yes"/>
      <point x="164" y="588"/>
      <point x="140" y="578"/>
    </contour>
  </outline>
</glyph>
<glyph name="sevensuperior" format="2">
  <advance width="339"/>
  <unicode hex="2077"/>
  <anchor x="163" y="543" name="_indexring"/>
  <outline>
    <contour>
      <point x="206" y="333" type="line"/>
      <point x="206" y="456"/>
      <point x="236" y="564"/>
      <point x="332" y="658" type="curve"/>
      <point x="332" y="730" type="line"/>
      <point x="7" y="730" type="line"/>
      <point x="7" y="647" type="line"/>
      <point x="293" y="647" type="line"/>
      <point x="266" y="683" type="line"/>
      <point x="156" y="592"/>
      <point x="102" y="462"/>
      <point x="102" y="333" type="curve"/>
    </contour>
  </outline>
</glyph>
<glyph name="eightsuperior" format="2">
  <advance width="405"/>
  <unicode hex="2078"/>
  <anchor x="202" y="530" name="_indexring"/>
  <outline>
    <contour>
      <point x="44" y="622" type="curve" smooth="yes"/>
      <point x="44" y="581"/>
      <point x="69" y="548"/>
      <point x="113" y="535" type="curve"/>
      <point x="113" y="534" type="line"/>
      <point x="61" y="520"/>
      <point x="32" y="487"/>
      <point x="32" y="442" type="curve" smooth="yes"/>
      <point x="32" y="370"/>
      <point x="97" y="327"/>
      <point x="202" y="327" type="curve" smooth="yes"/>
      <point x="308" y="327"/>
      <point x="373" y="370"/>
      <point x="373" y="442" type="curve" smooth="yes"/>
      <point x="373" y="489"/>
      <point x="343" y="520"/>
      <point x="290" y="534" type="curve"/>
      <point x="290" y="535" type="line"/>
      <point x="337" y="550"/>
      <point x="360" y="582"/>
      <point x="360" y="622" type="curve" smooth="yes"/>
      <point x="360" y="691"/>
      <point x="300" y="734"/>
      <point x="202" y="734" type="curve" smooth="yes"/>
      <point x="105" y="734"/>
      <point x="44" y="691"/>
    </contour>
    <contour>
      <point x="262" y="618" type="curve" smooth="yes"/>
      <point x="262" y="588"/>
      <point x="239" y="570"/>
      <point x="202" y="570" type="curve" smooth="yes"/>
      <point x="165" y="570"/>
      <point x="143" y="588"/>
      <point x="143" y="618" type="curve" smooth="yes"/>
      <point x="143" y="648"/>
      <point x="165" y="665"/>
      <point x="202" y="665" type="curve" smooth="yes"/>
      <point x="240" y="665"/>
      <point x="262" y="648"/>
    </contour>
    <contour>
      <point x="135" y="448" type="curve" smooth="yes"/>
      <point x="135" y="480"/>
      <point x="161" y="499"/>
      <point x="202" y="499" type="curve" smooth="yes"/>
      <point x="244" y="499"/>
      <point x="270" y="480"/>
      <point x="270" y="448" type="curve" smooth="yes"/>
      <point x="270" y="416"/>
      <point x="244" y="397"/>
      <point x="202" y="397" type="curve" smooth="yes"/>
      <point x="160" y="397"/>
      <point x="135" y="416"/>
    </contour>
  </outline>
</glyph>
<glyph name="plussuperior" format="2">
  <advance width="349"/>
  <unicode hex="207A"/>
  <outline>
    <contour>
      <point x="325" y="495" type="line"/>
      <point x="325" y="567" type="line"/>
      <point x="25" y="567" type="line"/>
      <point x="25" y="495" type="line"/>
    </contour>
    <contour>
      <point x="214" y="380" type="line"/>
      <point x="214" y="681" type="line"/>
      <point x="136" y="681" type="line"/>
      <point x="136" y="380" type="line"/>
    </contour>
  </outline>
</glyph>
<glyph name="equalsuperior" format="2">
  <advance width="397"/>
  <unicode hex="207C"/>
  <outline>
    <contour>
      <point x="343" y="422" type="line"/>
      <point x="343" y="498" type="line"/>
      <point x="54" y="498" type="line"/>
      <point x="54" y="422" type="line"/>
    </contour>
    <contour>
      <point x="343" y="566" type="line"/>
      <point x="343" y="642" type="line"/>
      <point x="54" y="642" type="line"/>
      <point x="54" y="566" type="line"/>
    </contour>
  </outline>
</glyph>
<glyph name="parenleftsuperior" format="2">
  <advance width="245"/>
  <unicode hex="207D"/>
  <outline>
    <contour>
      <point x="61" y="531" type="curve" smooth="yes"/>
      <point x="61" y="408"/>
      <point x="107" y="313"/>
      <point x="193" y="246" type="curve"/>
      <point x="249" y="294" type="line"/>
      <point x="183" y="358"/>
      <point x="158" y="423"/>
      <point x="158" y="531" type="curve" smooth="yes"/>
      <point x="158" y="639"/>
      <point x="183" y="705"/>
      <point x="249" y="768" type="curve"/>
      <point x="193" y="816" type="line"/>
      <point x="107" y="749"/>
      <point x="61" y="654"/>
    </contour>
  </outline>
</glyph>
<glyph name="uni20BA" format="2">
  <advance width="688"/>
  <unicode hex="20BA"/>
  <outline>
    <contour>
      <point x="515" y="290" type="line"/>
      <point x="515" y="163"/>
      <point x="461" y="107"/>
      <point x="358" y="107" type="curve" smooth="yes"/>
      <point x="229" y="107" type="line"/>
      <point x="229" y="0" type="line"/>
      <point x="373" y="0" type="line" smooth="yes"/>
      <point x="550" y="0"/>
      <point x="643" y="102"/>
      <point x="648" y="290" type="curve"/>
    </contour>
    <contour>
      <point x="160" y="660" type="line"/>
      <point x="160" y="0" type="line"/>
      <point x="296" y="0" type="line"/>
      <point x="296" y="660" type="line"/>
    </contour>
    <contour>
      <point x="47" y="290" type="line"/>
      <point x="47" y="230" type="line"/>
      <point x="484" y="353" type="line"/>
      <point x="484" y="414" type="line"/>
    </contour>
    <contour>
      <point x="47" y="435" type="line"/>
      <point x="47" y="374" type="line"/>
      <point x="484" y="498" type="line"/>
      <point x="484" y="558" type="line"/>
    </contour>
  </outline>
</glyph>
<glyph name="uni20BD" format="2">
  <advance width="672"/>
  <unicode hex="20BD"/>
  <outline>
    <contour>
      <point x="218" y="660" type="line"/>
      <point x="218" y="552" type="line"/>
      <point x="369" y="552" type="line" smooth="yes"/>
      <point x="456" y="552"/>
      <point x="494" y="517"/>
      <point x="494" y="449" type="curve" smooth="yes"/>
      <point x="494" y="380"/>
      <point x="456" y="346"/>
      <point x="369" y="346" type="curve" smooth="yes"/>
      <point x="39" y="346" type="line"/>
      <point x="39" y="267" type="line"/>
      <point x="391" y="267" type="line" smooth="yes"/>
      <point x="544" y="267"/>
      <point x="634" y="336"/>
      <point x="634" y="462" type="curve" smooth="yes"/>
      <point x="634" y="583"/>
      <point x="544" y="660"/>
      <point x="391" y="660" type="curve" smooth="yes"/>
    </contour>
    <contour>
      <point x="129" y="660" type="line"/>
      <point x="129" y="0" type="line"/>
      <point x="264" y="0" type="line"/>
      <point x="264" y="660" type="line"/>
    </contour>
    <contour>
      <point x="444" y="201" type="line"/>
      <point x="39" y="201" type="line"/>
      <point x="39" y="128" type="line"/>
      <point x="444" y="128" type="line"/>
    </contour>
  </outline>
</glyph>
<glyph name="trademark" format="2">
  <advance width="832"/>
  <unicode hex="2122"/>
  <outline>
    <contour>
      <point x="135" y="660" type="line"/>
      <point x="135" y="330" type="line"/>
      <point x="224" y="330" type="line"/>
      <point x="224" y="660" type="line"/>
    </contour>
    <contour>
      <point x="33" y="660" type="line"/>
      <point x="33" y="593" type="line"/>
      <point x="325" y="593" type="line"/>
      <point x="325" y="660" type="line"/>
    </contour>
    <contour>
      <point x="651" y="660" type="line"/>
      <point x="594" y="499" type="line"/>
      <point x="576" y="435" type="line"/>
      <point x="573" y="435" type="line"/>
      <point x="554" y="499" type="line"/>
      <point x="498" y="660" type="line"/>
      <point x="375" y="660" type="line"/>
      <point x="375" y="330" type="line"/>
      <point x="463" y="330" type="line"/>
      <point x="463" y="470" type="line"/>
      <point x="458" y="567" type="line"/>
      <point x="459" y="567" type="line"/>
      <point x="475" y="513" type="line"/>
      <point x="540" y="330" type="line"/>
      <point x="609" y="330" type="line"/>
      <point x="673" y="513" type="line"/>
      <point x="688" y="567" type="line"/>
      <point x="690" y="567" type="line"/>
      <point x="684" y="470" type="line"/>
      <point x="684" y="330" type="line"/>
      <point x="772" y="330" type="line"/>
      <point x="772" y="660" type="line"/>
    </contour>
  </outline>
</glyph>
<glyph name="uni2126" format="2">
  <advance width="776"/>
  <unicode hex="2126"/>
  <outline>
    <contour>
      <point x="71" y="344" type="curve" smooth="yes"/>
      <point x="71" y="190"/>
      <point x="163" y="89"/>
      <point x="319" y="64" type="curve"/>
      <point x="342" y="98" type="line"/>
      <point x="258" y="116"/>
      <point x="211" y="193"/>
      <point x="211" y="328" type="curve" smooth="yes"/>
      <point x="211" y="475"/>
      <point x="277" y="557"/>
      <point x="388" y="557" type="curve" smooth="yes"/>
      <point x="499" y="557"/>
      <point x="566" y="475"/>
      <point x="566" y="328" type="curve" smooth="yes"/>
      <point x="566" y="193"/>
      <point x="518" y="116"/>
      <point x="434" y="98" type="curve"/>
      <point x="457" y="64" type="line"/>
      <point x="612" y="89"/>
      <point x="705" y="190"/>
      <point x="705" y="344" type="curve" smooth="yes"/>
      <point x="705" y="545"/>
      <point x="584" y="670"/>
      <point x="388" y="670" type="curve" smooth="yes"/>
      <point x="192" y="670"/>
      <point x="71" y="545"/>
    </contour>
    <contour>
      <point x="63" y="0" type="line"/>
      <point x="342" y="0" type="line"/>
      <point x="342" y="98" type="line"/>
      <point x="63" y="98" type="line"/>
    </contour>
    <contour>
      <point x="434" y="98" type="line"/>
      <point x="434" y="0" type="line"/>
      <point x="713" y="0" type="line"/>
      <point x="713" y="98" type="line"/>
    </contour>
  </outline>
</glyph>
<glyph name="estimated" format="2">
  <advance width="786"/>
  <unicode hex="212E"/>
  <outline>
    <contour>
      <point x="57" y="330" type="curve" smooth="yes"/>
      <point x="57" y="124"/>
      <point x="191" y="-10"/>
      <point x="417" y="-10" type="curve" smooth="yes"/>
      <point x="543" y="-10"/>
      <point x="647" y="35"/>
      <point x="704" y="131" type="curve"/>
      <point x="704" y="218" type="line"/>
      <point x="631" y="99"/>
      <point x="534" y="53"/>
      <point x="416" y="53" type="curve" smooth="yes"/>
      <point x="323" y="53"/>
      <point x="247" y="83"/>
      <point x="197" y="137" type="curve"/>
      <point x="197" y="298" type="line"/>
      <point x="733" y="298" type="line"/>
      <point x="735" y="542"/>
      <point x="609" y="670"/>
      <point x="397" y="670" type="curve" smooth="yes"/>
      <point x="191" y="670"/>
      <point x="57" y="536"/>
    </contour>
    <contour>
      <point x="596" y="527" type="curve"/>
      <point x="596" y="363" type="line"/>
      <point x="197" y="363" type="line"/>
      <point x="197" y="524" type="line"/>
      <point x="242" y="577"/>
      <point x="308" y="607"/>
      <point x="397" y="607" type="curve" smooth="yes"/>
      <point x="485" y="607"/>
      <point x="551" y="578"/>
    </contour>
  </outline>
</glyph>
<glyph name="updownarrow" format="2">
  <advance width="750"/>
  <unicode hex="2195"/>
  <outline>
    <contour>
      <point x="418" y="-50" type="line"/>
      <point x="432" y="15"/>
      <point x="443" y="92"/>
      <point x="443" y="181" type="curve" smooth="yes"/>
      <point x="443" y="479" type="line" smooth="yes"/>
      <point x="443" y="568"/>
      <point x="432" y="645"/>
      <point x="418" y="710" type="curve"/>
      <point x="374" y="785" type="line"/>
      <point x="331" y="710" type="line"/>
      <point x="317" y="645"/>
      <point x="306" y="568"/>
      <point x="306" y="479" type="curve" smooth="yes"/>
      <point x="306" y="181" type="line" smooth="yes"/>
      <point x="306" y="92"/>
      <point x="317" y="15"/>
      <point x="331" y="-50" type="curve"/>
      <point x="374" y="-125" type="line"/>
    </contour>
    <contour>
      <point x="391" y="788" type="curve"/>
      <point x="357" y="788" type="line"/>
      <point x="381" y="687"/>
      <point x="470" y="555"/>
      <point x="647" y="438" type="curve"/>
      <point x="715" y="546" type="line"/>
      <point x="557" y="642"/>
      <point x="459" y="729"/>
      <point x="377" y="841" type="curve"/>
      <point x="371" y="841" type="line"/>
      <point x="290" y="729"/>
      <point x="192" y="642"/>
      <point x="34" y="546" type="curve"/>
      <point x="102" y="438" type="line"/>
      <point x="279" y="555"/>
      <point x="367" y="687"/>
    </contour>
    <contour>
      <point x="34" y="114" type="line"/>
      <point x="192" y="18"/>
      <point x="290" y="-69"/>
      <point x="371" y="-181" type="curve"/>
      <point x="377" y="-181" type="line"/>
      <point x="459" y="-69"/>
      <point x="557" y="18"/>
      <point x="715" y="114" type="curve"/>
      <point x="647" y="222" type="line"/>
      <point x="470" y="105"/>
      <point x="381" y="-27"/>
      <point x="357" y="-128" type="curve"/>
      <point x="391" y="-128" type="line"/>
      <point x="367" y="-27"/>
      <point x="279" y="105"/>
      <point x="102" y="222" type="curve"/>
    </contour>
  </outline>
</glyph>
<glyph name="nearrow" format="2">
  <advance width="750"/>
  <unicode hex="2197"/>
  <outline>
    <contour>
      <point x="394" y="274" type="line" smooth="yes"/>
      <point x="464" y="343"/>
      <point x="532" y="419"/>
      <point x="572" y="480" type="curve"/>
      <point x="594" y="563" type="line"/>
      <point x="511" y="541" type="line"/>
      <point x="451" y="501"/>
      <point x="375" y="434"/>
      <point x="305" y="363" type="curve" smooth="yes"/>
      <point x="107" y="164" type="line"/>
      <point x="196" y="76" type="line"/>
    </contour>
    <contour>
      <point x="636" y="119" type="line"/>
      <point x="609" y="274"/>
      <point x="616" y="448"/>
      <point x="636" y="601" type="curve"/>
      <point x="632" y="605" type="line"/>
      <point x="479" y="584"/>
      <point x="306" y="578"/>
      <point x="150" y="605" type="curve"/>
      <point x="143" y="481" type="line"/>
      <point x="331" y="462"/>
      <point x="510" y="499"/>
      <point x="604" y="549" type="curve"/>
      <point x="580" y="573" type="line"/>
      <point x="530" y="479"/>
      <point x="493" y="300"/>
      <point x="513" y="112" type="curve"/>
    </contour>
  </outline>
</glyph>
<glyph name="minus" format="2">
  <advance width="604"/>
  <unicode hex="2212"/>
  <outline>
    <contour>
      <point x="59" y="376" type="line"/>
      <point x="59" y="267" type="line"/>
      <point x="545" y="267" type="line"/>
      <point x="545" y="376" type="line"/>
    </contour>
  </outline>
</glyph>
<glyph name="radical" format="2">
  <advance width="682"/>
  <unicode hex="221A"/>
  <outline>
    <contour>
      <point x="588" y="818" type="line"/>
      <point x="358" y="211" type="line"/>
      <point x="290" y="0" type="line"/>
      <point x="388" y="0" type="line"/>
      <point x="708" y="818" type="line"/>
    </contour>
    <contour>
      <point x="17" y="441" type="line"/>
      <point x="17" y="332" type="line"/>
      <point x="119" y="332" type="line"/>
      <point x="252" y="0" type="line"/>
      <point x="353" y="0" type="line"/>
      <point x="287" y="204" type="line"/>
      <point x="192" y="441" type="line"/>
    </contour>
  </outline>
</glyph>
<glyph name="integral" format="2">
  <advance width="471"/>
  <unicode hex="222B"/>
  <outline>
    <contour>
      <point x="171" y="589" type="curve" smooth="yes"/>
      <point x="171" y="51" type="line" smooth="yes"/>
      <point x="171" y="-5"/>
      <point x="138" y="-27"/>
      <point x="94" y="-27" type="curve" smooth="yes"/>
      <point x="63" y="-27"/>
      <point x="44" y="-18"/>
      <point x="27" y="-6" type="curve"/>
      <point x="14" y="-100" type="line"/>
      <point x="38" y="-116"/>
      <point x="66" y="-128"/>
      <point x="122" y="-128" type="curve" smooth="yes"/>
      <point x="223" y="-128"/>
      <point x="300" y="-71"/>
      <point x="300" y="41" type="curve" smooth="yes"/>
      <point x="300" y="579" type="line" smooth="yes"/>
      <point x="300" y="635"/>
      <point x="334" y="657"/>
      <point x="377" y="657" type="curve" smooth="yes"/>
      <point x="409" y="657"/>
      <point x="428" y="648"/>
      <point x="444" y="636" type="curve"/>
      <point x="457" y="730" type="line"/>
      <point x="434" y="746"/>
      <point x="406" y="758"/>
      <point x="350" y="758" type="curve" smooth="yes"/>
      <point x="249" y="758"/>
      <point x="171" y="701"/>
    </contour>
  </outline>
</glyph>
<glyph name="approxequal" format="2">
  <advance width="604"/>
  <unicode hex="2248"/>
  <outline>
    <contour>
      <point x="58" y="466" type="curve"/>
      <point x="58" y="359" type="line"/>
      <point x="98" y="397"/>
      <point x="132" y="413"/>
      <point x="190" y="413" type="curve" smooth="yes"/>
      <point x="267" y="413"/>
      <point x="333" y="348"/>
      <point x="417" y="348" type="curve" smooth="yes"/>
      <point x="465" y="348"/>
      <point x="506" y="364"/>
      <point x="546" y="401" type="curve"/>
      <point x="546" y="507" type="line"/>
      <point x="499" y="465"/>
      <point x="461" y="454"/>
      <point x="414" y="454" type="curve" smooth="yes"/>
      <point x="344" y="454"/>
      <point x="279" y="519"/>
      <point x="190" y="519" type="curve" smooth="yes"/>
      <point x="133" y="519"/>
      <point x="101" y="503"/>
    </contour>
    <contour>
      <point x="58" y="245" type="curve"/>
      <point x="58" y="138" type="line"/>
      <point x="98" y="176"/>
      <point x="132" y="192"/>
      <point x="190" y="192" type="curve" smooth="yes"/>
      <point x="267" y="192"/>
      <point x="333" y="127"/>
      <point x="417" y="127" type="curve" smooth="yes"/>
      <point x="465" y="127"/>
      <point x="506" y="143"/>
      <point x="546" y="180" type="curve"/>
      <point x="546" y="286" type="line"/>
      <point x="499" y="243"/>
      <point x="461" y="233"/>
      <point x="414" y="233" type="curve" smooth="yes"/>
      <point x="344" y="233"/>
      <point x="279" y="297"/>
      <point x="190" y="297" type="curve" smooth="yes"/>
      <point x="133" y="297"/>
      <point x="101" y="282"/>
    </contour>
  </outline>
</glyph>
<glyph name="notequal" format="2">
  <advance width="604"/>
  <unicode hex="2260"/>
  <outline>
    <contour>
      <point x="382" y="586" type="line"/>
      <point x="126" y="41" type="line"/>
      <point x="223" y="41" type="line"/>
      <point x="479" y="586" type="line"/>
    </contour>
    <contour>
      <point x="59" y="471" type="line"/>
      <point x="59" y="373" type="line"/>
      <point x="545" y="373" type="line"/>
      <point x="545" y="471" type="line"/>
    </contour>
    <contour>
      <point x="59" y="250" type="line"/>
      <point x="59" y="152" type="line"/>
      <point x="545" y="152" type="line"/>
      <point x="545" y="250" type="line"/>
    </contour>
  </outline>
</glyph>
<glyph name="lessequal" format="2">
  <advance width="604"/>
  <unicode hex="2264"/>
  <outline>
    <contour>
      <point x="64" y="476" type="line"/>
      <point x="64" y="375" type="line"/>
      <point x="550" y="525" type="line"/>
      <point x="550" y="647" type="line"/>
    </contour>
    <contour>
      <point x="64" y="0" type="line"/>
      <point x="550" y="0" type="line"/>
      <point x="550" y="105" type="line"/>
      <point x="64" y="105" type="line"/>
    </contour>
    <contour>
      <point x="64" y="421" type="line"/>
      <point x="64" y="319" type="line"/>
      <point x="550" y="149" type="line"/>
      <point x="550" y="270" type="line"/>
    </contour>
  </outline>
</glyph>
<glyph name="lozenge" format="2">
  <advance width="629"/>
  <unicode hex="25CA"/>
  <outline>
    <contour>
      <point x="272" y="660" type="line"/>
      <point x="448" y="330" type="line"/>
      <point x="582" y="330" type="line"/>
      <point x="387" y="660" type="line"/>
    </contour>
    <contour>
      <point x="47" y="330" type="line"/>
      <point x="242" y="0" type="line"/>
      <point x="357" y="0" type="line"/>
      <point x="181" y="330" type="line"/>
    </contour>
    <contour>
      <point x="448" y="330" type="line"/>
      <point x="272" y="0" type="line"/>
      <point x="387" y="0" type="line"/>
      <point x="582" y="330" type="line"/>
    </contour>
    <contour>
      <point x="242" y="660" type="line"/>
      <point x="47" y="330" type="line"/>
      <point x="181" y="330" type="line"/>
      <point x="357" y="660" type="line"/>
    </contour>
  </outline>
</glyph>
<glyph name="whiteCircle" format="2">
  <advance width="600"/>
  <unicode hex="25CB"/>
  <outline>
    <contour>
      <point x="565" y="250" type="curve" smooth="yes"/>
      <point x="565" y="398"/>
      <point x="451" y="510"/>
      <point x="300" y="510" type="curve" smooth="yes"/>
      <point x="149" y="510"/>
      <point x="35" y="398"/>
      <point x="35" y="250" type="curve" smooth="yes"/>
      <point x="35" y="102"/>
      <point x="149" y="-10"/>
      <point x="300" y="-10" type="curve" smooth="yes"/>
      <point x="451" y="-10"/>
      <point x="565" y="102"/>
    </contour>
    <contour>
      <point x="143" y="250" type="curve" smooth="yes"/>
      <point x="143" y="341"/>
      <point x="210" y="410"/>
      <point x="300" y="410" type="curve" smooth="yes"/>
      <point x="390" y="410"/>
      <point x="457" y="341"/>
      <point x="457" y="250" type="curve" smooth="yes"/>
      <point x="457" y="159"/>
      <point x="390" y="90"/>
      <point x="300" y="90" type="curve" smooth="yes"/>
      <point x="210" y="90"/>
      <point x="143" y="159"/>
    </contour>
  </outline>
</glyph>
<glyph name="heavyquoteleft" format="2">
  <advance width="711"/>
  <unicode hex="275B"/>
  <outline>
    <contour>
      <point x="62" y="279" type="curve" smooth="yes"/>
      <point x="62" y="107"/>
      <point x="149" y="-10"/>
      <point x="368" y="-10" type="curve" smooth="yes"/>
      <point x="543" y="-10"/>
      <point x="650" y="73"/>
      <point x="650" y="231" type="curve" smooth="yes"/>
      <point x="650" y="383"/>
      <point x="540" y="465"/>
      <point x="382" y="465" type="curve" smooth="yes"/>
      <point x="289" y="465"/>
      <point x="246" y="445"/>
      <point x="203" y="412" type="curve"/>
      <point x="196" y="417" type="line"/>
      <point x="254" y="515"/>
      <point x="362" y="575"/>
      <point x="626" y="575" type="curve"/>
      <point x="575" y="665" type="line"/>
      <point x="201" y="665"/>
      <point x="62" y="508"/>
    </contour>
  </outline>
</glyph>
<glyph name="A.swsh" format="2">
  <advance width="910"/>
  <anchor x="575" y="660" name="top"/>
  <anchor x="898" y="0" name="ogonek"/>
  <anchor x="575" y="0" name="bottom"/>
  <outline>
    <contour>
      <point x="407" y="65" type="curve" smooth="yes"/>
      <point x="544" y="451" type="line"/>
      <point x="572" y="549" type="line"/>
      <point x="575" y="549" type="line"/>
      <point x="604" y="449" type="line"/>
      <point x="755" y="0" type="line"/>
      <point x="898" y="0" type="line"/>
      <point x="658" y="660" type="line"/>
      <point x="492" y="660" type="line"/>
      <point x="297" y="128" type="line" smooth="yes"/>
      <point x="261" y="29"/>
      <point x="231" y="-4"/>
      <point x="167" y="-4" type="curve" smooth="yes"/>
      <point x="110" y="-4"/>
      <point x="76" y="13"/>
      <point x="56" y="81" type="curve"/>
      <point x="0" y="-4" type="line"/>
      <point x="15" y="-73"/>
      <point x="79" y="-110"/>
      <point x="174" y="-110" type="curve" smooth="yes"/>
      <point x="303" y="-110"/>
      <point x="369" y="-49"/>
    </contour>
    <contour>
      <point x="755" y="161" type="line"/>
      <point x="755" y="263" type="line"/>
      <point x="393" y="263" type="line"/>
      <point x="393" y="161" type="line"/>
    </contour>
    <component base="__swash_topleft" xOffset="32"/>
  </outline>
</glyph>
<glyph name="Adieresis.titl" format="2">
  <advance width="671"/>
  <outline>
    <contour>
      <point x="620" y="594" type="curve" smooth="yes"/>
      <point x="620" y="636"/>
      <point x="591" y="662"/>
      <point x="546" y="662" type="curve" smooth="yes"/>
      <point x="501" y="662"/>
      <point x="473" y="636"/>
      <point x="473" y="594" type="curve" smooth="yes"/>
      <point x="473" y="551"/>
      <point x="501" y="525"/>
      <point x="546" y="525" type="curve" smooth="yes"/>
      <point x="591" y="525"/>
      <point x="620" y="551"/>
    </contour>
    <contour>
      <point x="198" y="594" type="curve" smooth="yes"/>
      <point x="198" y="636"/>
      <point x="170" y="662"/>
      <point x="124" y="662" type="curve" smooth="yes"/>
      <point x="79" y="662"/>
      <point x="52" y="636"/>
      <point x="52" y="594" type="curve" smooth="yes"/>
      <point x="52" y="551"/>
      <point x="79" y="525"/>
      <point x="124" y="525" type="curve" smooth="yes"/>
      <point x="170" y="525"/>
      <point x="198" y="551"/>
    </contour>
    <contour>
      <point x="153" y="0" type="line"/>
      <point x="305" y="451" type="line"/>
      <point x="333" y="549" type="line"/>
      <point x="335" y="549" type="line"/>
      <point x="365" y="449" type="line"/>
      <point x="516" y="0" type="line"/>
      <point x="659" y="0" type="line"/>
      <point x="418" y="660" type="line"/>
      <point x="253" y="660" type="line"/>
      <point x="12" y="0" type="line"/>
    </contour>
    <contour>
      <point x="516" y="161" type="line"/>
      <point x="516" y="263" type="line"/>
      <point x="154" y="263" type="line"/>
      <point x="154" y="161" type="line"/>
    </contour>
  </outline>
</glyph>
<glyph name="Aogonek_y" format="2">
  <advance width="1172"/>
  <anchor x="598" y="0" name="bottomC"/>
  <anchor x="335" y="660" name="top"/>
  <anchor x="659" y="0" name="ogonek"/>
  <anchor x="335" y="0" name="bottom"/>
  <outline>
    <contour>
      <point x="1027" y="500" type="line"/>
      <point x="935" y="206" type="line"/>
      <point x="904" y="100" type="line"/>
      <point x="878" y="200" type="line"/>
      <point x="783" y="500" type="line"/>
      <point x="631" y="500" type="line"/>
      <point x="784" y="123" type="line"/>
      <point x="839" y="-7" type="line"/>
      <point x="820" y="-54" type="line" smooth="yes"/>
      <point x="802" y="-100"/>
      <point x="775" y="-112"/>
      <point x="743" y="-112" type="curve" smooth="yes"/>
      <point x="724" y="-112"/>
      <point x="706" y="-109"/>
      <point x="693" y="-99" type="curve"/>
      <point x="673" y="-195" type="line"/>
      <point x="695" y="-209"/>
      <point x="718" y="-215"/>
      <point x="759" y="-215" type="curve" smooth="yes"/>
      <point x="851" y="-215"/>
      <point x="914" y="-168"/>
      <point x="956" y="-49" type="curve" smooth="yes"/>
      <point x="1165" y="500" type="line"/>
    </contour>
    <contour>
      <point x="595" y="31" type="line"/>
      <point x="489" y="10"/>
      <point x="426" y="-26"/>
      <point x="426" y="-106" type="curve" smooth="yes"/>
      <point x="426" y="-173"/>
      <point x="473" y="-215"/>
      <point x="546" y="-215" type="curve" smooth="yes"/>
      <point x="580" y="-215"/>
      <point x="608" y="-209"/>
      <point x="631" y="-194" type="curve"/>
      <point x="626" y="-121" type="line"/>
      <point x="611" y="-131"/>
      <point x="592" y="-134"/>
      <point x="573" y="-134" type="curve" smooth="yes"/>
      <point x="541" y="-134"/>
      <point x="525" y="-116"/>
      <point x="525" y="-89" type="curve" smooth="yes"/>
      <point x="525" y="-48"/>
      <point x="563" y="-21"/>
      <point x="659" y="0" type="curve"/>
    </contour>
    <component base="A"/>
  </outline>
</glyph>
<glyph name="E.swsh.001" format="2">
  <advance width="800"/>
  <anchor x="345" y="660" name="top"/>
  <anchor x="554" y="0" name="ogonek"/>
  <anchor x="335" y="0" name="bottom"/>
  <anchor x="335" y="0" name="bottomC"/>
  <outline>
    <contour>
      <point x="592" y="272" type="line"/>
      <point x="640" y="268"/>
      <point x="667" y="240"/>
      <point x="667" y="191" type="curve" smooth="yes"/>
      <point x="667" y="135"/>
      <point x="630" y="111"/>
      <point x="552" y="111" type="curve" smooth="yes"/>
      <point x="398" y="111" type="line"/>
      <point x="398" y="0" type="line"/>
      <point x="574" y="0" type="line" smooth="yes"/>
      <point x="706" y="0"/>
      <point x="790" y="59"/>
      <point x="790" y="187" type="curve" smooth="yes"/>
      <point x="790" y="286"/>
      <point x="733" y="352"/>
      <point x="639" y="362" type="curve"/>
    </contour>
    <contour>
      <point x="86" y="0" type="line"/>
      <point x="224" y="0" type="line"/>
      <point x="224" y="660" type="line"/>
      <point x="86" y="660" type="line"/>
    </contour>
    <contour>
      <point x="155" y="273" type="line"/>
      <point x="433" y="273" type="line"/>
      <point x="433" y="380" type="line"/>
      <point x="155" y="380" type="line"/>
    </contour>
    <contour>
      <point x="155" y="549" type="line"/>
      <point x="613" y="549" type="line"/>
      <point x="613" y="660" type="line"/>
      <point x="155" y="660" type="line"/>
    </contour>
    <contour>
      <point x="155" y="0" type="line"/>
      <point x="526" y="0" type="line"/>
      <point x="526" y="111" type="line"/>
      <point x="155" y="111" type="line"/>
    </contour>
  </outline>
</glyph>
<glyph name="Euro.tf" format="2">
  <advance width="604"/>
  <outline>
    <contour>
      <point x="16" y="284" type="line"/>
      <point x="16" y="211" type="line"/>
      <point x="354" y="211" type="line"/>
      <point x="374" y="284" type="line"/>
    </contour>
    <contour>
      <point x="16" y="427" type="line"/>
      <point x="16" y="354" type="line"/>
      <point x="390" y="354" type="line"/>
      <point x="409" y="427" type="line"/>
    </contour>
    <component base="euro.part.tf" xOffset="-4"/>
  </outline>
</glyph>
<glyph name="G.ss04" format="2">
  <advance width="723"/>
  <anchor x="370" y="660" name="top"/>
  <anchor x="434" y="0" name="ogonek"/>
  <anchor x="395" y="0" name="bottom"/>
  <anchor x="369" y="0" name="bottomC"/>
  <outline>
    <contour>
      <point x="669" y="275" type="curve" smooth="yes"/>
      <point x="669" y="349" type="line"/>
      <point x="365" y="349" type="line"/>
      <point x="365" y="251" type="line"/>
      <point x="613" y="251" type="line"/>
      <point x="548" y="294" type="line"/>
      <point x="548" y="244" type="line" smooth="yes"/>
      <point x="548" y="178"/>
      <point x="501" y="103"/>
      <point x="385" y="103" type="curve" smooth="yes"/>
      <point x="259" y="103"/>
      <point x="196" y="180"/>
      <point x="196" y="330" type="curve" smooth="yes"/>
      <point x="196" y="477"/>
      <point x="267" y="557"/>
      <point x="375" y="557" type="curve" smooth="yes"/>
      <point x="453" y="557"/>
      <point x="506" y="523"/>
      <point x="527" y="453" type="curve"/>
      <point x="655" y="508" type="line"/>
      <point x="603" y="620"/>
      <point x="517" y="670"/>
      <point x="374" y="670" type="curve" smooth="yes"/>
      <point x="178" y="670"/>
      <point x="53" y="541"/>
      <point x="53" y="329" type="curve" smooth="yes"/>
      <point x="53" y="114"/>
      <point x="179" y="-10"/>
      <point x="372" y="-10" type="curve" smooth="yes"/>
      <point x="557" y="-10"/>
      <point x="669" y="89"/>
    </contour>
  </outline>
</glyph>
<glyph name="Hsuperior" format="2">
  <advance width="474"/>
  <outline>
    <contour>
      <point x="323" y="730" type="line"/>
      <point x="323" y="333" type="line"/>
      <point x="427" y="333" type="line"/>
      <point x="427" y="730" type="line"/>
    </contour>
    <contour>
      <point x="46" y="730" type="line"/>
      <point x="46" y="333" type="line"/>
      <point x="151" y="333" type="line"/>
      <point x="151" y="730" type="line"/>
    </contour>
    <contour>
      <point x="96" y="574" type="line"/>
      <point x="96" y="495" type="line"/>
      <point x="378" y="495" type="line"/>
      <point x="378" y="574" type="line"/>
    </contour>
  </outline>
</glyph>
<glyph name="IJ.ss05" format="2">
  <advance width="652"/>
  <outline>
    <contour>
      <point x="86" y="660" type="line"/>
      <point x="86" y="289" type="line"/>
      <point x="224" y="289" type="line"/>
      <point x="224" y="660" type="line"/>
    </contour>
    <contour>
      <point x="438" y="660" type="line"/>
      <point x="438" y="253" type="line" smooth="yes"/>
      <point x="438" y="152"/>
      <point x="398" y="103"/>
      <point x="326" y="103" type="curve" smooth="yes"/>
      <point x="253" y="103"/>
      <point x="214" y="138"/>
      <point x="225" y="213" type="curve"/>
      <point x="88" y="213" type="line"/>
      <point x="71" y="68"/>
      <point x="160" y="-10"/>
      <point x="324" y="-10" type="curve" smooth="yes"/>
      <point x="478" y="-10"/>
      <point x="576" y="84"/>
      <point x="576" y="243" type="curve" smooth="yes"/>
      <point x="576" y="660" type="line"/>
    </contour>
  </outline>
</glyph>
<glyph name="N.swsh" format="2">
  <advance width="739"/>
  <anchor x="372" y="660" name="top"/>
  <anchor x="653" y="0" name="ogonek"/>
  <anchor x="388" y="0" name="bottom"/>
  <anchor x="562" y="0" name="bottomC"/>
  <outline>
    <contour>
      <point x="210" y="0" type="line"/>
      <point x="210" y="382" type="line"/>
      <point x="206" y="499" type="line"/>
      <point x="207" y="499" type="line"/>
      <point x="264" y="388" type="line"/>
      <point x="495" y="0" type="line"/>
      <point x="653" y="0" type="line"/>
      <point x="653" y="457" type="line"/>
      <point x="529" y="472" type="line"/>
      <point x="529" y="278" type="line"/>
      <point x="533" y="161" type="line"/>
      <point x="531" y="161" type="line"/>
      <point x="474" y="273" type="line"/>
      <point x="243" y="660" type="line"/>
      <point x="86" y="660" type="line"/>
      <point x="86" y="0" type="line"/>
    </contour>
    <contour>
      <point x="653" y="399" type="line"/>
      <point x="653" y="505" type="line" smooth="yes"/>
      <point x="653" y="577"/>
      <point x="692" y="623"/>
      <point x="758" y="623" type="curve" smooth="yes"/>
      <point x="821" y="623"/>
      <point x="850" y="599"/>
      <point x="868" y="540" type="curve"/>
      <point x="931" y="620" type="line"/>
      <point x="906" y="688"/>
      <point x="850" y="729"/>
      <point x="746" y="729" type="curve" smooth="yes"/>
      <point x="610" y="729"/>
      <point x="529" y="653"/>
      <point x="529" y="526" type="curve" smooth="yes"/>
      <point x="529" y="426" type="line"/>
    </contour>
  </outline>
</glyph>
<glyph name="Odieresis.titl" format="2">
  <advance width="741"/>
  <outline>
    <contour>
      <point x="193" y="544" type="curve" smooth="yes"/>
      <point x="193" y="509"/>
      <point x="216" y="486"/>
      <point x="253" y="486" type="curve" smooth="yes"/>
      <point x="291" y="486"/>
      <point x="315" y="509"/>
      <point x="315" y="544" type="curve" smooth="yes"/>
      <point x="315" y="579"/>
      <point x="291" y="602"/>
      <point x="253" y="602" type="curve" smooth="yes"/>
      <point x="216" y="602"/>
      <point x="193" y="579"/>
    </contour>
    <contour>
      <point x="427" y="545" type="curve" smooth="yes"/>
      <point x="427" y="509"/>
      <point x="451" y="486"/>
      <point x="488" y="487" type="curve" smooth="yes"/>
      <point x="525" y="486"/>
      <point x="549" y="509"/>
      <point x="549" y="545" type="curve" smooth="yes"/>
      <point x="549" y="579"/>
      <point x="525" y="602"/>
      <point x="488" y="602" type="curve" smooth="yes"/>
      <point x="451" y="602"/>
      <point x="427" y="579"/>
    </contour>
    <contour>
      <point x="53" y="330" type="curve" smooth="yes"/>
      <point x="53" y="118"/>
      <point x="175" y="-10"/>
      <point x="371" y="-10" type="curve" smooth="yes"/>
      <point x="567" y="-10"/>
      <point x="688" y="118"/>
      <point x="688" y="330" type="curve" smooth="yes"/>
      <point x="688" y="542"/>
      <point x="567" y="670"/>
      <point x="371" y="670" type="curve" smooth="yes"/>
      <point x="175" y="670"/>
      <point x="53" y="542"/>
    </contour>
    <contour>
      <point x="545" y="330" type="curve" smooth="yes"/>
      <point x="545" y="183"/>
      <point x="481" y="103"/>
      <point x="371" y="103" type="curve" smooth="yes"/>
      <point x="260" y="103"/>
      <point x="196" y="183"/>
      <point x="196" y="330" type="curve" smooth="yes"/>
      <point x="196" y="477"/>
      <point x="260" y="557"/>
      <point x="371" y="557" type="curve" smooth="yes"/>
      <point x="481" y="557"/>
      <point x="545" y="477"/>
    </contour>
  </outline>
</glyph>
<glyph name="Osuperior" format="2">
  <advance width="467"/>
  <outline>
    <contour>
      <point x="30" y="531" type="curve" smooth="yes"/>
      <point x="30" y="403"/>
      <point x="108" y="327"/>
      <point x="234" y="327" type="curve" smooth="yes"/>
      <point x="360" y="327"/>
      <point x="438" y="403"/>
      <point x="438" y="531" type="curve" smooth="yes"/>
      <point x="438" y="659"/>
      <point x="360" y="735"/>
      <point x="234" y="735" type="curve" smooth="yes"/>
      <point x="108" y="735"/>
      <point x="30" y="659"/>
    </contour>
    <contour>
      <point x="333" y="531" type="curve" smooth="yes"/>
      <point x="333" y="447"/>
      <point x="297" y="404"/>
      <point x="234" y="404" type="curve" smooth="yes"/>
      <point x="170" y="404"/>
      <point x="134" y="447"/>
      <point x="134" y="531" type="curve" smooth="yes"/>
      <point x="134" y="615"/>
      <point x="170" y="658"/>
      <point x="234" y="658" type="curve" smooth="yes"/>
      <point x="297" y="658"/>
      <point x="333" y="615"/>
    </contour>
  </outline>
</glyph>
<glyph name="S.swsh" format="2">
  <advance width="643"/>
  <anchor x="328" y="660" name="top"/>
  <anchor x="409" y="-100" name="ogonek"/>
  <anchor x="324" y="-100" name="bottom"/>
  <anchor x="302" y="-100" name="bottomC"/>
  <outline>
    <contour>
      <point x="602" y="115" type="curve" smooth="yes"/>
      <point x="602" y="228"/>
      <point x="541" y="285"/>
      <point x="369" y="326" type="curve" smooth="yes"/>
      <point x="243" y="358"/>
      <point x="203" y="390"/>
      <point x="203" y="448" type="curve" smooth="yes"/>
      <point x="203" y="517"/>
      <point x="249" y="557"/>
      <point x="331" y="557" type="curve" smooth="yes"/>
      <point x="423" y="557"/>
      <point x="461" y="513"/>
      <point x="463" y="426" type="curve"/>
      <point x="590" y="475" type="line"/>
      <point x="580" y="608"/>
      <point x="494" y="670"/>
      <point x="333" y="670" type="curve" smooth="yes"/>
      <point x="162" y="670"/>
      <point x="60" y="578"/>
      <point x="60" y="444" type="curve" smooth="yes"/>
      <point x="60" y="326"/>
      <point x="126" y="262"/>
      <point x="305" y="222" type="curve" smooth="yes"/>
      <point x="431" y="193"/>
      <point x="469" y="162"/>
      <point x="469" y="108" type="curve" smooth="yes"/>
      <point x="469" y="42"/>
      <point x="422" y="3"/>
      <point x="327" y="3" type="curve" smooth="yes"/>
      <point x="220" y="3"/>
      <point x="171" y="38"/>
      <point x="171" y="111" type="curve" smooth="yes"/>
      <point x="171" y="123"/>
      <point x="173" y="135"/>
      <point x="176" y="150" type="curve"/>
      <point x="52" y="117" type="line"/>
      <point x="50" y="103"/>
      <point x="48" y="89"/>
      <point x="48" y="70" type="curve" smooth="yes"/>
      <point x="48" y="-41"/>
      <point x="149" y="-110"/>
      <point x="318" y="-110" type="curve" smooth="yes"/>
      <point x="487" y="-110"/>
      <point x="602" y="-26"/>
    </contour>
  </outline>
</glyph>
<glyph name="W.swsh" format="2">
  <advance width="1264"/>
  <anchor x="772" y="660" name="top"/>
  <anchor x="1053" y="0" name="ogonek"/>
  <anchor x="772" y="0" name="bottom"/>
  <anchor x="985" y="0" name="bottomC"/>
  <outline>
    <contour>
      <point x="235" y="364" type="line"/>
      <point x="174" y="372"/>
      <point x="137" y="410"/>
      <point x="137" y="462" type="curve" smooth="yes"/>
      <point x="137" y="522"/>
      <point x="178" y="557"/>
      <point x="253" y="557" type="curve" smooth="yes"/>
      <point x="372" y="557" type="line"/>
      <point x="372" y="660" type="line"/>
      <point x="241" y="660" type="line" smooth="yes"/>
      <point x="95" y="660"/>
      <point x="10" y="587"/>
      <point x="10" y="464" type="curve" smooth="yes"/>
      <point x="10" y="351"/>
      <point x="89" y="276"/>
      <point x="191" y="268" type="curve"/>
    </contour>
    <component base="W" xOffset="280"/>
  </outline>
</glyph>
<glyph name="adieresis.titl.sc" format="2">
  <advance width="616"/>
  <outline>
    <contour>
      <point x="243" y="581" type="curve" smooth="yes"/>
      <point x="243" y="622"/>
      <point x="216" y="647"/>
      <point x="171" y="647" type="curve" smooth="yes"/>
      <point x="127" y="647"/>
      <point x="100" y="622"/>
      <point x="100" y="581" type="curve" smooth="yes"/>
      <point x="100" y="541"/>
      <point x="127" y="516"/>
      <point x="171" y="516" type="curve" smooth="yes"/>
      <point x="216" y="516"/>
      <point x="243" y="541"/>
    </contour>
    <contour>
      <point x="521" y="581" type="curve" smooth="yes"/>
      <point x="521" y="622"/>
      <point x="494" y="647"/>
      <point x="449" y="647" type="curve" smooth="yes"/>
      <point x="405" y="647"/>
      <point x="378" y="622"/>
      <point x="378" y="581" type="curve" smooth="yes"/>
      <point x="378" y="541"/>
      <point x="405" y="516"/>
      <point x="449" y="516" type="curve" smooth="yes"/>
      <point x="494" y="516"/>
      <point x="521" y="541"/>
    </contour>
    <contour>
      <point x="148" y="0" type="line"/>
      <point x="267" y="320" type="line"/>
      <point x="307" y="456" type="line"/>
      <point x="310" y="456" type="line"/>
      <point x="351" y="320" type="line"/>
      <point x="469" y="0" type="line"/>
      <point x="606" y="0" type="line"/>
      <point x="393" y="560" type="line"/>
      <point x="229" y="560" type="line"/>
      <point x="15" y="0" type="line"/>
    </contour>
    <contour>
      <point x="475" y="130" type="line"/>
      <point x="475" y="227" type="line"/>
      <point x="146" y="227" type="line"/>
      <point x="146" y="130" type="line"/>
    </contour>
  </outline>
</glyph>
<glyph name="ampersand.sc" format="2">
  <advance width="575"/>
  <outline>
    <contour>
      <point x="576" y="78" type="line"/>
      <point x="510" y="76"/>
      <point x="475" y="98"/>
      <point x="350" y="232" type="curve" smooth="yes"/>
      <point x="227" y="365"/>
      <point x="210" y="386"/>
      <point x="210" y="425" type="curve" smooth="yes"/>
      <point x="210" y="457"/>
      <point x="228" y="480"/>
      <point x="265" y="480" type="curve" smooth="yes"/>
      <point x="300" y="480"/>
      <point x="321" y="464"/>
      <point x="321" y="430" type="curve" smooth="yes"/>
      <point x="321" y="390"/>
      <point x="308" y="362"/>
      <point x="223" y="316" type="curve"/>
      <point x="69" y="271"/>
      <point x="29" y="211"/>
      <point x="29" y="137" type="curve" smooth="yes"/>
      <point x="29" y="48"/>
      <point x="104" y="-8"/>
      <point x="237" y="-8" type="curve" smooth="yes"/>
      <point x="328" y="-8"/>
      <point x="394" y="22"/>
      <point x="438" y="77" type="curve"/>
      <point x="492" y="123"/>
      <point x="527" y="188"/>
      <point x="526" y="285" type="curve"/>
      <point x="442" y="295" type="line"/>
      <point x="445" y="213"/>
      <point x="426" y="164"/>
      <point x="388" y="128" type="curve"/>
      <point x="350" y="97"/>
      <point x="304" y="77"/>
      <point x="244" y="77" type="curve" smooth="yes"/>
      <point x="190" y="77"/>
      <point x="145" y="107"/>
      <point x="145" y="152" type="curve" smooth="yes"/>
      <point x="145" y="190"/>
      <point x="169" y="218"/>
      <point x="262" y="264" type="curve"/>
      <point x="393" y="317"/>
      <point x="424" y="368"/>
      <point x="424" y="440" type="curve" smooth="yes"/>
      <point x="424" y="521"/>
      <point x="361" y="568"/>
      <point x="263" y="568" type="curve" smooth="yes"/>
      <point x="147" y="568"/>
      <point x="94" y="498"/>
      <point x="94" y="430" type="curve" smooth="yes"/>
      <point x="94" y="360"/>
      <point x="134" y="315"/>
      <point x="293" y="160" type="curve" smooth="yes"/>
      <point x="437" y="14"/>
      <point x="477" y="-8"/>
      <point x="558" y="-8" type="curve"/>
    </contour>
  </outline>
</glyph>
<glyph name="aogonek_j" format="2">
  <advance width="856"/>
  <outline>
    <contour>
      <point x="49" y="366" type="curve"/>
      <point x="158" y="328" type="line"/>
      <point x="176" y="386"/>
      <point x="215" y="410"/>
      <point x="267" y="410" type="curve" smooth="yes"/>
      <point x="324" y="410"/>
      <point x="357" y="376"/>
      <point x="357" y="323" type="curve" smooth="yes"/>
      <point x="357" y="122" type="line"/>
      <point x="374" y="117" type="line" smooth="yes"/>
      <point x="374" y="31"/>
      <point x="431" y="-3"/>
      <point x="494" y="-3" type="curve" smooth="yes"/>
      <point x="513" y="-3"/>
      <point x="529" y="1"/>
      <point x="554" y="2" type="curve"/>
      <point x="564" y="87" type="line"/>
      <point x="554" y="84"/>
      <point x="541" y="83"/>
      <point x="529" y="83" type="curve" smooth="yes"/>
      <point x="504" y="83"/>
      <point x="493" y="95"/>
      <point x="493" y="121" type="curve" smooth="yes"/>
      <point x="493" y="326" type="line" smooth="yes"/>
      <point x="493" y="450"/>
      <point x="411" y="510"/>
      <point x="272" y="510" type="curve" smooth="yes"/>
      <point x="150" y="510"/>
      <point x="69" y="454"/>
    </contour>
    <contour>
      <point x="236" y="276" type="line" smooth="yes"/>
      <point x="102" y="251"/>
      <point x="41" y="196"/>
      <point x="41" y="118" type="curve" smooth="yes"/>
      <point x="41" y="34"/>
      <point x="107" y="-10"/>
      <point x="205" y="-10" type="curve" smooth="yes"/>
      <point x="314" y="-10"/>
      <point x="394" y="54"/>
      <point x="394" y="140" type="curve"/>
      <point x="357" y="166" type="line"/>
      <point x="357" y="113"/>
      <point x="303" y="81"/>
      <point x="245" y="81" type="curve" smooth="yes"/>
      <point x="202" y="81"/>
      <point x="175" y="99"/>
      <point x="175" y="134" type="curve" smooth="yes"/>
      <point x="175" y="173"/>
      <point x="209" y="196"/>
      <point x="275" y="211" type="curve" smooth="yes"/>
      <point x="404" y="238" type="line"/>
      <point x="390" y="305" type="line"/>
    </contour>
    <contour>
      <point x="323" y="-118" type="curve" smooth="yes"/>
      <point x="323" y="-175"/>
      <point x="367" y="-215"/>
      <point x="435" y="-215" type="curve" smooth="yes"/>
      <point x="467" y="-215"/>
      <point x="486" y="-211"/>
      <point x="505" y="-199" type="curve"/>
      <point x="512" y="-125" type="line"/>
      <point x="500" y="-132"/>
      <point x="488" y="-134"/>
      <point x="474" y="-134" type="curve" smooth="yes"/>
      <point x="442" y="-134"/>
      <point x="421" y="-116"/>
      <point x="421" y="-88" type="curve" smooth="yes"/>
      <point x="421" y="-45"/>
      <point x="461" y="-16"/>
      <point x="554" y="2" type="curve"/>
      <point x="491" y="28" type="line"/>
      <point x="397" y="6"/>
      <point x="323" y="-34"/>
    </contour>
    <contour>
      <point x="647" y="500" type="line"/>
      <point x="647" y="-34" type="line" smooth="yes"/>
      <point x="647" y="-89"/>
      <point x="634" y="-108"/>
      <point x="606" y="-108" type="curve" smooth="yes"/>
      <point x="588" y="-108"/>
      <point x="575" y="-105"/>
      <point x="564" y="-98" type="curve"/>
      <point x="544" y="-202" type="line"/>
      <point x="565" y="-211"/>
      <point x="586" y="-215"/>
      <point x="616" y="-215" type="curve" smooth="yes"/>
      <point x="701" y="-215"/>
      <point x="784" y="-180"/>
      <point x="784" y="-40" type="curve" smooth="yes"/>
      <point x="784" y="500" type="line"/>
    </contour>
    <contour>
      <point x="631" y="645" type="curve" smooth="yes"/>
      <point x="631" y="598"/>
      <point x="660" y="572"/>
      <point x="715" y="572" type="curve" smooth="yes"/>
      <point x="771" y="572"/>
      <point x="800" y="598"/>
      <point x="800" y="645" type="curve" smooth="yes"/>
      <point x="800" y="692"/>
      <point x="771" y="719"/>
      <point x="715" y="719" type="curve" smooth="yes"/>
      <point x="660" y="719"/>
      <point x="631" y="692"/>
    </contour>
  </outline>
</glyph>
<glyph name="b.sc" format="2">
  <advance width="615"/>
  <anchor x="297" y="560" name="top"/>
  <anchor x="354" y="0" name="ogonek"/>
  <anchor x="297" y="0" name="bottom"/>
  <anchor x="294" y="0" name="bottomC"/>
  <outline>
    <contour>
      <point x="361" y="0" type="line" smooth="yes"/>
      <point x="499" y="0"/>
      <point x="571" y="55"/>
      <point x="571" y="151" type="curve" smooth="yes"/>
      <point x="571" y="219"/>
      <point x="530" y="272"/>
      <point x="445" y="281" type="curve"/>
      <point x="445" y="282" type="line"/>
      <point x="517" y="297"/>
      <point x="555" y="345"/>
      <point x="555" y="409" type="curve" smooth="yes"/>
      <point x="555" y="506"/>
      <point x="491" y="560"/>
      <point x="352" y="560" type="curve" smooth="yes"/>
      <point x="78" y="560" type="line"/>
      <point x="78" y="0" type="line"/>
    </contour>
    <contour>
      <point x="209" y="236" type="line"/>
      <point x="343" y="236" type="line" smooth="yes"/>
      <point x="402" y="236"/>
      <point x="435" y="213"/>
      <point x="435" y="165" type="curve" smooth="yes"/>
      <point x="435" y="118"/>
      <point x="402" y="95"/>
      <point x="343" y="95" type="curve" smooth="yes"/>
      <point x="209" y="95" type="line"/>
    </contour>
    <contour>
      <point x="209" y="465" type="line"/>
      <point x="330" y="465" type="line" smooth="yes"/>
      <point x="390" y="465"/>
      <point x="419" y="443"/>
      <point x="419" y="396" type="curve" smooth="yes"/>
      <point x="419" y="349"/>
      <point x="390" y="327"/>
      <point x="330" y="327" type="curve" smooth="yes"/>
      <point x="209" y="327" type="line"/>
    </contour>
  </outline>
</glyph>
<glyph name="blackSmallSquare.case" format="2">
  <advance width="795"/>
  <outline>
    <contour>
      <point x="68" y="0" type="line"/>
      <point x="728" y="0" type="line"/>
      <point x="728" y="660" type="line"/>
      <point x="68" y="660" type="line"/>
    </contour>
  </outline>
</glyph>
<glyph name="bowl" format="2">
  <advance width="602"/>
  <outline>
    <contour>
      <point x="80" y="249" type="curve" smooth="yes"/>
      <point x="80" y="86"/>
      <point x="161" y="-10"/>
      <point x="294" y="-10" type="curve" smooth="yes"/>
      <point x="407" y="-10"/>
      <point x="480" y="77"/>
      <point x="480" y="185" type="curve"/>
      <point x="451" y="245" type="line"/>
      <point x="451" y="148"/>
      <point x="406" y="95"/>
      <point x="335" y="95" type="curve" smooth="yes"/>
      <point x="262" y="95"/>
      <point x="218" y="148"/>
      <point x="218" y="250" type="curve" smooth="yes"/>
      <point x="218" y="352"/>
      <point x="262" y="405"/>
      <point x="335" y="405" type="curve" smooth="yes"/>
      <point x="407" y="405"/>
      <point x="451" y="350"/>
      <point x="451" y="255" type="curve"/>
      <point x="474" y="315" type="line"/>
      <point x="474" y="424"/>
      <point x="407" y="510"/>
      <point x="294" y="510" type="curve" smooth="yes"/>
      <point x="162" y="510"/>
      <point x="80" y="413"/>
    </contour>
  </outline>
</glyph>
<glyph name="braceleft.case" format="2">
  <advance width="395"/>
  <outline>
    <contour>
      <point x="148" y="622" type="curve" smooth="yes"/>
      <point x="148" y="480" type="line" smooth="yes"/>
      <point x="148" y="405"/>
      <point x="117" y="376"/>
      <point x="36" y="376" type="curve"/>
      <point x="36" y="316" type="line"/>
      <point x="180" y="316"/>
      <point x="262" y="353"/>
      <point x="262" y="455" type="curve" smooth="yes"/>
      <point x="262" y="612" type="line" smooth="yes"/>
      <point x="262" y="661"/>
      <point x="292" y="683"/>
      <point x="364" y="683" type="curve"/>
      <point x="356" y="775" type="line"/>
      <point x="205" y="775"/>
      <point x="148" y="729"/>
    </contour>
    <contour>
      <point x="36" y="281" type="line"/>
      <point x="117" y="281"/>
      <point x="148" y="252"/>
      <point x="148" y="177" type="curve" smooth="yes"/>
      <point x="148" y="35" type="line" smooth="yes"/>
      <point x="148" y="-73"/>
      <point x="205" y="-119"/>
      <point x="356" y="-119" type="curve"/>
      <point x="364" y="-26" type="line"/>
      <point x="292" y="-26"/>
      <point x="262" y="-5"/>
      <point x="262" y="45" type="curve" smooth="yes"/>
      <point x="262" y="202" type="line" smooth="yes"/>
      <point x="262" y="304"/>
      <point x="180" y="341"/>
      <point x="36" y="341" type="curve"/>
    </contour>
  </outline>
</glyph>
<glyph name="bracketleftsuperior" format="2">
  <advance width="234"/>
  <outline>
    <contour>
      <point x="144" y="810" type="line"/>
      <point x="58" y="810" type="line"/>
      <point x="58" y="253" type="line"/>
      <point x="144" y="253" type="line"/>
    </contour>
    <contour>
      <point x="104" y="738" type="line"/>
      <point x="225" y="738" type="line"/>
      <point x="225" y="810" type="line"/>
      <point x="104" y="810" type="line"/>
    </contour>
    <contour>
      <point x="104" y="253" type="line"/>
      <point x="225" y="253" type="line"/>
      <point x="225" y="325" type="line"/>
      <point x="104" y="325" type="line"/>
    </contour>
  </outline>
</glyph>
<glyph name="c.sc" format="2">
  <advance width="610"/>
  <anchor x="335" y="560" name="top"/>
  <anchor x="406" y="0" name="ogonek"/>
  <anchor x="335" y="0" name="bottom"/>
  <anchor x="334" y="0" name="bottomC"/>
  <outline>
    <contour>
      <point x="462" y="198" type="line"/>
      <point x="452" y="131"/>
      <point x="410" y="99"/>
      <point x="331" y="99" type="curve" smooth="yes"/>
      <point x="244" y="99"/>
      <point x="184" y="162"/>
      <point x="184" y="280" type="curve" smooth="yes"/>
      <point x="184" y="398"/>
      <point x="243" y="461"/>
      <point x="332" y="461" type="curve" smooth="yes"/>
      <point x="400" y="461"/>
      <point x="442" y="433"/>
      <point x="454" y="361" type="curve"/>
      <point x="579" y="402" type="line"/>
      <point x="554" y="511"/>
      <point x="457" y="568"/>
      <point x="333" y="568" type="curve" smooth="yes"/>
      <point x="156" y="568"/>
      <point x="47" y="461"/>
      <point x="47" y="280" type="curve" smooth="yes"/>
      <point x="47" y="99"/>
      <point x="156" y="-8"/>
      <point x="329" y="-8" type="curve" smooth="yes"/>
      <point x="468" y="-8"/>
      <point x="565" y="56"/>
      <point x="586" y="162" type="curve"/>
    </contour>
  </outline>
</glyph>
<glyph name="caron.alt" format="2">
  <advance width="239"/>
  <anchor x="75" y="719" name="_topright"/>
  <outline>
    <contour>
      <point x="75" y="719" type="line"/>
      <point x="54" y="495" type="line"/>
      <point x="136" y="495" type="line"/>
      <point x="185" y="719" type="line"/>
    </contour>
  </outline>
</glyph>
<glyph name="cent.001" format="2">
  <advance width="561"/>
  <outline>
    <contour>
      <point x="53" y="250" type="curve" smooth="yes"/>
      <point x="53" y="86"/>
      <point x="145" y="-10"/>
      <point x="307" y="-10" type="curve" smooth="yes"/>
      <point x="430" y="-10"/>
      <point x="507" y="50"/>
      <point x="527" y="142" type="curve"/>
      <point x="413" y="175" type="line"/>
      <point x="400" y="116"/>
      <point x="363" y="84"/>
      <point x="305" y="84" type="curve" smooth="yes"/>
      <point x="226" y="84"/>
      <point x="180" y="137"/>
      <point x="180" y="249" type="curve" smooth="yes"/>
      <point x="180" y="360"/>
      <point x="224" y="416"/>
      <point x="306" y="416" type="curve" smooth="yes"/>
      <point x="358" y="416"/>
      <point x="393" y="384"/>
      <point x="406" y="324" type="curve"/>
      <point x="524" y="362" type="line"/>
      <point x="502" y="446"/>
      <point x="438" y="510"/>
      <point x="303" y="510" type="curve" smooth="yes"/>
      <point x="146" y="510"/>
      <point x="53" y="414"/>
    </contour>
    <contour>
      <point x="246" y="34" type="line"/>
      <point x="246" y="-110" type="line"/>
      <point x="349" y="-110" type="line"/>
      <point x="349" y="34" type="line"/>
    </contour>
    <contour>
      <point x="246" y="610" type="line"/>
      <point x="246" y="464" type="line"/>
      <point x="349" y="464" type="line"/>
      <point x="349" y="610" type="line"/>
    </contour>
  </outline>
</glyph>
<glyph name="commasuperior" format="2">
  <advance width="212"/>
  <outline>
    <contour>
      <point x="42" y="385" type="curve" smooth="yes"/>
      <point x="42" y="347"/>
      <point x="73" y="327"/>
      <point x="98" y="327" type="curve" smooth="yes"/>
      <point x="106" y="327"/>
      <point x="110" y="329"/>
      <point x="114" y="332" type="curve"/>
      <point x="117" y="330" type="line"/>
      <point x="112" y="301"/>
      <point x="78" y="272"/>
      <point x="37" y="256" type="curve"/>
      <point x="83" y="221" type="line"/>
      <point x="146" y="249"/>
      <point x="177" y="301"/>
      <point x="177" y="359" type="curve" smooth="yes"/>
      <point x="177" y="410"/>
      <point x="153" y="444"/>
      <point x="106" y="444" type="curve" smooth="yes"/>
      <point x="65" y="444"/>
      <point x="42" y="422"/>
    </contour>
  </outline>
</glyph>
<glyph name="d.sc" format="2">
  <advance width="656"/>
  <anchor x="298" y="0" name="bottom"/>
  <anchor x="298" y="560" name="top"/>
  <anchor x="311" y="0" name="ogonek"/>
  <anchor x="216" y="173" name="center"/>
  <anchor x="294" y="0" name="bottomC"/>
  <outline>
    <contour>
      <point x="164" y="560" type="line"/>
      <point x="164" y="455" type="line"/>
      <point x="313" y="455" type="line" smooth="yes"/>
      <point x="416" y="455"/>
      <point x="467" y="393"/>
      <point x="467" y="281" type="curve" smooth="yes"/>
      <point x="467" y="168"/>
      <point x="416" y="105"/>
      <point x="313" y="105" type="curve" smooth="yes"/>
      <point x="164" y="105" type="line"/>
      <point x="164" y="0" type="line"/>
      <point x="311" y="0" type="line" smooth="yes"/>
      <point x="498" y="0"/>
      <point x="604" y="102"/>
      <point x="604" y="281" type="curve" smooth="yes"/>
      <point x="604" y="458"/>
      <point x="498" y="560"/>
      <point x="311" y="560" type="curve" smooth="yes"/>
    </contour>
    <contour>
      <point x="78" y="560" type="line"/>
      <point x="78" y="0" type="line"/>
      <point x="214" y="0" type="line"/>
      <point x="214" y="560" type="line"/>
    </contour>
  </outline>
</glyph>
<glyph name="dollar.001" format="2">
  <advance width="619"/>
  <outline>
    <contour>
      <point x="57" y="461" type="curve" smooth="yes"/>
      <point x="57" y="221"/>
      <point x="449" y="324"/>
      <point x="449" y="181" type="curve" smooth="yes"/>
      <point x="449" y="125"/>
      <point x="400" y="99"/>
      <point x="315" y="99" type="curve" smooth="yes"/>
      <point x="225" y="99"/>
      <point x="143" y="144"/>
      <point x="114" y="219" type="curve"/>
      <point x="33" y="141" type="line"/>
      <point x="85" y="50"/>
      <point x="174" y="0"/>
      <point x="319" y="0" type="curve" smooth="yes"/>
      <point x="468" y="0"/>
      <point x="577" y="70"/>
      <point x="577" y="189" type="curve" smooth="yes"/>
      <point x="577" y="433"/>
      <point x="185" y="332"/>
      <point x="185" y="471" type="curve" smooth="yes"/>
      <point x="185" y="526"/>
      <point x="232" y="560"/>
      <point x="319" y="560" type="curve" smooth="yes"/>
      <point x="408" y="560"/>
      <point x="459" y="531"/>
      <point x="502" y="452" type="curve"/>
      <point x="580" y="533" type="line"/>
      <point x="523" y="614"/>
      <point x="455" y="660"/>
      <point x="316" y="660" type="curve" smooth="yes"/>
      <point x="152" y="660"/>
      <point x="57" y="574"/>
    </contour>
    <contour>
      <point x="264" y="51" type="line"/>
      <point x="264" y="-104" type="line"/>
      <point x="372" y="-104" type="line"/>
      <point x="372" y="51" type="line"/>
    </contour>
    <contour>
      <point x="371" y="615" type="line"/>
      <point x="371" y="764" type="line"/>
      <point x="263" y="764" type="line"/>
      <point x="263" y="615" type="line"/>
    </contour>
  </outline>
</glyph>
<glyph name="dollar.tf" format="2">
  <advance width="604"/>
  <outline>
    <contour>
      <point x="61" y="462" type="curve" smooth="yes"/>
      <point x="61" y="219"/>
      <point x="450" y="323"/>
      <point x="450" y="181" type="curve" smooth="yes"/>
      <point x="450" y="124"/>
      <point x="403" y="97"/>
      <point x="312" y="97" type="curve" smooth="yes"/>
      <point x="231" y="97"/>
      <point x="143" y="143"/>
      <point x="119" y="219" type="curve"/>
      <point x="34" y="143" type="line"/>
      <point x="84" y="50"/>
      <point x="172" y="0"/>
      <point x="313" y="0" type="curve" smooth="yes"/>
      <point x="459" y="0"/>
      <point x="564" y="70"/>
      <point x="564" y="188" type="curve" smooth="yes"/>
      <point x="564" y="431"/>
      <point x="176" y="329"/>
      <point x="176" y="471" type="curve" smooth="yes"/>
      <point x="176" y="527"/>
      <point x="221" y="562"/>
      <point x="314" y="562" type="curve" smooth="yes"/>
      <point x="399" y="562"/>
      <point x="453" y="531"/>
      <point x="490" y="452" type="curve"/>
      <point x="569" y="532" type="line"/>
      <point x="508" y="614"/>
      <point x="446" y="660"/>
      <point x="312" y="660" type="curve" smooth="yes"/>
      <point x="154" y="660"/>
      <point x="61" y="574"/>
    </contour>
    <contour>
      <point x="269" y="752" type="line"/>
      <point x="269" y="-92" type="line"/>
      <point x="356" y="-92" type="line"/>
      <point x="356" y="752" type="line"/>
    </contour>
  </outline>
</glyph>
<glyph name="eight.osf" format="2">
  <advance width="609"/>
  <outline>
    <contour>
      <point x="74" y="488" type="curve" smooth="yes"/>
      <point x="74" y="420"/>
      <point x="111" y="368"/>
      <point x="174" y="342" type="curve"/>
      <point x="174" y="341" type="line"/>
      <point x="96" y="314"/>
      <point x="49" y="255"/>
      <point x="49" y="178" type="curve" smooth="yes"/>
      <point x="49" y="61"/>
      <point x="148" y="-10"/>
      <point x="305" y="-10" type="curve" smooth="yes"/>
      <point x="462" y="-10"/>
      <point x="561" y="61"/>
      <point x="561" y="178" type="curve" smooth="yes"/>
      <point x="561" y="257"/>
      <point x="512" y="314"/>
      <point x="436" y="341" type="curve"/>
      <point x="436" y="342" type="line"/>
      <point x="499" y="369"/>
      <point x="535" y="421"/>
      <point x="535" y="488" type="curve" smooth="yes"/>
      <point x="535" y="600"/>
      <point x="445" y="668"/>
      <point x="305" y="668" type="curve" smooth="yes"/>
      <point x="163" y="668"/>
      <point x="74" y="600"/>
    </contour>
    <contour>
      <point x="407" y="480" type="curve" smooth="yes"/>
      <point x="407" y="423"/>
      <point x="367" y="390"/>
      <point x="305" y="390" type="curve" smooth="yes"/>
      <point x="242" y="390"/>
      <point x="202" y="423"/>
      <point x="202" y="480" type="curve" smooth="yes"/>
      <point x="202" y="536"/>
      <point x="242" y="569"/>
      <point x="305" y="569" type="curve" smooth="yes"/>
      <point x="367" y="569"/>
      <point x="407" y="536"/>
    </contour>
    <contour>
      <point x="183" y="190" type="curve" smooth="yes"/>
      <point x="183" y="252"/>
      <point x="229" y="290"/>
      <point x="305" y="290" type="curve" smooth="yes"/>
      <point x="380" y="290"/>
      <point x="426" y="252"/>
      <point x="426" y="190" type="curve" smooth="yes"/>
      <point x="426" y="127"/>
      <point x="380" y="89"/>
      <point x="305" y="89" type="curve" smooth="yes"/>
      <point x="229" y="89"/>
      <point x="183" y="127"/>
    </contour>
  </outline>
</glyph>
<glyph name="eight.tf" format="2">
  <advance width="604"/>
  <outline>
    <contour>
      <point x="77" y="488" type="curve" smooth="yes"/>
      <point x="77" y="419"/>
      <point x="116" y="367"/>
      <point x="175" y="342" type="curve"/>
      <point x="175" y="341" type="line"/>
      <point x="101" y="314"/>
      <point x="55" y="258"/>
      <point x="55" y="180" type="curve" smooth="yes"/>
      <point x="55" y="62"/>
      <point x="150" y="-10"/>
      <point x="302" y="-10" type="curve" smooth="yes"/>
      <point x="454" y="-10"/>
      <point x="549" y="62"/>
      <point x="549" y="180" type="curve" smooth="yes"/>
      <point x="549" y="260"/>
      <point x="502" y="314"/>
      <point x="430" y="341" type="curve"/>
      <point x="430" y="342" type="line"/>
      <point x="489" y="368"/>
      <point x="527" y="420"/>
      <point x="527" y="488" type="curve" smooth="yes"/>
      <point x="527" y="600"/>
      <point x="440" y="668"/>
      <point x="302" y="668" type="curve" smooth="yes"/>
      <point x="164" y="668"/>
      <point x="77" y="600"/>
    </contour>
    <contour>
      <point x="400" y="475" type="curve" smooth="yes"/>
      <point x="400" y="421"/>
      <point x="361" y="389"/>
      <point x="302" y="389" type="curve" smooth="yes"/>
      <point x="243" y="389"/>
      <point x="204" y="421"/>
      <point x="204" y="475" type="curve" smooth="yes"/>
      <point x="204" y="531"/>
      <point x="242" y="562"/>
      <point x="302" y="562" type="curve" smooth="yes"/>
      <point x="362" y="562"/>
      <point x="400" y="531"/>
    </contour>
    <contour>
      <point x="187" y="192" type="curve" smooth="yes"/>
      <point x="187" y="253"/>
      <point x="232" y="289"/>
      <point x="302" y="289" type="curve" smooth="yes"/>
      <point x="374" y="289"/>
      <point x="418" y="253"/>
      <point x="418" y="192" type="curve" smooth="yes"/>
      <point x="418" y="132"/>
      <point x="375" y="96"/>
      <point x="302" y="96" type="curve" smooth="yes"/>
      <point x="231" y="96"/>
      <point x="187" y="132"/>
    </contour>
  </outline>
</glyph>
<glyph name="emdashsuperior" format="2">
  <advance width="671"/>
  <outline>
    <contour>
      <point x="53" y="568" type="line"/>
      <point x="53" y="492" type="line"/>
      <point x="619" y="492" type="line"/>
      <point x="619" y="568" type="line"/>
    </contour>
  </outline>
</glyph>
<glyph name="endashsuperior" format="2">
  <advance width="454"/>
  <outline>
    <contour>
      <point x="53" y="568" type="line"/>
      <point x="53" y="492" type="line"/>
      <point x="401" y="492" type="line"/>
      <point x="401" y="568" type="line"/>
    </contour>
  </outline>
</glyph>
<glyph name="euro.part" format="2">
  <advance width="701"/>
  <outline>
    <contour>
      <point x="115" y="330" type="curve" smooth="yes"/>
      <point x="115" y="119"/>
      <point x="225" y="-10"/>
      <point x="414" y="-10" type="curve" smooth="yes"/>
      <point x="536" y="-10"/>
      <point x="638" y="53"/>
      <point x="671" y="172" type="curve"/>
      <point x="561" y="207" type="line"/>
      <point x="542" y="130"/>
      <point x="483" y="92"/>
      <point x="417" y="92" type="curve" smooth="yes"/>
      <point x="302" y="92"/>
      <point x="243" y="180"/>
      <point x="243" y="330" type="curve" smooth="yes"/>
      <point x="243" y="481"/>
      <point x="309" y="568"/>
      <point x="421" y="568" type="curve" smooth="yes"/>
      <point x="486" y="568"/>
      <point x="542" y="535"/>
      <point x="558" y="465" type="curve"/>
      <point x="664" y="514" type="line"/>
      <point x="631" y="614"/>
      <point x="535" y="670"/>
      <point x="412" y="670" type="curve" smooth="yes"/>
      <point x="227" y="670"/>
      <point x="115" y="541"/>
    </contour>
  </outline>
</glyph>
<glyph name="f_idieresis" format="2">
  <advance width="708"/>
  <outline>
    <contour>
      <point x="245" y="0" type="line"/>
      <point x="245" y="454" type="line"/>
      <point x="239" y="488" type="line"/>
      <point x="232" y="510"/>
      <point x="228" y="532"/>
      <point x="228" y="559" type="curve" smooth="yes"/>
      <point x="228" y="605"/>
      <point x="255" y="627"/>
      <point x="302" y="627" type="curve" smooth="yes"/>
      <point x="326" y="627"/>
      <point x="341" y="622"/>
      <point x="355" y="612" type="curve"/>
      <point x="373" y="703" type="line"/>
      <point x="354" y="719"/>
      <point x="318" y="729"/>
      <point x="276" y="729" type="curve" smooth="yes"/>
      <point x="161" y="729"/>
      <point x="97" y="670"/>
      <point x="97" y="581" type="curve" smooth="yes"/>
      <point x="97" y="543"/>
      <point x="104" y="510"/>
      <point x="116" y="483" type="curve"/>
      <point x="108" y="459" type="line"/>
      <point x="108" y="0" type="line"/>
    </contour>
    <contour>
      <point x="392" y="398" type="line"/>
      <point x="392" y="500" type="line"/>
      <point x="21" y="500" type="line"/>
      <point x="21" y="398" type="line"/>
    </contour>
    <contour>
      <point x="635" y="0" type="line"/>
      <point x="635" y="500" type="line"/>
      <point x="498" y="500" type="line"/>
      <point x="498" y="0" type="line"/>
    </contour>
    <contour>
      <point x="549" y="635" type="curve" smooth="yes"/>
      <point x="549" y="680"/>
      <point x="522" y="706"/>
      <point x="476" y="706" type="curve" smooth="yes"/>
      <point x="431" y="706"/>
      <point x="405" y="680"/>
      <point x="405" y="635" type="curve" smooth="yes"/>
      <point x="405" y="590"/>
      <point x="431" y="564"/>
      <point x="476" y="564" type="curve" smooth="yes"/>
      <point x="522" y="564"/>
      <point x="549" y="590"/>
    </contour>
    <contour>
      <point x="729" y="635" type="curve" smooth="yes"/>
      <point x="729" y="680"/>
      <point x="702" y="706"/>
      <point x="657" y="706" type="curve" smooth="yes"/>
      <point x="611" y="706"/>
      <point x="584" y="680"/>
      <point x="584" y="635" type="curve" smooth="yes"/>
      <point x="584" y="590"/>
      <point x="611" y="564"/>
      <point x="657" y="564" type="curve" smooth="yes"/>
      <point x="702" y="564"/>
      <point x="729" y="590"/>
    </contour>
  </outline>
</glyph>
<glyph name="four.tf" format="2">
  <advance width="604"/>
  <outline>
    <contour>
      <point x="464" y="0" type="line"/>
      <point x="464" y="155" type="line"/>
      <point x="575" y="155" type="line"/>
      <point x="575" y="255" type="line"/>
      <point x="464" y="255" type="line"/>
      <point x="464" y="660" type="line"/>
      <point x="300" y="660" type="line"/>
      <point x="37" y="228" type="line"/>
      <point x="37" y="155" type="line"/>
      <point x="339" y="155" type="line"/>
      <point x="339" y="0" type="line"/>
    </contour>
    <contour>
      <point x="295" y="470" type="line" smooth="yes"/>
      <point x="311" y="495"/>
      <point x="332" y="532"/>
      <point x="344" y="561" type="curve"/>
      <point x="346" y="561" type="line"/>
      <point x="344" y="511"/>
      <point x="342" y="453"/>
      <point x="342" y="412" type="curve" smooth="yes"/>
      <point x="342" y="255" type="line"/>
      <point x="159" y="255" type="line"/>
    </contour>
  </outline>
</glyph>
<glyph name="four.tosf" format="2">
  <advance width="604"/>
  <outline>
    <contour>
      <point x="472" y="-100" type="line"/>
      <point x="472" y="55" type="line"/>
      <point x="577" y="55" type="line"/>
      <point x="577" y="155" type="line"/>
      <point x="472" y="155" type="line"/>
      <point x="472" y="560" type="line"/>
      <point x="308" y="560" type="line"/>
      <point x="37" y="128" type="line"/>
      <point x="37" y="55" type="line"/>
      <point x="347" y="55" type="line"/>
      <point x="347" y="-100" type="line"/>
    </contour>
    <contour>
      <point x="302" y="373" type="line" smooth="yes"/>
      <point x="319" y="399"/>
      <point x="340" y="432"/>
      <point x="352" y="462" type="curve"/>
      <point x="354" y="462" type="line"/>
      <point x="352" y="411"/>
      <point x="350" y="353"/>
      <point x="350" y="312" type="curve" smooth="yes"/>
      <point x="350" y="155" type="line"/>
      <point x="159" y="155" type="line"/>
    </contour>
  </outline>
</glyph>
<glyph name="g.ss01" format="2">
  <advance width="629"/>
  <anchor x="301" y="500" name="top"/>
  <anchor x="411" y="-196" name="ogonek"/>
  <anchor x="310" y="-210" name="bottom"/>
  <anchor x="296" y="-210" name="bottomC"/>
  <outline>
    <contour>
      <point x="436" y="500" type="line"/>
      <point x="426" y="380" type="line"/>
      <point x="419" y="363" type="line"/>
      <point x="419" y="7" type="line" smooth="yes"/>
      <point x="419" y="-72"/>
      <point x="371" y="-121"/>
      <point x="301" y="-121" type="curve" smooth="yes"/>
      <point x="235" y="-121"/>
      <point x="201" y="-94"/>
      <point x="194" y="-38" type="curve"/>
      <point x="63" y="-78" type="line"/>
      <point x="81" y="-180"/>
      <point x="173" y="-215"/>
      <point x="286" y="-215" type="curve" smooth="yes"/>
      <point x="455" y="-215"/>
      <point x="556" y="-140"/>
      <point x="556" y="40" type="curve" smooth="yes"/>
      <point x="556" y="383" type="line"/>
      <point x="556" y="500" type="line"/>
    </contour>
    <contour>
      <point x="48" y="258" type="curve" smooth="yes"/>
      <point x="48" y="101"/>
      <point x="129" y="9"/>
      <point x="262" y="9" type="curve" smooth="yes"/>
      <point x="379" y="9"/>
      <point x="451" y="93"/>
      <point x="451" y="196" type="curve"/>
      <point x="419" y="254" type="line"/>
      <point x="419" y="164"/>
      <point x="373" y="113"/>
      <point x="303" y="113" type="curve" smooth="yes"/>
      <point x="230" y="113"/>
      <point x="186" y="164"/>
      <point x="186" y="259" type="curve" smooth="yes"/>
      <point x="186" y="354"/>
      <point x="230" y="405"/>
      <point x="303" y="405" type="curve" smooth="yes"/>
      <point x="375" y="405"/>
      <point x="419" y="353"/>
      <point x="419" y="264" type="curve"/>
      <point x="446" y="323" type="line"/>
      <point x="446" y="427"/>
      <point x="379" y="510"/>
      <point x="262" y="510" type="curve" smooth="yes"/>
      <point x="130" y="510"/>
      <point x="48" y="417"/>
    </contour>
  </outline>
</glyph>
<glyph name="germandbls.sc" format="2">
  <advance width="652"/>
  <anchor x="350" y="560" name="top"/>
  <anchor x="475" y="0" name="ogonek"/>
  <anchor x="350" y="0" name="bottom"/>
  <anchor x="431" y="0" name="bottomC"/>
  <outline>
    <contour>
      <point x="215" y="0" type="line"/>
      <point x="215" y="343" type="line" smooth="yes"/>
      <point x="215" y="412"/>
      <point x="266" y="457"/>
      <point x="329" y="457" type="curve" smooth="yes"/>
      <point x="462" y="457" type="line"/>
      <point x="317" y="309" type="line"/>
      <point x="393" y="264" type="line"/>
      <point x="589" y="459" type="line"/>
      <point x="589" y="560" type="line"/>
      <point x="313" y="560" type="line" smooth="yes"/>
      <point x="175" y="560"/>
      <point x="78" y="476"/>
      <point x="78" y="347" type="curve" smooth="yes"/>
      <point x="78" y="0" type="line"/>
    </contour>
    <contour>
      <point x="621" y="160" type="curve" smooth="yes"/>
      <point x="621" y="265"/>
      <point x="545" y="309"/>
      <point x="438" y="309" type="curve" smooth="yes"/>
      <point x="317" y="309" type="line"/>
      <point x="317" y="229" type="line"/>
      <point x="400" y="229" type="line" smooth="yes"/>
      <point x="460" y="229"/>
      <point x="498" y="215"/>
      <point x="498" y="161" type="curve" smooth="yes"/>
      <point x="498" y="117"/>
      <point x="463" y="91"/>
      <point x="410" y="91" type="curve" smooth="yes"/>
      <point x="370" y="91"/>
      <point x="337" y="107"/>
      <point x="312" y="127" type="curve"/>
      <point x="276" y="47" type="line"/>
      <point x="304" y="17"/>
      <point x="356" y="-4"/>
      <point x="433" y="-4" type="curve" smooth="yes"/>
      <point x="544" y="-4"/>
      <point x="621" y="55"/>
    </contour>
  </outline>
</glyph>
<glyph name="h.sc" format="2">
  <advance width="674"/>
  <anchor x="337" y="560" name="top"/>
  <anchor x="595" y="0" name="ogonek"/>
  <anchor x="337" y="0" name="bottom"/>
  <anchor x="526" y="0" name="bottomC"/>
  <outline>
    <contour>
      <point x="460" y="560" type="line"/>
      <point x="460" y="0" type="line"/>
      <point x="595" y="0" type="line"/>
      <point x="595" y="560" type="line"/>
    </contour>
    <contour>
      <point x="78" y="560" type="line"/>
      <point x="78" y="0" type="line"/>
      <point x="214" y="0" type="line"/>
      <point x="214" y="560" type="line"/>
    </contour>
    <contour>
      <point x="147" y="337" type="line"/>
      <point x="147" y="230" type="line"/>
      <point x="529" y="230" type="line"/>
      <point x="529" y="337" type="line"/>
    </contour>
  </outline>
</glyph>
<glyph name="idieresis.sc" format="2">
  <advance width="294"/>
  <anchor x="147" y="0" name="bottomC"/>
  <anchor x="147" y="560" name="top"/>
  <anchor x="215" y="0" name="ogonek"/>
  <anchor x="147" y="0" name="bottom"/>
  <outline>
    <contour>
      <point x="-20" y="695" type="curve" smooth="yes"/>
      <point x="-20" y="652"/>
      <point x="8" y="625"/>
      <point x="53" y="625" type="curve" smooth="yes"/>
      <point x="98" y="625"/>
      <point x="127" y="652"/>
      <point x="127" y="695" type="curve" smooth="yes"/>
      <point x="127" y="738"/>
      <point x="98" y="765"/>
      <point x="53" y="765" type="curve" smooth="yes"/>
      <point x="8" y="765"/>
      <point x="-20" y="738"/>
    </contour>
    <contour>
      <point x="167" y="695" type="curve" smooth="yes"/>
      <point x="167" y="652"/>
      <point x="195" y="625"/>
      <point x="239" y="625" type="curve" smooth="yes"/>
      <point x="285" y="625"/>
      <point x="313" y="652"/>
      <point x="313" y="695" type="curve" smooth="yes"/>
      <point x="313" y="738"/>
      <point x="285" y="765"/>
      <point x="239" y="765" type="curve" smooth="yes"/>
      <point x="195" y="765"/>
      <point x="167" y="738"/>
    </contour>
    <component base="i.sc"/>
  </outline>
</glyph>
<glyph name="iogonek_j" format="2">
  <advance width="563"/>
  <anchor x="202" y="4" name="ogonek_1"/>
  <anchor x="390" y="-204" name="ogonek_2"/>
  <anchor x="141" y="0" name="bottomC_1"/>
  <anchor x="369" y="-210" name="bottomC_2"/>
  <anchor x="141" y="0" name="bottom_1"/>
  <anchor x="369" y="-210" name="bottom_2"/>
  <anchor x="141" y="709" name="top_1"/>
  <anchor x="422" y="709" name="top_2"/>
  <outline>
    <contour>
      <point x="207" y="-192" type="curve"/>
      <point x="208" y="-117" type="line"/>
      <point x="193" y="-129"/>
      <point x="175" y="-134"/>
      <point x="151" y="-134" type="curve" smooth="yes"/>
      <point x="120" y="-134"/>
      <point x="102" y="-119"/>
      <point x="102" y="-91" type="curve" smooth="yes"/>
      <point x="102" y="-56"/>
      <point x="125" y="-27"/>
      <point x="209" y="0" type="curve"/>
      <point x="143" y="21" type="line"/>
      <point x="47" y="-5"/>
      <point x="6" y="-49"/>
      <point x="6" y="-114" type="curve" smooth="yes"/>
      <point x="6" y="-173"/>
      <point x="45" y="-215"/>
      <point x="122" y="-215" type="curve" smooth="yes"/>
      <point x="158" y="-215"/>
      <point x="186" y="-207"/>
    </contour>
    <component base="i"/>
    <component base="j.ogonek" xOffset="235"/>
  </outline>
</glyph>
<glyph name="j.ogonek" format="2">
  <advance width="314"/>
  <anchor x="187" y="709" name="top"/>
  <anchor x="155" y="-204" name="ogonek"/>
  <anchor x="134" y="-210" name="bottom"/>
  <anchor x="134" y="-210" name="bottomC"/>
  <outline>
    <contour>
      <point x="103" y="645" type="curve" smooth="yes"/>
      <point x="103" y="598"/>
      <point x="132" y="572"/>
      <point x="187" y="572" type="curve" smooth="yes"/>
      <point x="243" y="572"/>
      <point x="272" y="598"/>
      <point x="272" y="645" type="curve" smooth="yes"/>
      <point x="272" y="692"/>
      <point x="243" y="719"/>
      <point x="187" y="719" type="curve" smooth="yes"/>
      <point x="132" y="719"/>
      <point x="103" y="692"/>
    </contour>
    <component base="jdotless.ogonek"/>
  </outline>
</glyph>
<glyph name="j_j.liga" format="2">
  <advance width="562"/>
  <outline>
    <contour>
      <point x="72" y="500" type="line"/>
      <point x="72" y="-24" type="line" smooth="yes"/>
      <point x="72" y="-87"/>
      <point x="46" y="-109"/>
      <point x="3" y="-109" type="curve" smooth="yes"/>
      <point x="-26" y="-109"/>
      <point x="-51" y="-99"/>
      <point x="-67" y="-85" type="curve"/>
      <point x="-89" y="-183" type="line"/>
      <point x="-59" y="-203"/>
      <point x="-18" y="-215"/>
      <point x="31" y="-215" type="curve" smooth="yes"/>
      <point x="132" y="-215"/>
      <point x="209" y="-168"/>
      <point x="209" y="-37" type="curve" smooth="yes"/>
      <point x="209" y="500" type="line"/>
    </contour>
    <contour>
      <point x="354" y="500" type="line"/>
      <point x="354" y="-32" type="line" smooth="yes"/>
      <point x="354" y="-88"/>
      <point x="331" y="-108"/>
      <point x="298" y="-108" type="curve" smooth="yes"/>
      <point x="272" y="-108"/>
      <point x="251" y="-98"/>
      <point x="236" y="-85" type="curve"/>
      <point x="215" y="-189" type="line"/>
      <point x="241" y="-205"/>
      <point x="271" y="-215"/>
      <point x="311" y="-215" type="curve" smooth="yes"/>
      <point x="396" y="-215"/>
      <point x="491" y="-180"/>
      <point x="491" y="-40" type="curve" smooth="yes"/>
      <point x="491" y="500" type="line"/>
    </contour>
    <contour>
      <point x="56" y="645" type="curve" smooth="yes"/>
      <point x="56" y="598"/>
      <point x="86" y="572"/>
      <point x="141" y="572" type="curve" smooth="yes"/>
      <point x="196" y="572"/>
      <point x="226" y="598"/>
      <point x="226" y="645" type="curve" smooth="yes"/>
      <point x="226" y="692"/>
      <point x="196" y="719"/>
      <point x="141" y="719" type="curve" smooth="yes"/>
      <point x="86" y="719"/>
      <point x="56" y="692"/>
    </contour>
    <contour>
      <point x="337" y="645" type="curve" smooth="yes"/>
      <point x="337" y="598"/>
      <point x="367" y="572"/>
      <point x="422" y="572" type="curve" smooth="yes"/>
      <point x="478" y="572"/>
      <point x="507" y="598"/>
      <point x="507" y="645" type="curve" smooth="yes"/>
      <point x="507" y="692"/>
      <point x="478" y="719"/>
      <point x="422" y="719" type="curve" smooth="yes"/>
      <point x="367" y="719"/>
      <point x="337" y="692"/>
    </contour>
  </outline>
</glyph>
<glyph name="jdotless.ogonek" format="2">
  <advance width="329"/>
  <anchor x="188" y="500" name="top"/>
  <anchor x="155" y="-204" name="ogonek"/>
  <anchor x="134" y="-210" name="bottom"/>
  <anchor x="134" y="-210" name="bottomC"/>
  <outline>
    <contour>
      <point x="119" y="500" type="line"/>
      <point x="119" y="-32" type="line" smooth="yes"/>
      <point x="119" y="-88"/>
      <point x="106" y="-108"/>
      <point x="76" y="-108" type="curve" smooth="yes"/>
      <point x="57" y="-108"/>
      <point x="45" y="-105"/>
      <point x="33" y="-97" type="curve"/>
      <point x="12" y="-202" type="line"/>
      <point x="35" y="-211"/>
      <point x="57" y="-215"/>
      <point x="88" y="-215" type="curve" smooth="yes"/>
      <point x="173" y="-215"/>
      <point x="256" y="-180"/>
      <point x="256" y="-40" type="curve" smooth="yes"/>
      <point x="256" y="500" type="line"/>
    </contour>
  </outline>
</glyph>
<glyph name="k.sc" format="2">
  <advance width="632"/>
  <anchor x="327" y="560" name="top"/>
  <anchor x="618" y="0" name="ogonek"/>
  <anchor x="341" y="0" name="bottom"/>
  <anchor x="550" y="0" name="bottomC"/>
  <outline>
    <contour>
      <point x="461" y="560" type="line"/>
      <point x="155" y="236" type="line"/>
      <point x="176" y="117" type="line"/>
      <point x="320" y="265" type="line"/>
      <point x="335" y="260" type="line"/>
      <point x="612" y="560" type="line"/>
    </contour>
    <contour>
      <point x="78" y="560" type="line"/>
      <point x="78" y="0" type="line"/>
      <point x="214" y="0" type="line"/>
      <point x="214" y="560" type="line"/>
    </contour>
    <contour>
      <point x="267" y="298" type="line"/>
      <point x="460" y="0" type="line"/>
      <point x="618" y="0" type="line"/>
      <point x="369" y="370" type="line"/>
    </contour>
  </outline>
</glyph>
<glyph name="longs.component" format="2">
  <advance width="276"/>
  <anchor x="182" y="730" name="top"/>
  <anchor x="204" y="0" name="ogonek"/>
  <anchor x="150" y="0" name="bottom"/>
  <anchor x="135" y="0" name="bottomC"/>
  <outline>
    <contour>
      <point x="204" y="0" type="line"/>
      <point x="204" y="557" type="line" smooth="yes"/>
      <point x="204" y="606"/>
      <point x="222" y="627"/>
      <point x="254" y="627" type="curve" smooth="yes"/>
      <point x="267" y="627"/>
      <point x="276" y="623"/>
      <point x="285" y="616" type="curve"/>
      <point x="293" y="713" type="line"/>
      <point x="277" y="724"/>
      <point x="255" y="729"/>
      <point x="228" y="729" type="curve" smooth="yes"/>
      <point x="123" y="729"/>
      <point x="70" y="673"/>
      <point x="70" y="560" type="curve" smooth="yes"/>
      <point x="70" y="0" type="line"/>
    </contour>
  </outline>
</glyph>
<glyph name="longs_l" format="2">
  <advance width="621"/>
  <anchor x="586" y="354" name="center"/>
  <anchor x="500" y="0" name="bottom"/>
  <anchor x="436" y="719" name="top"/>
  <anchor x="511" y="0" name="bottomC"/>
  <anchor x="574" y="719" name="topright"/>
  <anchor x="572" y="0" name="ogonek"/>
  <outline>
    <contour>
      <point x="204" y="0" type="line"/>
      <point x="204" y="549" type="line" smooth="yes"/>
      <point x="204" y="604"/>
      <point x="231" y="627"/>
      <point x="274" y="627" type="curve" smooth="yes"/>
      <point x="292" y="627"/>
      <point x="305" y="623"/>
      <point x="318" y="614" type="curve"/>
      <point x="330" y="705" type="line"/>
      <point x="311" y="722"/>
      <point x="283" y="729"/>
      <point x="240" y="729" type="curve" smooth="yes"/>
      <point x="135" y="729"/>
      <point x="70" y="673"/>
      <point x="70" y="560" type="curve" smooth="yes"/>
      <point x="70" y="0" type="line"/>
    </contour>
    <component base="l" xOffset="301"/>
  </outline>
</glyph>
<glyph name="longs_l.ss02" format="2">
  <advance width="582"/>
  <anchor x="440" y="0" name="bottomC"/>
  <anchor x="440" y="719" name="top"/>
  <anchor x="501" y="4" name="ogonek"/>
  <anchor x="577" y="719" name="topright"/>
  <anchor x="440" y="0" name="bottom"/>
  <outline>
    <contour>
      <point x="204" y="0" type="line"/>
      <point x="204" y="549" type="line" smooth="yes"/>
      <point x="204" y="604"/>
      <point x="231" y="627"/>
      <point x="274" y="627" type="curve" smooth="yes"/>
      <point x="292" y="627"/>
      <point x="305" y="623"/>
      <point x="318" y="614" type="curve"/>
      <point x="330" y="705" type="line"/>
      <point x="311" y="722"/>
      <point x="283" y="729"/>
      <point x="240" y="729" type="curve" smooth="yes"/>
      <point x="135" y="729"/>
      <point x="70" y="673"/>
      <point x="70" y="560" type="curve" smooth="yes"/>
      <point x="70" y="0" type="line"/>
    </contour>
    <component base="l.ss02" xOffset="298"/>
  </outline>
</glyph>
<glyph name="lslash.sc" format="2">
  <advance width="578"/>
  <anchor x="346" y="0" name="bottom"/>
  <anchor x="175" y="560" name="top"/>
  <anchor x="547" y="0" name="ogonek"/>
  <anchor x="339" y="560" name="topright"/>
  <anchor x="346" y="0" name="bottomC"/>
  <outline>
    <contour>
      <point x="5" y="241" type="line"/>
      <point x="5" y="145" type="line"/>
      <point x="391" y="338" type="line"/>
      <point x="391" y="434" type="line"/>
    </contour>
    <component base="l.sc" xOffset="24"/>
  </outline>
</glyph>
<glyph name="lslash.ss02" format="2">
  <advance width="340"/>
  <anchor x="170" y="0" name="bottom"/>
  <anchor x="175" y="719" name="top"/>
  <anchor x="232" y="4" name="ogonek"/>
  <anchor x="308" y="719" name="topright"/>
  <anchor x="171" y="0" name="bottomC"/>
  <outline>
    <contour>
      <point x="179" y="306" type="line"/>
      <point x="316" y="385" type="line"/>
      <point x="316" y="491" type="line"/>
      <point x="160" y="389" type="line"/>
      <point x="25" y="312" type="line"/>
      <point x="25" y="206" type="line"/>
    </contour>
    <component base="l.ss02" xOffset="29"/>
  </outline>
</glyph>
<glyph name="n.swsh" format="2">
  <advance width="638"/>
  <anchor x="315" y="500" name="top"/>
  <anchor x="594" y="-90" name="ogonek"/>
  <anchor x="308" y="0" name="bottom"/>
  <anchor x="564" y="-90" name="bottomC"/>
  <outline>
    <contour>
      <point x="173" y="280" type="curve"/>
      <point x="209" y="264" type="line"/>
      <point x="209" y="364"/>
      <point x="266" y="402"/>
      <point x="324" y="402" type="curve" smooth="yes"/>
      <point x="376" y="402"/>
      <point x="413" y="374"/>
      <point x="413" y="288" type="curve" smooth="yes"/>
      <point x="413" y="35" type="line" smooth="yes"/>
      <point x="413" y="-51"/>
      <point x="465" y="-98"/>
      <point x="544" y="-98" type="curve" smooth="yes"/>
      <point x="585" y="-98"/>
      <point x="604" y="-91"/>
      <point x="630" y="-78" type="curve"/>
      <point x="643" y="8" type="line"/>
      <point x="627" y="0"/>
      <point x="615" y="-2"/>
      <point x="595" y="-2" type="curve" smooth="yes"/>
      <point x="571" y="-2"/>
      <point x="550" y="11"/>
      <point x="550" y="47" type="curve" smooth="yes"/>
      <point x="550" y="328" type="line" smooth="yes"/>
      <point x="550" y="449"/>
      <point x="474" y="510"/>
      <point x="370" y="510" type="curve" smooth="yes"/>
      <point x="257" y="510"/>
      <point x="173" y="438"/>
    </contour>
    <contour>
      <point x="72" y="500" type="line"/>
      <point x="72" y="344" type="line"/>
      <point x="72" y="0" type="line"/>
      <point x="209" y="0" type="line"/>
      <point x="209" y="341" type="line"/>
      <point x="202" y="366" type="line"/>
      <point x="195" y="500" type="line"/>
    </contour>
  </outline>
</glyph>
<glyph name="nine.osf" format="2">
  <advance width="612"/>
  <outline>
    <contour>
      <point x="56" y="353" type="curve" smooth="yes"/>
      <point x="56" y="224"/>
      <point x="145" y="140"/>
      <point x="274" y="140" type="curve" smooth="yes"/>
      <point x="360" y="140"/>
      <point x="422" y="176"/>
      <point x="439" y="245" type="curve"/>
      <point x="443" y="245" type="line"/>
      <point x="444" y="231"/>
      <point x="444" y="220"/>
      <point x="444" y="211" type="curve" smooth="yes"/>
      <point x="444" y="71"/>
      <point x="390" y="-9"/>
      <point x="300" y="-9" type="curve" smooth="yes"/>
      <point x="220" y="-9"/>
      <point x="189" y="28"/>
      <point x="177" y="92" type="curve"/>
      <point x="58" y="43" type="line"/>
      <point x="99" y="-69"/>
      <point x="179" y="-110"/>
      <point x="298" y="-110" type="curve" smooth="yes"/>
      <point x="468" y="-110"/>
      <point x="565" y="20"/>
      <point x="565" y="228" type="curve" smooth="yes"/>
      <point x="565" y="444"/>
      <point x="467" y="570"/>
      <point x="299" y="570" type="curve" smooth="yes"/>
      <point x="150" y="570"/>
      <point x="56" y="487"/>
    </contour>
    <contour>
      <point x="411" y="352" type="curve" smooth="yes"/>
      <point x="411" y="285"/>
      <point x="366" y="240"/>
      <point x="297" y="240" type="curve" smooth="yes"/>
      <point x="224" y="240"/>
      <point x="182" y="282"/>
      <point x="182" y="352" type="curve" smooth="yes"/>
      <point x="182" y="425"/>
      <point x="224" y="466"/>
      <point x="297" y="466" type="curve" smooth="yes"/>
      <point x="366" y="466"/>
      <point x="411" y="422"/>
    </contour>
  </outline>
</glyph>
<glyph name="nine.sc" format="2">
  <advance width="552"/>
  <outline>
    <contour>
      <point x="509" y="278" type="curve" smooth="yes"/>
      <point x="509" y="462"/>
      <point x="420" y="568"/>
      <point x="266" y="568" type="curve" smooth="yes"/>
      <point x="122" y="568"/>
      <point x="41" y="493"/>
      <point x="42" y="382" type="curve" smooth="yes"/>
      <point x="43" y="269"/>
      <point x="128" y="207"/>
      <point x="240" y="207" type="curve" smooth="yes"/>
      <point x="304" y="207"/>
      <point x="368" y="234"/>
      <point x="385" y="292" type="curve"/>
      <point x="389" y="292" type="line"/>
      <point x="389" y="287"/>
      <point x="389" y="281"/>
      <point x="389" y="277" type="curve" smooth="yes"/>
      <point x="389" y="158"/>
      <point x="350" y="93"/>
      <point x="261" y="93" type="curve" smooth="yes"/>
      <point x="195" y="93"/>
      <point x="166" y="121"/>
      <point x="157" y="169" type="curve"/>
      <point x="43" y="115" type="line"/>
      <point x="83" y="30"/>
      <point x="151" y="-8"/>
      <point x="263" y="-8" type="curve" smooth="yes"/>
      <point x="423" y="-8"/>
      <point x="509" y="90"/>
    </contour>
    <contour>
      <point x="169" y="382" type="curve" smooth="yes"/>
      <point x="169" y="435"/>
      <point x="204" y="467"/>
      <point x="264" y="467" type="curve" smooth="yes"/>
      <point x="322" y="467"/>
      <point x="359" y="433"/>
      <point x="359" y="381" type="curve" smooth="yes"/>
      <point x="359" y="331"/>
      <point x="321" y="296"/>
      <point x="264" y="296" type="curve" smooth="yes"/>
      <point x="204" y="296"/>
      <point x="169" y="328"/>
    </contour>
  </outline>
</glyph>
<glyph name="numbersign.tf" format="2">
  <advance width="604"/>
  <outline>
    <contour>
      <point x="427" y="660" type="line"/>
      <point x="326" y="0" type="line"/>
      <point x="415" y="0" type="line"/>
      <point x="515" y="660" type="line"/>
    </contour>
    <contour>
      <point x="16" y="257" type="line"/>
      <point x="16" y="170" type="line"/>
      <point x="548" y="170" type="line"/>
      <point x="548" y="257" type="line"/>
    </contour>
    <contour>
      <point x="198" y="660" type="line"/>
      <point x="97" y="0" type="line"/>
      <point x="185" y="0" type="line"/>
      <point x="286" y="660" type="line"/>
    </contour>
    <contour>
      <point x="55" y="493" type="line"/>
      <point x="55" y="406" type="line"/>
      <point x="588" y="406" type="line"/>
      <point x="588" y="493" type="line"/>
    </contour>
  </outline>
</glyph>
<glyph name="o.sc" format="2">
  <advance width="667"/>
  <anchor x="334" y="560" name="top"/>
  <anchor x="407" y="0" name="ogonek"/>
  <anchor x="334" y="0" name="bottom"/>
  <anchor x="334" y="0" name="bottomC"/>
  <outline>
    <contour>
      <point x="47" y="280" type="curve" smooth="yes"/>
      <point x="47" y="100"/>
      <point x="156" y="-8"/>
      <point x="334" y="-8" type="curve" smooth="yes"/>
      <point x="511" y="-8"/>
      <point x="620" y="100"/>
      <point x="620" y="280" type="curve" smooth="yes"/>
      <point x="620" y="460"/>
      <point x="511" y="568"/>
      <point x="334" y="568" type="curve" smooth="yes"/>
      <point x="156" y="568"/>
      <point x="47" y="460"/>
    </contour>
    <contour>
      <point x="483" y="280" type="curve" smooth="yes"/>
      <point x="483" y="161"/>
      <point x="428" y="99"/>
      <point x="334" y="99" type="curve" smooth="yes"/>
      <point x="239" y="99"/>
      <point x="184" y="161"/>
      <point x="184" y="280" type="curve" smooth="yes"/>
      <point x="184" y="399"/>
      <point x="239" y="461"/>
      <point x="334" y="461" type="curve" smooth="yes"/>
      <point x="428" y="461"/>
      <point x="483" y="399"/>
    </contour>
  </outline>
</glyph>
<glyph name="oe.sc" format="2">
  <advance width="949"/>
  <anchor x="537" y="560" name="top"/>
  <anchor x="537" y="0" name="bottom"/>
  <outline>
    <contour>
      <point x="547" y="280" type="curve"/>
      <point x="545" y="476"/>
      <point x="474" y="568"/>
      <point x="318" y="568" type="curve" smooth="yes"/>
      <point x="158" y="568"/>
      <point x="47" y="460"/>
      <point x="47" y="280" type="curve" smooth="yes"/>
      <point x="47" y="100"/>
      <point x="159" y="-8"/>
      <point x="316" y="-8" type="curve" smooth="yes"/>
      <point x="472" y="-8"/>
      <point x="545" y="84"/>
    </contour>
    <contour>
      <point x="182" y="280" type="curve" smooth="yes"/>
      <point x="182" y="399"/>
      <point x="236" y="461"/>
      <point x="332" y="461" type="curve" smooth="yes"/>
      <point x="421" y="461"/>
      <point x="473" y="399"/>
      <point x="473" y="280" type="curve" smooth="yes"/>
      <point x="473" y="160"/>
      <point x="421" y="99"/>
      <point x="332" y="99" type="curve" smooth="yes"/>
      <point x="236" y="99"/>
      <point x="182" y="161"/>
    </contour>
    <contour>
      <point x="912" y="0" type="line"/>
      <point x="912" y="101" type="line"/>
      <point x="546" y="101" type="line"/>
      <point x="546" y="0" type="line"/>
    </contour>
    <contour>
      <point x="601" y="0" type="line"/>
      <point x="601" y="560" type="line"/>
      <point x="504" y="560" type="line"/>
      <point x="504" y="0" type="line"/>
    </contour>
    <contour>
      <point x="837" y="234" type="line"/>
      <point x="837" y="331" type="line"/>
      <point x="546" y="331" type="line"/>
      <point x="546" y="234" type="line"/>
    </contour>
    <contour>
      <point x="902" y="459" type="line"/>
      <point x="902" y="560" type="line"/>
      <point x="546" y="560" type="line"/>
      <point x="546" y="459" type="line"/>
    </contour>
  </outline>
</glyph>
<glyph name="ogonek.A" format="2">
  <advance width="685"/>
  <anchor x="667" y="0" name="_ogonek"/>
  <outline>
    <contour>
      <point x="604" y="31" type="line"/>
      <point x="504" y="10"/>
      <point x="448" y="-34"/>
      <point x="448" y="-105" type="curve" smooth="yes"/>
      <point x="448" y="-178"/>
      <point x="504" y="-215"/>
      <point x="580" y="-215" type="curve" smooth="yes"/>
      <point x="617" y="-215"/>
      <point x="652" y="-209"/>
      <point x="676" y="-193" type="curve"/>
      <point x="656" y="-123" type="line"/>
      <point x="642" y="-132"/>
      <point x="622" y="-134"/>
      <point x="606" y="-134" type="curve" smooth="yes"/>
      <point x="570" y="-134"/>
      <point x="547" y="-117"/>
      <point x="547" y="-87" type="curve" smooth="yes"/>
      <point x="547" y="-52"/>
      <point x="572" y="-22"/>
      <point x="667" y="0" type="curve"/>
    </contour>
  </outline>
</glyph>
<glyph name="ogonek.I" format="2">
  <advance width="313"/>
  <anchor x="227" y="0" name="_ogonek"/>
  <outline>
    <contour>
      <point x="164" y="25" type="line"/>
      <point x="72" y="5"/>
      <point x="20" y="-44"/>
      <point x="20" y="-109" type="curve" smooth="yes"/>
      <point x="20" y="-178"/>
      <point x="74" y="-215"/>
      <point x="149" y="-215" type="curve" smooth="yes"/>
      <point x="191" y="-215"/>
      <point x="221" y="-208"/>
      <point x="247" y="-191" type="curve"/>
      <point x="225" y="-121" type="line"/>
      <point x="211" y="-130"/>
      <point x="194" y="-133"/>
      <point x="173" y="-133" type="curve" smooth="yes"/>
      <point x="137" y="-133"/>
      <point x="118" y="-116"/>
      <point x="118" y="-85" type="curve" smooth="yes"/>
      <point x="118" y="-55"/>
      <point x="141" y="-27"/>
      <point x="227" y="0" type="curve"/>
    </contour>
  </outline>
</glyph>
<glyph name="ogonek.e" format="2">
  <advance width="588"/>
  <anchor x="367" y="38" name="_ogonek"/>
  <outline>
    <contour>
      <point x="219" y="-107" type="curve" smooth="yes"/>
      <point x="219" y="-176"/>
      <point x="275" y="-215"/>
      <point x="351" y="-215" type="curve" smooth="yes"/>
      <point x="388" y="-215"/>
      <point x="422" y="-209"/>
      <point x="446" y="-194" type="curve"/>
      <point x="426" y="-123" type="line"/>
      <point x="412" y="-132"/>
      <point x="393" y="-134"/>
      <point x="376" y="-134" type="curve" smooth="yes"/>
      <point x="342" y="-134"/>
      <point x="319" y="-115"/>
      <point x="319" y="-84" type="curve" smooth="yes"/>
      <point x="319" y="-49"/>
      <point x="352" y="-20"/>
      <point x="425" y="17" type="curve"/>
      <point x="367" y="38" type="line"/>
      <point x="281" y="7"/>
      <point x="219" y="-36"/>
    </contour>
  </outline>
</glyph>
<glyph name="q.sc" format="2">
  <advance width="667"/>
  <anchor x="334" y="560" name="top"/>
  <anchor x="517" y="-167" name="ogonek"/>
  <anchor x="334" y="-210" name="bottom"/>
  <anchor x="482" y="-167" name="bottomC"/>
  <outline>
    <contour>
      <point x="293" y="22" type="line"/>
      <point x="278" y="-114"/>
      <point x="356" y="-170"/>
      <point x="473" y="-172" type="curve" smooth="yes"/>
      <point x="528" y="-173"/>
      <point x="581" y="-155"/>
      <point x="612" y="-130" type="curve"/>
      <point x="577" y="-34" type="line"/>
      <point x="554" y="-58"/>
      <point x="521" y="-71"/>
      <point x="475" y="-71" type="curve" smooth="yes"/>
      <point x="409" y="-71"/>
      <point x="365" y="-48"/>
      <point x="372" y="30" type="curve"/>
    </contour>
    <component base="o.sc"/>
  </outline>
</glyph>
<glyph name="question.sc" format="2">
  <advance width="508"/>
  <outline>
    <contour>
      <point x="17" y="420" type="curve"/>
      <point x="143" y="375" type="line"/>
      <point x="150" y="434"/>
      <point x="188" y="465"/>
      <point x="253" y="465" type="curve" smooth="yes"/>
      <point x="316" y="465"/>
      <point x="348" y="439"/>
      <point x="348" y="398" type="curve" smooth="yes"/>
      <point x="348" y="348"/>
      <point x="311" y="323"/>
      <point x="182" y="307" type="curve"/>
      <point x="184" y="192" type="line"/>
      <point x="309" y="192" type="line"/>
      <point x="313" y="267" type="line"/>
      <point x="402" y="275"/>
      <point x="483" y="319"/>
      <point x="483" y="417" type="curve" smooth="yes"/>
      <point x="483" y="518"/>
      <point x="389" y="568"/>
      <point x="257" y="568" type="curve" smooth="yes"/>
      <point x="114" y="568"/>
      <point x="36" y="514"/>
    </contour>
    <component base="period" xScale="0.9248" yScale="0.8934" xOffset="114"/>
  </outline>
</glyph>
<glyph name="quotesingle.sc" format="2">
  <advance width="246"/>
  <outline>
    <contour>
      <point x="70" y="591" type="line"/>
      <point x="70" y="325" type="line"/>
      <point x="164" y="325" type="line"/>
      <point x="192" y="591" type="line"/>
    </contour>
  </outline>
</glyph>
